%TF.GenerationSoftware,KiCad,Pcbnew,(6.0.7)*%
%TF.CreationDate,2022-08-25T16:09:55+02:00*%
%TF.ProjectId,esp32-minikeyboard-pcb,65737033-322d-46d6-996e-696b6579626f,rev?*%
%TF.SameCoordinates,Original*%
%TF.FileFunction,Profile,NP*%
%FSLAX46Y46*%
G04 Gerber Fmt 4.6, Leading zero omitted, Abs format (unit mm)*
G04 Created by KiCad (PCBNEW (6.0.7)) date 2022-08-25 16:09:55*
%MOMM*%
%LPD*%
G01*
G04 APERTURE LIST*
%TA.AperFunction,Profile*%
%ADD10C,0.150000*%
%TD*%
%TA.AperFunction,Profile*%
%ADD11C,0.100000*%
%TD*%
G04 APERTURE END LIST*
D10*
X86330000Y-109830000D02*
X86330000Y-107170000D01*
D11*
X120000000Y-51000000D02*
X120000000Y-119000000D01*
D10*
X67330000Y-107170000D02*
G75*
G03*
X64670000Y-107170000I-1330000J-1330000D01*
G01*
X86330000Y-88170000D02*
G75*
G03*
X83670000Y-88170000I-1330000J-1330000D01*
G01*
D11*
X50000000Y-119000000D02*
G75*
G03*
X51000000Y-120000000I1000000J0D01*
G01*
D10*
X102670000Y-109830000D02*
G75*
G03*
X105330000Y-109830000I1330000J1330000D01*
G01*
X102670000Y-107170000D02*
X102670000Y-109830000D01*
X83670000Y-109830000D02*
G75*
G03*
X86330000Y-109830000I1330000J1330000D01*
G01*
X86330000Y-90830000D02*
X86330000Y-88170000D01*
X64670000Y-107170000D02*
X64670000Y-109830000D01*
X83670000Y-90830000D02*
G75*
G03*
X86330000Y-90830000I1330000J1330000D01*
G01*
X83670000Y-88170000D02*
X83670000Y-90830000D01*
X86330000Y-107170000D02*
G75*
G03*
X83670000Y-107170000I-1330000J-1330000D01*
G01*
X64670000Y-109830000D02*
G75*
G03*
X67330000Y-109830000I1330000J1330000D01*
G01*
D11*
X51000000Y-50000000D02*
X119000000Y-50000000D01*
D10*
X105330000Y-107170000D02*
G75*
G03*
X102670000Y-107170000I-1330000J-1330000D01*
G01*
D11*
X50000000Y-51000000D02*
X50000000Y-119000000D01*
D10*
X67330000Y-109830000D02*
X67330000Y-107170000D01*
X105330000Y-109830000D02*
X105330000Y-107170000D01*
D11*
X120000000Y-51000000D02*
G75*
G03*
X119000000Y-50000000I-1000000J0D01*
G01*
X119000000Y-120000000D02*
G75*
G03*
X120000000Y-119000000I0J1000000D01*
G01*
X119000000Y-120000000D02*
X51000000Y-120000000D01*
X51000000Y-50000000D02*
G75*
G03*
X50000000Y-51000000I0J-1000000D01*
G01*
D10*
X83670000Y-107170000D02*
X83670000Y-109830000D01*
M02*
