M48
; DRILL file {KiCad (6.0.7)} date Thu 25 Aug 2022 04:09:58 PM CEST
; FORMAT={-:-/ absolute / inch / decimal}
; #@! TF.CreationDate,2022-08-25T16:09:58+02:00
; #@! TF.GenerationSoftware,Kicad,Pcbnew,(6.0.7)
; #@! TF.FileFunction,Plated,1,2,PTH
FMAT,2
INCH
; #@! TA.AperFunction,Plated,PTH,ViaDrill
T1C0.0157
; #@! TA.AperFunction,Plated,PTH,ComponentDrill
T2C0.0402
%
G90
G05
T1
X2.4016Y-4.3307
X2.5197Y-4.5276
X2.7953Y-4.495
X2.815Y-4.2717
X3.1496Y-4.3307
X3.2618Y-3.7461
X3.3299Y-4.5384
X3.4477Y-3.788
X3.563Y-3.5433
X3.6024Y-4.2126
X3.8976Y-4.5018
X4.0346Y-4.5202
X4.2126Y-4.2717
T2
X2.1665Y-2.0894
X2.1665Y-2.9894
X2.2665Y-2.0894
X2.2665Y-2.9894
X2.3665Y-2.0894
X2.3665Y-2.9894
X2.4665Y-2.0894
X2.4665Y-2.9894
X2.5665Y-2.0894
X2.5665Y-2.9894
X2.6665Y-2.0894
X2.6665Y-2.9894
X2.7665Y-2.0894
X2.7665Y-2.9894
X2.8665Y-2.0894
X2.8665Y-2.9894
X2.9665Y-2.0894
X2.9665Y-2.9894
X3.0665Y-2.0894
X3.0665Y-2.9894
X3.1665Y-2.0894
X3.1665Y-2.9894
X3.2665Y-2.0894
X3.2665Y-2.9894
X3.3665Y-2.0894
X3.3665Y-2.9894
X3.4665Y-2.0894
X3.4665Y-2.9894
X3.5665Y-2.0894
X3.5665Y-2.9894
X3.6665Y-2.0894
X3.6665Y-2.9894
X3.7665Y-2.0894
X3.7665Y-2.9894
X3.8665Y-2.0894
X3.8665Y-2.9894
X3.9665Y-2.0894
X3.9665Y-2.9894
X4.0665Y-2.0894
X4.0665Y-2.9894
X4.1665Y-2.0894
X4.1665Y-2.9894
X4.2665Y-2.0894
X4.2665Y-2.9894
T0
M30
