%TF.GenerationSoftware,KiCad,Pcbnew,(6.0.7)*%
%TF.CreationDate,2022-08-25T16:09:55+02:00*%
%TF.ProjectId,esp32-minikeyboard-pcb,65737033-322d-46d6-996e-696b6579626f,rev?*%
%TF.SameCoordinates,Original*%
%TF.FileFunction,Legend,Top*%
%TF.FilePolarity,Positive*%
%FSLAX46Y46*%
G04 Gerber Fmt 4.6, Leading zero omitted, Abs format (unit mm)*
G04 Created by KiCad (PCBNEW (6.0.7)) date 2022-08-25 16:09:55*
%MOMM*%
%LPD*%
G01*
G04 APERTURE LIST*
%ADD10C,0.150000*%
%ADD11C,0.127000*%
%ADD12C,0.200000*%
%ADD13C,0.120000*%
G04 APERTURE END LIST*
D10*
X92000000Y-96500000D02*
X78000000Y-96500000D01*
X78000000Y-115500000D02*
X78000000Y-101500000D01*
X92000000Y-101500000D02*
X92000000Y-115500000D01*
X78000000Y-96500000D02*
X78000000Y-82500000D01*
X92000000Y-115500000D02*
X78000000Y-115500000D01*
X73000000Y-101500000D02*
X73000000Y-115500000D01*
X78000000Y-82500000D02*
X92000000Y-82500000D01*
X78000000Y-101500000D02*
X92000000Y-101500000D01*
X97000000Y-115500000D02*
X97000000Y-101500000D01*
X111000000Y-115500000D02*
X97000000Y-115500000D01*
X59000000Y-101500000D02*
X73000000Y-101500000D01*
X97000000Y-101500000D02*
X111000000Y-101500000D01*
X59000000Y-115500000D02*
X59000000Y-101500000D01*
X111000000Y-101500000D02*
X111000000Y-115500000D01*
X92000000Y-82500000D02*
X92000000Y-96500000D01*
X73000000Y-115500000D02*
X59000000Y-115500000D01*
%TO.C,D4*%
X109289523Y-108972380D02*
X108649523Y-108972380D01*
X108649523Y-108820000D01*
X108680000Y-108728571D01*
X108740952Y-108667619D01*
X108801904Y-108637142D01*
X108923809Y-108606666D01*
X109015238Y-108606666D01*
X109137142Y-108637142D01*
X109198095Y-108667619D01*
X109259047Y-108728571D01*
X109289523Y-108820000D01*
X109289523Y-108972380D01*
X108862857Y-108058095D02*
X109289523Y-108058095D01*
X108619047Y-108210476D02*
X109076190Y-108362857D01*
X109076190Y-107966666D01*
%TO.C,Q2*%
X80350476Y-108560952D02*
X80320000Y-108621904D01*
X80259047Y-108682857D01*
X80167619Y-108774285D01*
X80137142Y-108835238D01*
X80137142Y-108896190D01*
X80289523Y-108865714D02*
X80259047Y-108926666D01*
X80198095Y-108987619D01*
X80076190Y-109018095D01*
X79862857Y-109018095D01*
X79740952Y-108987619D01*
X79680000Y-108926666D01*
X79649523Y-108865714D01*
X79649523Y-108743809D01*
X79680000Y-108682857D01*
X79740952Y-108621904D01*
X79862857Y-108591428D01*
X80076190Y-108591428D01*
X80198095Y-108621904D01*
X80259047Y-108682857D01*
X80289523Y-108743809D01*
X80289523Y-108865714D01*
X79710476Y-108347619D02*
X79680000Y-108317142D01*
X79649523Y-108256190D01*
X79649523Y-108103809D01*
X79680000Y-108042857D01*
X79710476Y-108012380D01*
X79771428Y-107981904D01*
X79832380Y-107981904D01*
X79923809Y-108012380D01*
X80289523Y-108378095D01*
X80289523Y-107981904D01*
%TO.C,R7*%
X62333333Y-82952380D02*
X62000000Y-82476190D01*
X61761904Y-82952380D02*
X61761904Y-81952380D01*
X62142857Y-81952380D01*
X62238095Y-82000000D01*
X62285714Y-82047619D01*
X62333333Y-82142857D01*
X62333333Y-82285714D01*
X62285714Y-82380952D01*
X62238095Y-82428571D01*
X62142857Y-82476190D01*
X61761904Y-82476190D01*
X62666666Y-81952380D02*
X63333333Y-81952380D01*
X62904761Y-82952380D01*
%TO.C,R6*%
X107333333Y-111952380D02*
X107000000Y-111476190D01*
X106761904Y-111952380D02*
X106761904Y-110952380D01*
X107142857Y-110952380D01*
X107238095Y-111000000D01*
X107285714Y-111047619D01*
X107333333Y-111142857D01*
X107333333Y-111285714D01*
X107285714Y-111380952D01*
X107238095Y-111428571D01*
X107142857Y-111476190D01*
X106761904Y-111476190D01*
X108190476Y-110952380D02*
X108000000Y-110952380D01*
X107904761Y-111000000D01*
X107857142Y-111047619D01*
X107761904Y-111190476D01*
X107714285Y-111380952D01*
X107714285Y-111761904D01*
X107761904Y-111857142D01*
X107809523Y-111904761D01*
X107904761Y-111952380D01*
X108095238Y-111952380D01*
X108190476Y-111904761D01*
X108238095Y-111857142D01*
X108285714Y-111761904D01*
X108285714Y-111523809D01*
X108238095Y-111428571D01*
X108190476Y-111380952D01*
X108095238Y-111333333D01*
X107904761Y-111333333D01*
X107809523Y-111380952D01*
X107761904Y-111428571D01*
X107714285Y-111523809D01*
%TO.C,D1*%
X71289523Y-108972380D02*
X70649523Y-108972380D01*
X70649523Y-108820000D01*
X70680000Y-108728571D01*
X70740952Y-108667619D01*
X70801904Y-108637142D01*
X70923809Y-108606666D01*
X71015238Y-108606666D01*
X71137142Y-108637142D01*
X71198095Y-108667619D01*
X71259047Y-108728571D01*
X71289523Y-108820000D01*
X71289523Y-108972380D01*
X71289523Y-107997142D02*
X71289523Y-108362857D01*
X71289523Y-108180000D02*
X70649523Y-108180000D01*
X70740952Y-108240952D01*
X70801904Y-108301904D01*
X70832380Y-108362857D01*
%TO.C,Q1*%
X61350476Y-108560952D02*
X61320000Y-108621904D01*
X61259047Y-108682857D01*
X61167619Y-108774285D01*
X61137142Y-108835238D01*
X61137142Y-108896190D01*
X61289523Y-108865714D02*
X61259047Y-108926666D01*
X61198095Y-108987619D01*
X61076190Y-109018095D01*
X60862857Y-109018095D01*
X60740952Y-108987619D01*
X60680000Y-108926666D01*
X60649523Y-108865714D01*
X60649523Y-108743809D01*
X60680000Y-108682857D01*
X60740952Y-108621904D01*
X60862857Y-108591428D01*
X61076190Y-108591428D01*
X61198095Y-108621904D01*
X61259047Y-108682857D01*
X61289523Y-108743809D01*
X61289523Y-108865714D01*
X61289523Y-107981904D02*
X61289523Y-108347619D01*
X61289523Y-108164761D02*
X60649523Y-108164761D01*
X60740952Y-108225714D01*
X60801904Y-108286666D01*
X60832380Y-108347619D01*
%TO.C,R1*%
X64833333Y-82952380D02*
X64500000Y-82476190D01*
X64261904Y-82952380D02*
X64261904Y-81952380D01*
X64642857Y-81952380D01*
X64738095Y-82000000D01*
X64785714Y-82047619D01*
X64833333Y-82142857D01*
X64833333Y-82285714D01*
X64785714Y-82380952D01*
X64738095Y-82428571D01*
X64642857Y-82476190D01*
X64261904Y-82476190D01*
X65785714Y-82952380D02*
X65214285Y-82952380D01*
X65500000Y-82952380D02*
X65500000Y-81952380D01*
X65404761Y-82095238D01*
X65309523Y-82190476D01*
X65214285Y-82238095D01*
%TO.C,D6*%
X84261904Y-111752380D02*
X84261904Y-110752380D01*
X84500000Y-110752380D01*
X84642857Y-110800000D01*
X84738095Y-110895238D01*
X84785714Y-110990476D01*
X84833333Y-111180952D01*
X84833333Y-111323809D01*
X84785714Y-111514285D01*
X84738095Y-111609523D01*
X84642857Y-111704761D01*
X84500000Y-111752380D01*
X84261904Y-111752380D01*
X85690476Y-110752380D02*
X85500000Y-110752380D01*
X85404761Y-110800000D01*
X85357142Y-110847619D01*
X85261904Y-110990476D01*
X85214285Y-111180952D01*
X85214285Y-111561904D01*
X85261904Y-111657142D01*
X85309523Y-111704761D01*
X85404761Y-111752380D01*
X85595238Y-111752380D01*
X85690476Y-111704761D01*
X85738095Y-111657142D01*
X85785714Y-111561904D01*
X85785714Y-111323809D01*
X85738095Y-111228571D01*
X85690476Y-111180952D01*
X85595238Y-111133333D01*
X85404761Y-111133333D01*
X85309523Y-111180952D01*
X85261904Y-111228571D01*
X85214285Y-111323809D01*
%TO.C,C1*%
X62333333Y-111857142D02*
X62285714Y-111904761D01*
X62142857Y-111952380D01*
X62047619Y-111952380D01*
X61904761Y-111904761D01*
X61809523Y-111809523D01*
X61761904Y-111714285D01*
X61714285Y-111523809D01*
X61714285Y-111380952D01*
X61761904Y-111190476D01*
X61809523Y-111095238D01*
X61904761Y-111000000D01*
X62047619Y-110952380D01*
X62142857Y-110952380D01*
X62285714Y-111000000D01*
X62333333Y-111047619D01*
X63285714Y-111952380D02*
X62714285Y-111952380D01*
X63000000Y-111952380D02*
X63000000Y-110952380D01*
X62904761Y-111095238D01*
X62809523Y-111190476D01*
X62714285Y-111238095D01*
%TO.C,D8*%
X103261904Y-111752380D02*
X103261904Y-110752380D01*
X103500000Y-110752380D01*
X103642857Y-110800000D01*
X103738095Y-110895238D01*
X103785714Y-110990476D01*
X103833333Y-111180952D01*
X103833333Y-111323809D01*
X103785714Y-111514285D01*
X103738095Y-111609523D01*
X103642857Y-111704761D01*
X103500000Y-111752380D01*
X103261904Y-111752380D01*
X104404761Y-111180952D02*
X104309523Y-111133333D01*
X104261904Y-111085714D01*
X104214285Y-110990476D01*
X104214285Y-110942857D01*
X104261904Y-110847619D01*
X104309523Y-110800000D01*
X104404761Y-110752380D01*
X104595238Y-110752380D01*
X104690476Y-110800000D01*
X104738095Y-110847619D01*
X104785714Y-110942857D01*
X104785714Y-110990476D01*
X104738095Y-111085714D01*
X104690476Y-111133333D01*
X104595238Y-111180952D01*
X104404761Y-111180952D01*
X104309523Y-111228571D01*
X104261904Y-111276190D01*
X104214285Y-111371428D01*
X104214285Y-111561904D01*
X104261904Y-111657142D01*
X104309523Y-111704761D01*
X104404761Y-111752380D01*
X104595238Y-111752380D01*
X104690476Y-111704761D01*
X104738095Y-111657142D01*
X104785714Y-111561904D01*
X104785714Y-111371428D01*
X104738095Y-111276190D01*
X104690476Y-111228571D01*
X104595238Y-111180952D01*
%TO.C,C2*%
X81333333Y-111857142D02*
X81285714Y-111904761D01*
X81142857Y-111952380D01*
X81047619Y-111952380D01*
X80904761Y-111904761D01*
X80809523Y-111809523D01*
X80761904Y-111714285D01*
X80714285Y-111523809D01*
X80714285Y-111380952D01*
X80761904Y-111190476D01*
X80809523Y-111095238D01*
X80904761Y-111000000D01*
X81047619Y-110952380D01*
X81142857Y-110952380D01*
X81285714Y-111000000D01*
X81333333Y-111047619D01*
X81714285Y-111047619D02*
X81761904Y-111000000D01*
X81857142Y-110952380D01*
X82095238Y-110952380D01*
X82190476Y-111000000D01*
X82238095Y-111047619D01*
X82285714Y-111142857D01*
X82285714Y-111238095D01*
X82238095Y-111380952D01*
X81666666Y-111952380D01*
X82285714Y-111952380D01*
%TO.C,U1*%
X51197380Y-75036904D02*
X52006904Y-75036904D01*
X52102142Y-74989285D01*
X52149761Y-74941666D01*
X52197380Y-74846428D01*
X52197380Y-74655952D01*
X52149761Y-74560714D01*
X52102142Y-74513095D01*
X52006904Y-74465476D01*
X51197380Y-74465476D01*
X52197380Y-73465476D02*
X52197380Y-74036904D01*
X52197380Y-73751190D02*
X51197380Y-73751190D01*
X51340238Y-73846428D01*
X51435476Y-73941666D01*
X51483095Y-74036904D01*
%TO.C,D5*%
X65261904Y-111752380D02*
X65261904Y-110752380D01*
X65500000Y-110752380D01*
X65642857Y-110800000D01*
X65738095Y-110895238D01*
X65785714Y-110990476D01*
X65833333Y-111180952D01*
X65833333Y-111323809D01*
X65785714Y-111514285D01*
X65738095Y-111609523D01*
X65642857Y-111704761D01*
X65500000Y-111752380D01*
X65261904Y-111752380D01*
X66738095Y-110752380D02*
X66261904Y-110752380D01*
X66214285Y-111228571D01*
X66261904Y-111180952D01*
X66357142Y-111133333D01*
X66595238Y-111133333D01*
X66690476Y-111180952D01*
X66738095Y-111228571D01*
X66785714Y-111323809D01*
X66785714Y-111561904D01*
X66738095Y-111657142D01*
X66690476Y-111704761D01*
X66595238Y-111752380D01*
X66357142Y-111752380D01*
X66261904Y-111704761D01*
X66214285Y-111657142D01*
%TO.C,D3*%
X90289523Y-89972380D02*
X89649523Y-89972380D01*
X89649523Y-89820000D01*
X89680000Y-89728571D01*
X89740952Y-89667619D01*
X89801904Y-89637142D01*
X89923809Y-89606666D01*
X90015238Y-89606666D01*
X90137142Y-89637142D01*
X90198095Y-89667619D01*
X90259047Y-89728571D01*
X90289523Y-89820000D01*
X90289523Y-89972380D01*
X89649523Y-89393333D02*
X89649523Y-88997142D01*
X89893333Y-89210476D01*
X89893333Y-89119047D01*
X89923809Y-89058095D01*
X89954285Y-89027619D01*
X90015238Y-88997142D01*
X90167619Y-88997142D01*
X90228571Y-89027619D01*
X90259047Y-89058095D01*
X90289523Y-89119047D01*
X90289523Y-89301904D01*
X90259047Y-89362857D01*
X90228571Y-89393333D01*
%TO.C,R2*%
X69333333Y-111952380D02*
X69000000Y-111476190D01*
X68761904Y-111952380D02*
X68761904Y-110952380D01*
X69142857Y-110952380D01*
X69238095Y-111000000D01*
X69285714Y-111047619D01*
X69333333Y-111142857D01*
X69333333Y-111285714D01*
X69285714Y-111380952D01*
X69238095Y-111428571D01*
X69142857Y-111476190D01*
X68761904Y-111476190D01*
X69714285Y-111047619D02*
X69761904Y-111000000D01*
X69857142Y-110952380D01*
X70095238Y-110952380D01*
X70190476Y-111000000D01*
X70238095Y-111047619D01*
X70285714Y-111142857D01*
X70285714Y-111238095D01*
X70238095Y-111380952D01*
X69666666Y-111952380D01*
X70285714Y-111952380D01*
%TO.C,R3*%
X88333333Y-111952380D02*
X88000000Y-111476190D01*
X87761904Y-111952380D02*
X87761904Y-110952380D01*
X88142857Y-110952380D01*
X88238095Y-111000000D01*
X88285714Y-111047619D01*
X88333333Y-111142857D01*
X88333333Y-111285714D01*
X88285714Y-111380952D01*
X88238095Y-111428571D01*
X88142857Y-111476190D01*
X87761904Y-111476190D01*
X88666666Y-110952380D02*
X89285714Y-110952380D01*
X88952380Y-111333333D01*
X89095238Y-111333333D01*
X89190476Y-111380952D01*
X89238095Y-111428571D01*
X89285714Y-111523809D01*
X89285714Y-111761904D01*
X89238095Y-111857142D01*
X89190476Y-111904761D01*
X89095238Y-111952380D01*
X88809523Y-111952380D01*
X88714285Y-111904761D01*
X88666666Y-111857142D01*
%TO.C,R5*%
X88333333Y-92952380D02*
X88000000Y-92476190D01*
X87761904Y-92952380D02*
X87761904Y-91952380D01*
X88142857Y-91952380D01*
X88238095Y-92000000D01*
X88285714Y-92047619D01*
X88333333Y-92142857D01*
X88333333Y-92285714D01*
X88285714Y-92380952D01*
X88238095Y-92428571D01*
X88142857Y-92476190D01*
X87761904Y-92476190D01*
X89238095Y-91952380D02*
X88761904Y-91952380D01*
X88714285Y-92428571D01*
X88761904Y-92380952D01*
X88857142Y-92333333D01*
X89095238Y-92333333D01*
X89190476Y-92380952D01*
X89238095Y-92428571D01*
X89285714Y-92523809D01*
X89285714Y-92761904D01*
X89238095Y-92857142D01*
X89190476Y-92904761D01*
X89095238Y-92952380D01*
X88857142Y-92952380D01*
X88761904Y-92904761D01*
X88714285Y-92857142D01*
%TO.C,Q3*%
X80350476Y-89560952D02*
X80320000Y-89621904D01*
X80259047Y-89682857D01*
X80167619Y-89774285D01*
X80137142Y-89835238D01*
X80137142Y-89896190D01*
X80289523Y-89865714D02*
X80259047Y-89926666D01*
X80198095Y-89987619D01*
X80076190Y-90018095D01*
X79862857Y-90018095D01*
X79740952Y-89987619D01*
X79680000Y-89926666D01*
X79649523Y-89865714D01*
X79649523Y-89743809D01*
X79680000Y-89682857D01*
X79740952Y-89621904D01*
X79862857Y-89591428D01*
X80076190Y-89591428D01*
X80198095Y-89621904D01*
X80259047Y-89682857D01*
X80289523Y-89743809D01*
X80289523Y-89865714D01*
X79649523Y-89378095D02*
X79649523Y-88981904D01*
X79893333Y-89195238D01*
X79893333Y-89103809D01*
X79923809Y-89042857D01*
X79954285Y-89012380D01*
X80015238Y-88981904D01*
X80167619Y-88981904D01*
X80228571Y-89012380D01*
X80259047Y-89042857D01*
X80289523Y-89103809D01*
X80289523Y-89286666D01*
X80259047Y-89347619D01*
X80228571Y-89378095D01*
%TO.C,C3*%
X81333333Y-92857142D02*
X81285714Y-92904761D01*
X81142857Y-92952380D01*
X81047619Y-92952380D01*
X80904761Y-92904761D01*
X80809523Y-92809523D01*
X80761904Y-92714285D01*
X80714285Y-92523809D01*
X80714285Y-92380952D01*
X80761904Y-92190476D01*
X80809523Y-92095238D01*
X80904761Y-92000000D01*
X81047619Y-91952380D01*
X81142857Y-91952380D01*
X81285714Y-92000000D01*
X81333333Y-92047619D01*
X81666666Y-91952380D02*
X82285714Y-91952380D01*
X81952380Y-92333333D01*
X82095238Y-92333333D01*
X82190476Y-92380952D01*
X82238095Y-92428571D01*
X82285714Y-92523809D01*
X82285714Y-92761904D01*
X82238095Y-92857142D01*
X82190476Y-92904761D01*
X82095238Y-92952380D01*
X81809523Y-92952380D01*
X81714285Y-92904761D01*
X81666666Y-92857142D01*
%TO.C,D2*%
X90289523Y-108972380D02*
X89649523Y-108972380D01*
X89649523Y-108820000D01*
X89680000Y-108728571D01*
X89740952Y-108667619D01*
X89801904Y-108637142D01*
X89923809Y-108606666D01*
X90015238Y-108606666D01*
X90137142Y-108637142D01*
X90198095Y-108667619D01*
X90259047Y-108728571D01*
X90289523Y-108820000D01*
X90289523Y-108972380D01*
X89710476Y-108362857D02*
X89680000Y-108332380D01*
X89649523Y-108271428D01*
X89649523Y-108119047D01*
X89680000Y-108058095D01*
X89710476Y-108027619D01*
X89771428Y-107997142D01*
X89832380Y-107997142D01*
X89923809Y-108027619D01*
X90289523Y-108393333D01*
X90289523Y-107997142D01*
%TO.C,C4*%
X100333333Y-111857142D02*
X100285714Y-111904761D01*
X100142857Y-111952380D01*
X100047619Y-111952380D01*
X99904761Y-111904761D01*
X99809523Y-111809523D01*
X99761904Y-111714285D01*
X99714285Y-111523809D01*
X99714285Y-111380952D01*
X99761904Y-111190476D01*
X99809523Y-111095238D01*
X99904761Y-111000000D01*
X100047619Y-110952380D01*
X100142857Y-110952380D01*
X100285714Y-111000000D01*
X100333333Y-111047619D01*
X101190476Y-111285714D02*
X101190476Y-111952380D01*
X100952380Y-110904761D02*
X100714285Y-111619047D01*
X101333333Y-111619047D01*
%TO.C,D7*%
X84261904Y-92752380D02*
X84261904Y-91752380D01*
X84500000Y-91752380D01*
X84642857Y-91800000D01*
X84738095Y-91895238D01*
X84785714Y-91990476D01*
X84833333Y-92180952D01*
X84833333Y-92323809D01*
X84785714Y-92514285D01*
X84738095Y-92609523D01*
X84642857Y-92704761D01*
X84500000Y-92752380D01*
X84261904Y-92752380D01*
X85166666Y-91752380D02*
X85833333Y-91752380D01*
X85404761Y-92752380D01*
%TO.C,Q4*%
X99350476Y-108560952D02*
X99320000Y-108621904D01*
X99259047Y-108682857D01*
X99167619Y-108774285D01*
X99137142Y-108835238D01*
X99137142Y-108896190D01*
X99289523Y-108865714D02*
X99259047Y-108926666D01*
X99198095Y-108987619D01*
X99076190Y-109018095D01*
X98862857Y-109018095D01*
X98740952Y-108987619D01*
X98680000Y-108926666D01*
X98649523Y-108865714D01*
X98649523Y-108743809D01*
X98680000Y-108682857D01*
X98740952Y-108621904D01*
X98862857Y-108591428D01*
X99076190Y-108591428D01*
X99198095Y-108621904D01*
X99259047Y-108682857D01*
X99289523Y-108743809D01*
X99289523Y-108865714D01*
X98862857Y-108042857D02*
X99289523Y-108042857D01*
X98619047Y-108195238D02*
X99076190Y-108347619D01*
X99076190Y-107951428D01*
%TO.C,R4*%
X67333333Y-82952380D02*
X67000000Y-82476190D01*
X66761904Y-82952380D02*
X66761904Y-81952380D01*
X67142857Y-81952380D01*
X67238095Y-82000000D01*
X67285714Y-82047619D01*
X67333333Y-82142857D01*
X67333333Y-82285714D01*
X67285714Y-82380952D01*
X67238095Y-82428571D01*
X67142857Y-82476190D01*
X66761904Y-82476190D01*
X68190476Y-82285714D02*
X68190476Y-82952380D01*
X67952380Y-81904761D02*
X67714285Y-82619047D01*
X68333333Y-82619047D01*
D11*
%TO.C,D4*%
X106800000Y-107720000D02*
X106800000Y-109280000D01*
X106470000Y-107555000D02*
G75*
G03*
X106470000Y-109445000I334642J-945000D01*
G01*
D12*
X107600000Y-105960000D02*
G75*
G03*
X107600000Y-105960000I-100000J0D01*
G01*
D11*
%TO.C,Q2*%
X82200000Y-109280000D02*
X82200000Y-107720000D01*
X82530000Y-109445000D02*
G75*
G03*
X82530000Y-107555000I-334642J945000D01*
G01*
D12*
X81600000Y-105960000D02*
G75*
G03*
X81600000Y-105960000I-100000J0D01*
G01*
D13*
%TO.C,R7*%
X63022500Y-80237258D02*
X63022500Y-79762742D01*
X61977500Y-80237258D02*
X61977500Y-79762742D01*
%TO.C,R6*%
X108022500Y-113737258D02*
X108022500Y-113262742D01*
X106977500Y-113737258D02*
X106977500Y-113262742D01*
D11*
%TO.C,D1*%
X68800000Y-107720000D02*
X68800000Y-109280000D01*
X68470000Y-107555000D02*
G75*
G03*
X68470000Y-109445000I334642J-945000D01*
G01*
D12*
X69600000Y-105960000D02*
G75*
G03*
X69600000Y-105960000I-100000J0D01*
G01*
D11*
%TO.C,Q1*%
X63200000Y-109280000D02*
X63200000Y-107720000D01*
X63530000Y-109445000D02*
G75*
G03*
X63530000Y-107555000I-334642J945000D01*
G01*
D12*
X62600000Y-105960000D02*
G75*
G03*
X62600000Y-105960000I-100000J0D01*
G01*
D13*
%TO.C,R1*%
X65522500Y-79762742D02*
X65522500Y-80237258D01*
X64477500Y-79762742D02*
X64477500Y-80237258D01*
%TO.C,D6*%
X83100000Y-112100000D02*
X86900000Y-112100000D01*
X83100000Y-114900000D02*
X83100000Y-114150000D01*
X83100000Y-114900000D02*
X86900000Y-114900000D01*
%TO.C,C1*%
X61990000Y-113359420D02*
X61990000Y-113640580D01*
X63010000Y-113359420D02*
X63010000Y-113640580D01*
%TO.C,D8*%
X102100000Y-112100000D02*
X105900000Y-112100000D01*
X102100000Y-114900000D02*
X105900000Y-114900000D01*
X102100000Y-114900000D02*
X102100000Y-114150000D01*
%TO.C,C2*%
X80990000Y-113359420D02*
X80990000Y-113640580D01*
X82010000Y-113359420D02*
X82010000Y-113640580D01*
D11*
%TO.C,U1*%
X53630000Y-77200000D02*
X53630000Y-51800000D01*
X116370000Y-77200000D02*
X53630000Y-77200000D01*
X53630000Y-51800000D02*
X116370000Y-51800000D01*
X116370000Y-51800000D02*
X116370000Y-77200000D01*
D12*
X55128000Y-78216000D02*
G75*
G03*
X55128000Y-78216000I-100000J0D01*
G01*
D13*
%TO.C,D5*%
X64100000Y-112100000D02*
X67900000Y-112100000D01*
X64100000Y-114900000D02*
X64100000Y-114150000D01*
X64100000Y-114900000D02*
X67900000Y-114900000D01*
D11*
%TO.C,D3*%
X87800000Y-88720000D02*
X87800000Y-90280000D01*
X87470000Y-88555000D02*
G75*
G03*
X87470000Y-90445000I334642J-945000D01*
G01*
D12*
X88600000Y-86960000D02*
G75*
G03*
X88600000Y-86960000I-100000J0D01*
G01*
D13*
%TO.C,R2*%
X70022500Y-113737258D02*
X70022500Y-113262742D01*
X68977500Y-113737258D02*
X68977500Y-113262742D01*
%TO.C,R3*%
X87977500Y-113737258D02*
X87977500Y-113262742D01*
X89022500Y-113737258D02*
X89022500Y-113262742D01*
%TO.C,R5*%
X89022500Y-94737258D02*
X89022500Y-94262742D01*
X87977500Y-94737258D02*
X87977500Y-94262742D01*
D11*
%TO.C,Q3*%
X82200000Y-90280000D02*
X82200000Y-88720000D01*
X82530000Y-90445000D02*
G75*
G03*
X82530000Y-88555000I-334642J945000D01*
G01*
D12*
X81600000Y-86960000D02*
G75*
G03*
X81600000Y-86960000I-100000J0D01*
G01*
D13*
%TO.C,C3*%
X80990000Y-94359420D02*
X80990000Y-94640580D01*
X82010000Y-94359420D02*
X82010000Y-94640580D01*
D11*
%TO.C,D2*%
X87800000Y-107720000D02*
X87800000Y-109280000D01*
X87470000Y-107555000D02*
G75*
G03*
X87470000Y-109445000I334642J-945000D01*
G01*
D12*
X88600000Y-105960000D02*
G75*
G03*
X88600000Y-105960000I-100000J0D01*
G01*
D13*
%TO.C,C4*%
X99990000Y-113359420D02*
X99990000Y-113640580D01*
X101010000Y-113359420D02*
X101010000Y-113640580D01*
%TO.C,D7*%
X83100000Y-95900000D02*
X83100000Y-95150000D01*
X83100000Y-95900000D02*
X86900000Y-95900000D01*
X83100000Y-93100000D02*
X86900000Y-93100000D01*
D11*
%TO.C,Q4*%
X101200000Y-109280000D02*
X101200000Y-107720000D01*
X101530000Y-109445000D02*
G75*
G03*
X101530000Y-107555000I-334642J945000D01*
G01*
D12*
X100600000Y-105960000D02*
G75*
G03*
X100600000Y-105960000I-100000J0D01*
G01*
D13*
%TO.C,R4*%
X68022500Y-79762742D02*
X68022500Y-80237258D01*
X66977500Y-79762742D02*
X66977500Y-80237258D01*
%TD*%
M02*
