%TF.GenerationSoftware,KiCad,Pcbnew,(6.0.7)*%
%TF.CreationDate,2022-08-25T16:09:55+02:00*%
%TF.ProjectId,esp32-minikeyboard-pcb,65737033-322d-46d6-996e-696b6579626f,rev?*%
%TF.SameCoordinates,Original*%
%TF.FileFunction,Soldermask,Bot*%
%TF.FilePolarity,Negative*%
%FSLAX46Y46*%
G04 Gerber Fmt 4.6, Leading zero omitted, Abs format (unit mm)*
G04 Created by KiCad (PCBNEW (6.0.7)) date 2022-08-25 16:09:55*
%MOMM*%
%LPD*%
G01*
G04 APERTURE LIST*
%ADD10R,1.530000X1.530000*%
%ADD11C,1.530000*%
G04 APERTURE END LIST*
D10*
%TO.C,U1*%
X55030000Y-75930000D03*
D11*
X57570000Y-75930000D03*
X60110000Y-75930000D03*
X62650000Y-75930000D03*
X65190000Y-75930000D03*
X67730000Y-75930000D03*
X70270000Y-75930000D03*
X72810000Y-75930000D03*
X75350000Y-75930000D03*
X77890000Y-75930000D03*
X80430000Y-75930000D03*
X82970000Y-75930000D03*
X85510000Y-75930000D03*
X88050000Y-75930000D03*
X90590000Y-75930000D03*
X93130000Y-75930000D03*
X95670000Y-75930000D03*
X98210000Y-75930000D03*
X100750000Y-75930000D03*
X103290000Y-75930000D03*
X105830000Y-75930000D03*
X108370000Y-75930000D03*
X55030000Y-53070000D03*
X57570000Y-53070000D03*
X60110000Y-53070000D03*
X62650000Y-53070000D03*
X65190000Y-53070000D03*
X67730000Y-53070000D03*
X70270000Y-53070000D03*
X72810000Y-53070000D03*
X75350000Y-53070000D03*
X77890000Y-53070000D03*
X80430000Y-53070000D03*
X82970000Y-53070000D03*
X85510000Y-53070000D03*
X88050000Y-53070000D03*
X90590000Y-53070000D03*
X93130000Y-53070000D03*
X95670000Y-53070000D03*
X98210000Y-53070000D03*
X100750000Y-53070000D03*
X103290000Y-53070000D03*
X105830000Y-53070000D03*
X108370000Y-53070000D03*
%TD*%
M02*
