%TF.GenerationSoftware,KiCad,Pcbnew,(6.0.7)*%
%TF.CreationDate,2022-08-25T16:09:55+02:00*%
%TF.ProjectId,esp32-minikeyboard-pcb,65737033-322d-46d6-996e-696b6579626f,rev?*%
%TF.SameCoordinates,Original*%
%TF.FileFunction,Copper,L2,Bot*%
%TF.FilePolarity,Positive*%
%FSLAX46Y46*%
G04 Gerber Fmt 4.6, Leading zero omitted, Abs format (unit mm)*
G04 Created by KiCad (PCBNEW (6.0.7)) date 2022-08-25 16:09:55*
%MOMM*%
%LPD*%
G01*
G04 APERTURE LIST*
%TA.AperFunction,ComponentPad*%
%ADD10R,1.530000X1.530000*%
%TD*%
%TA.AperFunction,ComponentPad*%
%ADD11C,1.530000*%
%TD*%
%TA.AperFunction,ViaPad*%
%ADD12C,0.800000*%
%TD*%
%TA.AperFunction,Conductor*%
%ADD13C,0.250000*%
%TD*%
G04 APERTURE END LIST*
D10*
%TO.P,U1,J1_1,3V3*%
%TO.N,3V3*%
X55030000Y-75930000D03*
D11*
%TO.P,U1,J1_2,3V3*%
X57570000Y-75930000D03*
%TO.P,U1,J1_3,RST*%
%TO.N,unconnected-(U1-PadJ1_3)*%
X60110000Y-75930000D03*
%TO.P,U1,J1_4,GPIO4*%
%TO.N,LED_PIN*%
X62650000Y-75930000D03*
%TO.P,U1,J1_5,GPIO5*%
%TO.N,col1*%
X65190000Y-75930000D03*
%TO.P,U1,J1_6,GPIO6*%
%TO.N,col2*%
X67730000Y-75930000D03*
%TO.P,U1,J1_7,GPIO7*%
%TO.N,row1*%
X70270000Y-75930000D03*
%TO.P,U1,J1_8,GPIO15*%
%TO.N,row2*%
X72810000Y-75930000D03*
%TO.P,U1,J1_9,GPIO16*%
%TO.N,unconnected-(U1-PadJ1_9)*%
X75350000Y-75930000D03*
%TO.P,U1,J1_10,GPIO17*%
%TO.N,unconnected-(U1-PadJ1_10)*%
X77890000Y-75930000D03*
%TO.P,U1,J1_11,GPIO18*%
%TO.N,unconnected-(U1-PadJ1_11)*%
X80430000Y-75930000D03*
%TO.P,U1,J1_12,GPIO8*%
%TO.N,unconnected-(U1-PadJ1_12)*%
X82970000Y-75930000D03*
%TO.P,U1,J1_13,GPIO3*%
%TO.N,unconnected-(U1-PadJ1_13)*%
X85510000Y-75930000D03*
%TO.P,U1,J1_14,GPIO46*%
%TO.N,unconnected-(U1-PadJ1_14)*%
X88050000Y-75930000D03*
%TO.P,U1,J1_15,GPIO9*%
%TO.N,unconnected-(U1-PadJ1_15)*%
X90590000Y-75930000D03*
%TO.P,U1,J1_16,GPIO10*%
%TO.N,unconnected-(U1-PadJ1_16)*%
X93130000Y-75930000D03*
%TO.P,U1,J1_17,GPIO11*%
%TO.N,unconnected-(U1-PadJ1_17)*%
X95670000Y-75930000D03*
%TO.P,U1,J1_18,GPIO12*%
%TO.N,unconnected-(U1-PadJ1_18)*%
X98210000Y-75930000D03*
%TO.P,U1,J1_19,GPIO13*%
%TO.N,unconnected-(U1-PadJ1_19)*%
X100750000Y-75930000D03*
%TO.P,U1,J1_20,GPIO14*%
%TO.N,unconnected-(U1-PadJ1_20)*%
X103290000Y-75930000D03*
%TO.P,U1,J1_21,5V0*%
%TO.N,5V*%
X105830000Y-75930000D03*
%TO.P,U1,J1_22,GND*%
%TO.N,GND*%
X108370000Y-75930000D03*
%TO.P,U1,J3_1,GND*%
X55030000Y-53070000D03*
%TO.P,U1,J3_2,U0TXD/GPIO43*%
%TO.N,unconnected-(U1-PadJ3_2)*%
X57570000Y-53070000D03*
%TO.P,U1,J3_3,U0RXD/GPIO44*%
%TO.N,unconnected-(U1-PadJ3_3)*%
X60110000Y-53070000D03*
%TO.P,U1,J3_4,GPIO1*%
%TO.N,unconnected-(U1-PadJ3_4)*%
X62650000Y-53070000D03*
%TO.P,U1,J3_5,GPIO2*%
%TO.N,unconnected-(U1-PadJ3_5)*%
X65190000Y-53070000D03*
%TO.P,U1,J3_6,MTMS/GPIO42*%
%TO.N,unconnected-(U1-PadJ3_6)*%
X67730000Y-53070000D03*
%TO.P,U1,J3_7,MTDI/GPIO41*%
%TO.N,unconnected-(U1-PadJ3_7)*%
X70270000Y-53070000D03*
%TO.P,U1,J3_8,MTDO/GPIO40*%
%TO.N,unconnected-(U1-PadJ3_8)*%
X72810000Y-53070000D03*
%TO.P,U1,J3_9,MTCK/GPIO39*%
%TO.N,unconnected-(U1-PadJ3_9)*%
X75350000Y-53070000D03*
%TO.P,U1,J3_10,GPIO38*%
%TO.N,unconnected-(U1-PadJ3_10)*%
X77890000Y-53070000D03*
%TO.P,U1,J3_11,GPIO37*%
%TO.N,unconnected-(U1-PadJ3_11)*%
X80430000Y-53070000D03*
%TO.P,U1,J3_12,GPIO36*%
%TO.N,unconnected-(U1-PadJ3_12)*%
X82970000Y-53070000D03*
%TO.P,U1,J3_13,GPIO35*%
%TO.N,unconnected-(U1-PadJ3_13)*%
X85510000Y-53070000D03*
%TO.P,U1,J3_14,GPIO0*%
%TO.N,unconnected-(U1-PadJ3_14)*%
X88050000Y-53070000D03*
%TO.P,U1,J3_15,GPIO45*%
%TO.N,unconnected-(U1-PadJ3_15)*%
X90590000Y-53070000D03*
%TO.P,U1,J3_16,GPIO48*%
%TO.N,unconnected-(U1-PadJ3_16)*%
X93130000Y-53070000D03*
%TO.P,U1,J3_17,GPIO47*%
%TO.N,unconnected-(U1-PadJ3_17)*%
X95670000Y-53070000D03*
%TO.P,U1,J3_18,GPIO21*%
%TO.N,unconnected-(U1-PadJ3_18)*%
X98210000Y-53070000D03*
%TO.P,U1,J3_19,USB_D+/GPIO20*%
%TO.N,unconnected-(U1-PadJ3_19)*%
X100750000Y-53070000D03*
%TO.P,U1,J3_20,USB_D-/GPIO19*%
%TO.N,unconnected-(U1-PadJ3_20)*%
X103290000Y-53070000D03*
%TO.P,U1,J3_21,GND*%
%TO.N,GND*%
X105830000Y-53070000D03*
%TO.P,U1,J3_22,GND*%
X108370000Y-53070000D03*
%TD*%
D12*
%TO.N,row1*%
X87571800Y-96214500D03*
X71000000Y-114171900D03*
%TO.N,GND*%
X102478301Y-114813200D03*
X82850000Y-95150000D03*
X107000000Y-108500000D03*
X90500000Y-90000000D03*
X71500000Y-108500000D03*
X91500000Y-107000000D03*
X99000000Y-114344800D03*
X80000000Y-110000000D03*
X61000000Y-110000000D03*
X84580497Y-115275500D03*
X64000000Y-115000000D03*
%TD*%
D13*
%TO.N,row1*%
X70270000Y-96214500D02*
X70270000Y-113500000D01*
X70270000Y-113500000D02*
X70328100Y-113500000D01*
X70270000Y-96214500D02*
X87571800Y-96214500D01*
X70270000Y-75930000D02*
X70270000Y-96214500D01*
X70328100Y-113500000D02*
X71000000Y-114171900D01*
%TD*%
%TA.AperFunction,Conductor*%
%TO.N,GND*%
G36*
X118970018Y-50510000D02*
G01*
X118984852Y-50512310D01*
X118984855Y-50512310D01*
X118993724Y-50513691D01*
X119002626Y-50512527D01*
X119002750Y-50512511D01*
X119033192Y-50512240D01*
X119040621Y-50513077D01*
X119095264Y-50519234D01*
X119122771Y-50525513D01*
X119199853Y-50552485D01*
X119225274Y-50564727D01*
X119294426Y-50608178D01*
X119316485Y-50625770D01*
X119374230Y-50683515D01*
X119391822Y-50705574D01*
X119435273Y-50774726D01*
X119447515Y-50800147D01*
X119474487Y-50877228D01*
X119480766Y-50904736D01*
X119487018Y-50960226D01*
X119486923Y-50975868D01*
X119487800Y-50975879D01*
X119487690Y-50984851D01*
X119486309Y-50993724D01*
X119487473Y-51002626D01*
X119487473Y-51002628D01*
X119490436Y-51025283D01*
X119491500Y-51041621D01*
X119491500Y-118950633D01*
X119490000Y-118970018D01*
X119486309Y-118993724D01*
X119487473Y-119002626D01*
X119487489Y-119002750D01*
X119487760Y-119033192D01*
X119485430Y-119053870D01*
X119480766Y-119095264D01*
X119474487Y-119122771D01*
X119447515Y-119199853D01*
X119435273Y-119225274D01*
X119391822Y-119294426D01*
X119374230Y-119316485D01*
X119316485Y-119374230D01*
X119294426Y-119391822D01*
X119225274Y-119435273D01*
X119199853Y-119447515D01*
X119122772Y-119474487D01*
X119095264Y-119480766D01*
X119039774Y-119487018D01*
X119024132Y-119486923D01*
X119024121Y-119487800D01*
X119015149Y-119487690D01*
X119006276Y-119486309D01*
X118997374Y-119487473D01*
X118997372Y-119487473D01*
X118986385Y-119488910D01*
X118974714Y-119490436D01*
X118958379Y-119491500D01*
X51049367Y-119491500D01*
X51029982Y-119490000D01*
X51015148Y-119487690D01*
X51015145Y-119487690D01*
X51006276Y-119486309D01*
X50997374Y-119487473D01*
X50997250Y-119487489D01*
X50966808Y-119487760D01*
X50946130Y-119485430D01*
X50904736Y-119480766D01*
X50877229Y-119474487D01*
X50800147Y-119447515D01*
X50774726Y-119435273D01*
X50705574Y-119391822D01*
X50683515Y-119374230D01*
X50625770Y-119316485D01*
X50608178Y-119294426D01*
X50564727Y-119225274D01*
X50552485Y-119199853D01*
X50525513Y-119122772D01*
X50519234Y-119095266D01*
X50513170Y-119041451D01*
X50512888Y-119016640D01*
X50513576Y-119012552D01*
X50513729Y-119000000D01*
X50509773Y-118972376D01*
X50508500Y-118954514D01*
X50508500Y-107204941D01*
X64157461Y-107204941D01*
X64159335Y-107213720D01*
X64159898Y-107221978D01*
X64161500Y-107237161D01*
X64161500Y-109757800D01*
X64160961Y-109769439D01*
X64160555Y-109773817D01*
X64158467Y-109782547D01*
X64158913Y-109791510D01*
X64158913Y-109791512D01*
X64161344Y-109840340D01*
X64161500Y-109846605D01*
X64161500Y-109866513D01*
X64162135Y-109870947D01*
X64162136Y-109870961D01*
X64162432Y-109873028D01*
X64163548Y-109884619D01*
X64165709Y-109928024D01*
X64168653Y-109936501D01*
X64169559Y-109939111D01*
X64175257Y-109962574D01*
X64176920Y-109974187D01*
X64180636Y-109982359D01*
X64194907Y-110013748D01*
X64199233Y-110024564D01*
X64213491Y-110065621D01*
X64218696Y-110072932D01*
X64218697Y-110072934D01*
X64220298Y-110075183D01*
X64232352Y-110096103D01*
X64237208Y-110106782D01*
X64243063Y-110113577D01*
X64243065Y-110113580D01*
X64265574Y-110139702D01*
X64272764Y-110148872D01*
X64295144Y-110180307D01*
X64295147Y-110180311D01*
X64297971Y-110184277D01*
X64306739Y-110193261D01*
X64310634Y-110196180D01*
X64314290Y-110199389D01*
X64314122Y-110199581D01*
X64319505Y-110204610D01*
X64319665Y-110204427D01*
X64326426Y-110210325D01*
X64332287Y-110217127D01*
X64339821Y-110222010D01*
X64345275Y-110226768D01*
X64349380Y-110229888D01*
X64523716Y-110384337D01*
X64526855Y-110386504D01*
X64526858Y-110386506D01*
X64758476Y-110546380D01*
X64758483Y-110546384D01*
X64761612Y-110548544D01*
X65017566Y-110682879D01*
X65287846Y-110785383D01*
X65568511Y-110854561D01*
X65572291Y-110855020D01*
X65851685Y-110888945D01*
X65851691Y-110888945D01*
X65855468Y-110889404D01*
X66144532Y-110889404D01*
X66148309Y-110888945D01*
X66148315Y-110888945D01*
X66427709Y-110855020D01*
X66431489Y-110854561D01*
X66712154Y-110785383D01*
X66982434Y-110682879D01*
X67238388Y-110548544D01*
X67241517Y-110546384D01*
X67241524Y-110546380D01*
X67473142Y-110386506D01*
X67473145Y-110386504D01*
X67476284Y-110384337D01*
X67646414Y-110233615D01*
X67648632Y-110231949D01*
X67648531Y-110231831D01*
X67655366Y-110226014D01*
X67662958Y-110221224D01*
X67668900Y-110214496D01*
X67675673Y-110208732D01*
X67676597Y-110208005D01*
X67676573Y-110207976D01*
X67680315Y-110204850D01*
X67684277Y-110202029D01*
X67693261Y-110193261D01*
X67721669Y-110155357D01*
X67728037Y-110147536D01*
X67753435Y-110118778D01*
X67759378Y-110112049D01*
X67763192Y-110103925D01*
X67764820Y-110101447D01*
X67773810Y-110086485D01*
X67775230Y-110083892D01*
X67780616Y-110076705D01*
X67797241Y-110032357D01*
X67801168Y-110023040D01*
X67817466Y-109988326D01*
X67821281Y-109980200D01*
X67822662Y-109971331D01*
X67823528Y-109968498D01*
X67827958Y-109951611D01*
X67828592Y-109948726D01*
X67831745Y-109940316D01*
X67835254Y-109893094D01*
X67836408Y-109883048D01*
X67837751Y-109874425D01*
X67837751Y-109874422D01*
X67838500Y-109869614D01*
X67838500Y-109854094D01*
X67838846Y-109844757D01*
X67841874Y-109804007D01*
X67842539Y-109795059D01*
X67840665Y-109786280D01*
X67840102Y-109778022D01*
X67838500Y-109762839D01*
X67838500Y-107242200D01*
X67839039Y-107230561D01*
X67839445Y-107226183D01*
X67841533Y-107217453D01*
X67838656Y-107159659D01*
X67838500Y-107153395D01*
X67838500Y-107133487D01*
X67837865Y-107129053D01*
X67837864Y-107129039D01*
X67837568Y-107126972D01*
X67836452Y-107115381D01*
X67834737Y-107080940D01*
X67834291Y-107071976D01*
X67830441Y-107060888D01*
X67824743Y-107037425D01*
X67824353Y-107034700D01*
X67824353Y-107034699D01*
X67823080Y-107025813D01*
X67805093Y-106986252D01*
X67800767Y-106975436D01*
X67789453Y-106942856D01*
X67789452Y-106942855D01*
X67786509Y-106934379D01*
X67781303Y-106927066D01*
X67779702Y-106924817D01*
X67767648Y-106903897D01*
X67766507Y-106901388D01*
X67766507Y-106901387D01*
X67762792Y-106893218D01*
X67756937Y-106886423D01*
X67756935Y-106886420D01*
X67734426Y-106860298D01*
X67727236Y-106851128D01*
X67704856Y-106819693D01*
X67704853Y-106819689D01*
X67702029Y-106815723D01*
X67693261Y-106806739D01*
X67689366Y-106803820D01*
X67685710Y-106800611D01*
X67685878Y-106800419D01*
X67680495Y-106795390D01*
X67680335Y-106795573D01*
X67673574Y-106789675D01*
X67667713Y-106782873D01*
X67660179Y-106777990D01*
X67654725Y-106773232D01*
X67650620Y-106770112D01*
X67476284Y-106615663D01*
X67473142Y-106613494D01*
X67241524Y-106453620D01*
X67241517Y-106453616D01*
X67238388Y-106451456D01*
X66982434Y-106317121D01*
X66712154Y-106214617D01*
X66431489Y-106145439D01*
X66427709Y-106144980D01*
X66148315Y-106111055D01*
X66148309Y-106111055D01*
X66144532Y-106110596D01*
X65855468Y-106110596D01*
X65851691Y-106111055D01*
X65851685Y-106111055D01*
X65572291Y-106144980D01*
X65568511Y-106145439D01*
X65287846Y-106214617D01*
X65017566Y-106317121D01*
X64761612Y-106451456D01*
X64758483Y-106453616D01*
X64758476Y-106453620D01*
X64526858Y-106613494D01*
X64523716Y-106615663D01*
X64353586Y-106766385D01*
X64351368Y-106768051D01*
X64351469Y-106768169D01*
X64344634Y-106773986D01*
X64337042Y-106778776D01*
X64331100Y-106785504D01*
X64324327Y-106791268D01*
X64323403Y-106791995D01*
X64323427Y-106792024D01*
X64319685Y-106795150D01*
X64315723Y-106797971D01*
X64306739Y-106806739D01*
X64278331Y-106844643D01*
X64271966Y-106852460D01*
X64240622Y-106887951D01*
X64236808Y-106896075D01*
X64235180Y-106898553D01*
X64226190Y-106913515D01*
X64224770Y-106916108D01*
X64219384Y-106923295D01*
X64216232Y-106931703D01*
X64202759Y-106967642D01*
X64198833Y-106976958D01*
X64178719Y-107019800D01*
X64177338Y-107028669D01*
X64176472Y-107031502D01*
X64172042Y-107048389D01*
X64171408Y-107051274D01*
X64168255Y-107059684D01*
X64167590Y-107068639D01*
X64164746Y-107106906D01*
X64163592Y-107116952D01*
X64161500Y-107130386D01*
X64161500Y-107145906D01*
X64161154Y-107155243D01*
X64157461Y-107204941D01*
X50508500Y-107204941D01*
X50508500Y-76743134D01*
X53756500Y-76743134D01*
X53763255Y-76805316D01*
X53814385Y-76941705D01*
X53901739Y-77058261D01*
X54018295Y-77145615D01*
X54154684Y-77196745D01*
X54216866Y-77203500D01*
X55843134Y-77203500D01*
X55905316Y-77196745D01*
X56041705Y-77145615D01*
X56158261Y-77058261D01*
X56245615Y-76941705D01*
X56296745Y-76805316D01*
X56303500Y-76743134D01*
X56303500Y-76739717D01*
X56303684Y-76736320D01*
X56304899Y-76736386D01*
X56323502Y-76673031D01*
X56377158Y-76626538D01*
X56447432Y-76616434D01*
X56512012Y-76645928D01*
X56532713Y-76668881D01*
X56587085Y-76746531D01*
X56590716Y-76751717D01*
X56748283Y-76909284D01*
X56752792Y-76912441D01*
X56752794Y-76912443D01*
X56804847Y-76948891D01*
X56930817Y-77037097D01*
X56935799Y-77039420D01*
X56935804Y-77039423D01*
X57080011Y-77106667D01*
X57132773Y-77131270D01*
X57138081Y-77132692D01*
X57138083Y-77132693D01*
X57166208Y-77140229D01*
X57348014Y-77188944D01*
X57570000Y-77208365D01*
X57791986Y-77188944D01*
X57973792Y-77140229D01*
X58001917Y-77132693D01*
X58001919Y-77132692D01*
X58007227Y-77131270D01*
X58059989Y-77106667D01*
X58204196Y-77039423D01*
X58204201Y-77039420D01*
X58209183Y-77037097D01*
X58335153Y-76948891D01*
X58387206Y-76912443D01*
X58387208Y-76912441D01*
X58391717Y-76909284D01*
X58549284Y-76751717D01*
X58552916Y-76746531D01*
X58607287Y-76668881D01*
X58677097Y-76569182D01*
X58679420Y-76564200D01*
X58679423Y-76564195D01*
X58725805Y-76464727D01*
X58772722Y-76411442D01*
X58840999Y-76391981D01*
X58908959Y-76412523D01*
X58954195Y-76464727D01*
X59000577Y-76564195D01*
X59000580Y-76564200D01*
X59002903Y-76569182D01*
X59072713Y-76668881D01*
X59127085Y-76746531D01*
X59130716Y-76751717D01*
X59288283Y-76909284D01*
X59292792Y-76912441D01*
X59292794Y-76912443D01*
X59344847Y-76948891D01*
X59470817Y-77037097D01*
X59475799Y-77039420D01*
X59475804Y-77039423D01*
X59620011Y-77106667D01*
X59672773Y-77131270D01*
X59678081Y-77132692D01*
X59678083Y-77132693D01*
X59706208Y-77140229D01*
X59888014Y-77188944D01*
X60110000Y-77208365D01*
X60331986Y-77188944D01*
X60513792Y-77140229D01*
X60541917Y-77132693D01*
X60541919Y-77132692D01*
X60547227Y-77131270D01*
X60599989Y-77106667D01*
X60744196Y-77039423D01*
X60744201Y-77039420D01*
X60749183Y-77037097D01*
X60875153Y-76948891D01*
X60927206Y-76912443D01*
X60927208Y-76912441D01*
X60931717Y-76909284D01*
X61089284Y-76751717D01*
X61092916Y-76746531D01*
X61147287Y-76668881D01*
X61217097Y-76569182D01*
X61219420Y-76564200D01*
X61219423Y-76564195D01*
X61265805Y-76464727D01*
X61312722Y-76411442D01*
X61380999Y-76391981D01*
X61448959Y-76412523D01*
X61494195Y-76464727D01*
X61540577Y-76564195D01*
X61540580Y-76564200D01*
X61542903Y-76569182D01*
X61612713Y-76668881D01*
X61667085Y-76746531D01*
X61670716Y-76751717D01*
X61828283Y-76909284D01*
X61832792Y-76912441D01*
X61832794Y-76912443D01*
X61884847Y-76948891D01*
X62010817Y-77037097D01*
X62015799Y-77039420D01*
X62015804Y-77039423D01*
X62160011Y-77106667D01*
X62212773Y-77131270D01*
X62218081Y-77132692D01*
X62218083Y-77132693D01*
X62246208Y-77140229D01*
X62428014Y-77188944D01*
X62650000Y-77208365D01*
X62871986Y-77188944D01*
X63053792Y-77140229D01*
X63081917Y-77132693D01*
X63081919Y-77132692D01*
X63087227Y-77131270D01*
X63139989Y-77106667D01*
X63284196Y-77039423D01*
X63284201Y-77039420D01*
X63289183Y-77037097D01*
X63415153Y-76948891D01*
X63467206Y-76912443D01*
X63467208Y-76912441D01*
X63471717Y-76909284D01*
X63629284Y-76751717D01*
X63632916Y-76746531D01*
X63687287Y-76668881D01*
X63757097Y-76569182D01*
X63759420Y-76564200D01*
X63759423Y-76564195D01*
X63805805Y-76464727D01*
X63852722Y-76411442D01*
X63920999Y-76391981D01*
X63988959Y-76412523D01*
X64034195Y-76464727D01*
X64080577Y-76564195D01*
X64080580Y-76564200D01*
X64082903Y-76569182D01*
X64152713Y-76668881D01*
X64207085Y-76746531D01*
X64210716Y-76751717D01*
X64368283Y-76909284D01*
X64372792Y-76912441D01*
X64372794Y-76912443D01*
X64424847Y-76948891D01*
X64550817Y-77037097D01*
X64555799Y-77039420D01*
X64555804Y-77039423D01*
X64700011Y-77106667D01*
X64752773Y-77131270D01*
X64758081Y-77132692D01*
X64758083Y-77132693D01*
X64786208Y-77140229D01*
X64968014Y-77188944D01*
X65190000Y-77208365D01*
X65411986Y-77188944D01*
X65593792Y-77140229D01*
X65621917Y-77132693D01*
X65621919Y-77132692D01*
X65627227Y-77131270D01*
X65679989Y-77106667D01*
X65824196Y-77039423D01*
X65824201Y-77039420D01*
X65829183Y-77037097D01*
X65955153Y-76948891D01*
X66007206Y-76912443D01*
X66007208Y-76912441D01*
X66011717Y-76909284D01*
X66169284Y-76751717D01*
X66172916Y-76746531D01*
X66227287Y-76668881D01*
X66297097Y-76569182D01*
X66299420Y-76564200D01*
X66299423Y-76564195D01*
X66345805Y-76464727D01*
X66392722Y-76411442D01*
X66460999Y-76391981D01*
X66528959Y-76412523D01*
X66574195Y-76464727D01*
X66620577Y-76564195D01*
X66620580Y-76564200D01*
X66622903Y-76569182D01*
X66692713Y-76668881D01*
X66747085Y-76746531D01*
X66750716Y-76751717D01*
X66908283Y-76909284D01*
X66912792Y-76912441D01*
X66912794Y-76912443D01*
X66964847Y-76948891D01*
X67090817Y-77037097D01*
X67095799Y-77039420D01*
X67095804Y-77039423D01*
X67240011Y-77106667D01*
X67292773Y-77131270D01*
X67298081Y-77132692D01*
X67298083Y-77132693D01*
X67326208Y-77140229D01*
X67508014Y-77188944D01*
X67730000Y-77208365D01*
X67951986Y-77188944D01*
X68133792Y-77140229D01*
X68161917Y-77132693D01*
X68161919Y-77132692D01*
X68167227Y-77131270D01*
X68219989Y-77106667D01*
X68364196Y-77039423D01*
X68364201Y-77039420D01*
X68369183Y-77037097D01*
X68495153Y-76948891D01*
X68547206Y-76912443D01*
X68547208Y-76912441D01*
X68551717Y-76909284D01*
X68709284Y-76751717D01*
X68712916Y-76746531D01*
X68767287Y-76668881D01*
X68837097Y-76569182D01*
X68839420Y-76564200D01*
X68839423Y-76564195D01*
X68885805Y-76464727D01*
X68932722Y-76411442D01*
X69000999Y-76391981D01*
X69068959Y-76412523D01*
X69114195Y-76464727D01*
X69160577Y-76564195D01*
X69160580Y-76564200D01*
X69162903Y-76569182D01*
X69232713Y-76668881D01*
X69287085Y-76746531D01*
X69290716Y-76751717D01*
X69448283Y-76909284D01*
X69452792Y-76912441D01*
X69452794Y-76912443D01*
X69504847Y-76948891D01*
X69582772Y-77003455D01*
X69627099Y-77058911D01*
X69636500Y-77106667D01*
X69636500Y-96142707D01*
X69634268Y-96166316D01*
X69632725Y-96174406D01*
X69636251Y-96230451D01*
X69636500Y-96238362D01*
X69636500Y-113428207D01*
X69634268Y-113451816D01*
X69632725Y-113459906D01*
X69633223Y-113467817D01*
X69636251Y-113515951D01*
X69636500Y-113523862D01*
X69636500Y-113539856D01*
X69638506Y-113555730D01*
X69639248Y-113563590D01*
X69642775Y-113619650D01*
X69645225Y-113627191D01*
X69645321Y-113627487D01*
X69650494Y-113650631D01*
X69650532Y-113650935D01*
X69650533Y-113650940D01*
X69651526Y-113658797D01*
X69654442Y-113666162D01*
X69654443Y-113666166D01*
X69672199Y-113711011D01*
X69674871Y-113718430D01*
X69692236Y-113771875D01*
X69696486Y-113778571D01*
X69696486Y-113778572D01*
X69696650Y-113778831D01*
X69707415Y-113799958D01*
X69707529Y-113800246D01*
X69707532Y-113800251D01*
X69710448Y-113807617D01*
X69715104Y-113814025D01*
X69715107Y-113814031D01*
X69743458Y-113853052D01*
X69747901Y-113859589D01*
X69778000Y-113907018D01*
X69783778Y-113912444D01*
X69783779Y-113912445D01*
X69784007Y-113912659D01*
X69799688Y-113930446D01*
X69804528Y-113937107D01*
X69810637Y-113942161D01*
X69810638Y-113942162D01*
X69847796Y-113972903D01*
X69853730Y-113978134D01*
X69888898Y-114011158D01*
X69888901Y-114011160D01*
X69894679Y-114016586D01*
X69901903Y-114020558D01*
X69921506Y-114033881D01*
X69921746Y-114034080D01*
X69921753Y-114034084D01*
X69927856Y-114039133D01*
X69967400Y-114057741D01*
X69978676Y-114063047D01*
X69985720Y-114066636D01*
X69999130Y-114074008D01*
X70027522Y-114095326D01*
X70052878Y-114120682D01*
X70086904Y-114182994D01*
X70089092Y-114196603D01*
X70106458Y-114361828D01*
X70165473Y-114543456D01*
X70260960Y-114708844D01*
X70388747Y-114850766D01*
X70543248Y-114963018D01*
X70549276Y-114965702D01*
X70549278Y-114965703D01*
X70711681Y-115038009D01*
X70717712Y-115040694D01*
X70811112Y-115060547D01*
X70898056Y-115079028D01*
X70898061Y-115079028D01*
X70904513Y-115080400D01*
X71095487Y-115080400D01*
X71101939Y-115079028D01*
X71101944Y-115079028D01*
X71188888Y-115060547D01*
X71282288Y-115040694D01*
X71288319Y-115038009D01*
X71450722Y-114965703D01*
X71450724Y-114965702D01*
X71456752Y-114963018D01*
X71611253Y-114850766D01*
X71739040Y-114708844D01*
X71834527Y-114543456D01*
X71893542Y-114361828D01*
X71913504Y-114171900D01*
X71902063Y-114063047D01*
X71894232Y-113988535D01*
X71894232Y-113988533D01*
X71893542Y-113981972D01*
X71834527Y-113800344D01*
X71822107Y-113778831D01*
X71757059Y-113666166D01*
X71739040Y-113634956D01*
X71732049Y-113627191D01*
X71615675Y-113497945D01*
X71615674Y-113497944D01*
X71611253Y-113493034D01*
X71456752Y-113380782D01*
X71450724Y-113378098D01*
X71450722Y-113378097D01*
X71288319Y-113305791D01*
X71288318Y-113305791D01*
X71282288Y-113303106D01*
X71188888Y-113283253D01*
X71101944Y-113264772D01*
X71101939Y-113264772D01*
X71095487Y-113263400D01*
X71039595Y-113263400D01*
X70971474Y-113243398D01*
X70950500Y-113226495D01*
X70940405Y-113216400D01*
X70906379Y-113154088D01*
X70903500Y-113127305D01*
X70903500Y-107204941D01*
X83157461Y-107204941D01*
X83159335Y-107213720D01*
X83159898Y-107221978D01*
X83161500Y-107237161D01*
X83161500Y-109757800D01*
X83160961Y-109769439D01*
X83160555Y-109773817D01*
X83158467Y-109782547D01*
X83158913Y-109791510D01*
X83158913Y-109791512D01*
X83161344Y-109840340D01*
X83161500Y-109846605D01*
X83161500Y-109866513D01*
X83162135Y-109870947D01*
X83162136Y-109870961D01*
X83162432Y-109873028D01*
X83163548Y-109884619D01*
X83165709Y-109928024D01*
X83168653Y-109936501D01*
X83169559Y-109939111D01*
X83175257Y-109962574D01*
X83176920Y-109974187D01*
X83180636Y-109982359D01*
X83194907Y-110013748D01*
X83199233Y-110024564D01*
X83213491Y-110065621D01*
X83218696Y-110072932D01*
X83218697Y-110072934D01*
X83220298Y-110075183D01*
X83232352Y-110096103D01*
X83237208Y-110106782D01*
X83243063Y-110113577D01*
X83243065Y-110113580D01*
X83265574Y-110139702D01*
X83272764Y-110148872D01*
X83295144Y-110180307D01*
X83295147Y-110180311D01*
X83297971Y-110184277D01*
X83306739Y-110193261D01*
X83310634Y-110196180D01*
X83314290Y-110199389D01*
X83314122Y-110199581D01*
X83319505Y-110204610D01*
X83319665Y-110204427D01*
X83326426Y-110210325D01*
X83332287Y-110217127D01*
X83339821Y-110222010D01*
X83345275Y-110226768D01*
X83349380Y-110229888D01*
X83523716Y-110384337D01*
X83526855Y-110386504D01*
X83526858Y-110386506D01*
X83758476Y-110546380D01*
X83758483Y-110546384D01*
X83761612Y-110548544D01*
X84017566Y-110682879D01*
X84287846Y-110785383D01*
X84568511Y-110854561D01*
X84572291Y-110855020D01*
X84851685Y-110888945D01*
X84851691Y-110888945D01*
X84855468Y-110889404D01*
X85144532Y-110889404D01*
X85148309Y-110888945D01*
X85148315Y-110888945D01*
X85427709Y-110855020D01*
X85431489Y-110854561D01*
X85712154Y-110785383D01*
X85982434Y-110682879D01*
X86238388Y-110548544D01*
X86241517Y-110546384D01*
X86241524Y-110546380D01*
X86473142Y-110386506D01*
X86473145Y-110386504D01*
X86476284Y-110384337D01*
X86646414Y-110233615D01*
X86648632Y-110231949D01*
X86648531Y-110231831D01*
X86655366Y-110226014D01*
X86662958Y-110221224D01*
X86668900Y-110214496D01*
X86675673Y-110208732D01*
X86676597Y-110208005D01*
X86676573Y-110207976D01*
X86680315Y-110204850D01*
X86684277Y-110202029D01*
X86693261Y-110193261D01*
X86721669Y-110155357D01*
X86728037Y-110147536D01*
X86753435Y-110118778D01*
X86759378Y-110112049D01*
X86763192Y-110103925D01*
X86764820Y-110101447D01*
X86773810Y-110086485D01*
X86775230Y-110083892D01*
X86780616Y-110076705D01*
X86797241Y-110032357D01*
X86801168Y-110023040D01*
X86817466Y-109988326D01*
X86821281Y-109980200D01*
X86822662Y-109971331D01*
X86823528Y-109968498D01*
X86827958Y-109951611D01*
X86828592Y-109948726D01*
X86831745Y-109940316D01*
X86835254Y-109893094D01*
X86836408Y-109883048D01*
X86837751Y-109874425D01*
X86837751Y-109874422D01*
X86838500Y-109869614D01*
X86838500Y-109854094D01*
X86838846Y-109844757D01*
X86841874Y-109804007D01*
X86842539Y-109795059D01*
X86840665Y-109786280D01*
X86840102Y-109778022D01*
X86838500Y-109762839D01*
X86838500Y-107242200D01*
X86839039Y-107230561D01*
X86839445Y-107226183D01*
X86841533Y-107217453D01*
X86840910Y-107204941D01*
X102157461Y-107204941D01*
X102159335Y-107213720D01*
X102159898Y-107221978D01*
X102161500Y-107237161D01*
X102161500Y-109757800D01*
X102160961Y-109769439D01*
X102160555Y-109773817D01*
X102158467Y-109782547D01*
X102158913Y-109791510D01*
X102158913Y-109791512D01*
X102161344Y-109840340D01*
X102161500Y-109846605D01*
X102161500Y-109866513D01*
X102162135Y-109870947D01*
X102162136Y-109870961D01*
X102162432Y-109873028D01*
X102163548Y-109884619D01*
X102165709Y-109928024D01*
X102168653Y-109936501D01*
X102169559Y-109939111D01*
X102175257Y-109962574D01*
X102176920Y-109974187D01*
X102180636Y-109982359D01*
X102194907Y-110013748D01*
X102199233Y-110024564D01*
X102213491Y-110065621D01*
X102218696Y-110072932D01*
X102218697Y-110072934D01*
X102220298Y-110075183D01*
X102232352Y-110096103D01*
X102237208Y-110106782D01*
X102243063Y-110113577D01*
X102243065Y-110113580D01*
X102265574Y-110139702D01*
X102272764Y-110148872D01*
X102295144Y-110180307D01*
X102295147Y-110180311D01*
X102297971Y-110184277D01*
X102306739Y-110193261D01*
X102310634Y-110196180D01*
X102314290Y-110199389D01*
X102314122Y-110199581D01*
X102319505Y-110204610D01*
X102319665Y-110204427D01*
X102326426Y-110210325D01*
X102332287Y-110217127D01*
X102339821Y-110222010D01*
X102345275Y-110226768D01*
X102349380Y-110229888D01*
X102523716Y-110384337D01*
X102526855Y-110386504D01*
X102526858Y-110386506D01*
X102758476Y-110546380D01*
X102758483Y-110546384D01*
X102761612Y-110548544D01*
X103017566Y-110682879D01*
X103287846Y-110785383D01*
X103568511Y-110854561D01*
X103572291Y-110855020D01*
X103851685Y-110888945D01*
X103851691Y-110888945D01*
X103855468Y-110889404D01*
X104144532Y-110889404D01*
X104148309Y-110888945D01*
X104148315Y-110888945D01*
X104427709Y-110855020D01*
X104431489Y-110854561D01*
X104712154Y-110785383D01*
X104982434Y-110682879D01*
X105238388Y-110548544D01*
X105241517Y-110546384D01*
X105241524Y-110546380D01*
X105473142Y-110386506D01*
X105473145Y-110386504D01*
X105476284Y-110384337D01*
X105646414Y-110233615D01*
X105648632Y-110231949D01*
X105648531Y-110231831D01*
X105655366Y-110226014D01*
X105662958Y-110221224D01*
X105668900Y-110214496D01*
X105675673Y-110208732D01*
X105676597Y-110208005D01*
X105676573Y-110207976D01*
X105680315Y-110204850D01*
X105684277Y-110202029D01*
X105693261Y-110193261D01*
X105721669Y-110155357D01*
X105728037Y-110147536D01*
X105753435Y-110118778D01*
X105759378Y-110112049D01*
X105763192Y-110103925D01*
X105764820Y-110101447D01*
X105773810Y-110086485D01*
X105775230Y-110083892D01*
X105780616Y-110076705D01*
X105797241Y-110032357D01*
X105801168Y-110023040D01*
X105817466Y-109988326D01*
X105821281Y-109980200D01*
X105822662Y-109971331D01*
X105823528Y-109968498D01*
X105827958Y-109951611D01*
X105828592Y-109948726D01*
X105831745Y-109940316D01*
X105835254Y-109893094D01*
X105836408Y-109883048D01*
X105837751Y-109874425D01*
X105837751Y-109874422D01*
X105838500Y-109869614D01*
X105838500Y-109854094D01*
X105838846Y-109844757D01*
X105841874Y-109804007D01*
X105842539Y-109795059D01*
X105840665Y-109786280D01*
X105840102Y-109778022D01*
X105838500Y-109762839D01*
X105838500Y-107242200D01*
X105839039Y-107230561D01*
X105839445Y-107226183D01*
X105841533Y-107217453D01*
X105838656Y-107159659D01*
X105838500Y-107153395D01*
X105838500Y-107133487D01*
X105837865Y-107129053D01*
X105837864Y-107129039D01*
X105837568Y-107126972D01*
X105836452Y-107115381D01*
X105834737Y-107080940D01*
X105834291Y-107071976D01*
X105830441Y-107060888D01*
X105824743Y-107037425D01*
X105824353Y-107034700D01*
X105824353Y-107034699D01*
X105823080Y-107025813D01*
X105805093Y-106986252D01*
X105800767Y-106975436D01*
X105789453Y-106942856D01*
X105789452Y-106942855D01*
X105786509Y-106934379D01*
X105781303Y-106927066D01*
X105779702Y-106924817D01*
X105767648Y-106903897D01*
X105766507Y-106901388D01*
X105766507Y-106901387D01*
X105762792Y-106893218D01*
X105756937Y-106886423D01*
X105756935Y-106886420D01*
X105734426Y-106860298D01*
X105727236Y-106851128D01*
X105704856Y-106819693D01*
X105704853Y-106819689D01*
X105702029Y-106815723D01*
X105693261Y-106806739D01*
X105689366Y-106803820D01*
X105685710Y-106800611D01*
X105685878Y-106800419D01*
X105680495Y-106795390D01*
X105680335Y-106795573D01*
X105673574Y-106789675D01*
X105667713Y-106782873D01*
X105660179Y-106777990D01*
X105654725Y-106773232D01*
X105650620Y-106770112D01*
X105476284Y-106615663D01*
X105473142Y-106613494D01*
X105241524Y-106453620D01*
X105241517Y-106453616D01*
X105238388Y-106451456D01*
X104982434Y-106317121D01*
X104712154Y-106214617D01*
X104431489Y-106145439D01*
X104427709Y-106144980D01*
X104148315Y-106111055D01*
X104148309Y-106111055D01*
X104144532Y-106110596D01*
X103855468Y-106110596D01*
X103851691Y-106111055D01*
X103851685Y-106111055D01*
X103572291Y-106144980D01*
X103568511Y-106145439D01*
X103287846Y-106214617D01*
X103017566Y-106317121D01*
X102761612Y-106451456D01*
X102758483Y-106453616D01*
X102758476Y-106453620D01*
X102526858Y-106613494D01*
X102523716Y-106615663D01*
X102353586Y-106766385D01*
X102351368Y-106768051D01*
X102351469Y-106768169D01*
X102344634Y-106773986D01*
X102337042Y-106778776D01*
X102331100Y-106785504D01*
X102324327Y-106791268D01*
X102323403Y-106791995D01*
X102323427Y-106792024D01*
X102319685Y-106795150D01*
X102315723Y-106797971D01*
X102306739Y-106806739D01*
X102278331Y-106844643D01*
X102271966Y-106852460D01*
X102240622Y-106887951D01*
X102236808Y-106896075D01*
X102235180Y-106898553D01*
X102226190Y-106913515D01*
X102224770Y-106916108D01*
X102219384Y-106923295D01*
X102216232Y-106931703D01*
X102202759Y-106967642D01*
X102198833Y-106976958D01*
X102178719Y-107019800D01*
X102177338Y-107028669D01*
X102176472Y-107031502D01*
X102172042Y-107048389D01*
X102171408Y-107051274D01*
X102168255Y-107059684D01*
X102167590Y-107068639D01*
X102164746Y-107106906D01*
X102163592Y-107116952D01*
X102161500Y-107130386D01*
X102161500Y-107145906D01*
X102161154Y-107155243D01*
X102157461Y-107204941D01*
X86840910Y-107204941D01*
X86838656Y-107159659D01*
X86838500Y-107153395D01*
X86838500Y-107133487D01*
X86837865Y-107129053D01*
X86837864Y-107129039D01*
X86837568Y-107126972D01*
X86836452Y-107115381D01*
X86834737Y-107080940D01*
X86834291Y-107071976D01*
X86830441Y-107060888D01*
X86824743Y-107037425D01*
X86824353Y-107034700D01*
X86824353Y-107034699D01*
X86823080Y-107025813D01*
X86805093Y-106986252D01*
X86800767Y-106975436D01*
X86789453Y-106942856D01*
X86789452Y-106942855D01*
X86786509Y-106934379D01*
X86781303Y-106927066D01*
X86779702Y-106924817D01*
X86767648Y-106903897D01*
X86766507Y-106901388D01*
X86766507Y-106901387D01*
X86762792Y-106893218D01*
X86756937Y-106886423D01*
X86756935Y-106886420D01*
X86734426Y-106860298D01*
X86727236Y-106851128D01*
X86704856Y-106819693D01*
X86704853Y-106819689D01*
X86702029Y-106815723D01*
X86693261Y-106806739D01*
X86689366Y-106803820D01*
X86685710Y-106800611D01*
X86685878Y-106800419D01*
X86680495Y-106795390D01*
X86680335Y-106795573D01*
X86673574Y-106789675D01*
X86667713Y-106782873D01*
X86660179Y-106777990D01*
X86654725Y-106773232D01*
X86650620Y-106770112D01*
X86476284Y-106615663D01*
X86473142Y-106613494D01*
X86241524Y-106453620D01*
X86241517Y-106453616D01*
X86238388Y-106451456D01*
X85982434Y-106317121D01*
X85712154Y-106214617D01*
X85431489Y-106145439D01*
X85427709Y-106144980D01*
X85148315Y-106111055D01*
X85148309Y-106111055D01*
X85144532Y-106110596D01*
X84855468Y-106110596D01*
X84851691Y-106111055D01*
X84851685Y-106111055D01*
X84572291Y-106144980D01*
X84568511Y-106145439D01*
X84287846Y-106214617D01*
X84017566Y-106317121D01*
X83761612Y-106451456D01*
X83758483Y-106453616D01*
X83758476Y-106453620D01*
X83526858Y-106613494D01*
X83523716Y-106615663D01*
X83353586Y-106766385D01*
X83351368Y-106768051D01*
X83351469Y-106768169D01*
X83344634Y-106773986D01*
X83337042Y-106778776D01*
X83331100Y-106785504D01*
X83324327Y-106791268D01*
X83323403Y-106791995D01*
X83323427Y-106792024D01*
X83319685Y-106795150D01*
X83315723Y-106797971D01*
X83306739Y-106806739D01*
X83278331Y-106844643D01*
X83271966Y-106852460D01*
X83240622Y-106887951D01*
X83236808Y-106896075D01*
X83235180Y-106898553D01*
X83226190Y-106913515D01*
X83224770Y-106916108D01*
X83219384Y-106923295D01*
X83216232Y-106931703D01*
X83202759Y-106967642D01*
X83198833Y-106976958D01*
X83178719Y-107019800D01*
X83177338Y-107028669D01*
X83176472Y-107031502D01*
X83172042Y-107048389D01*
X83171408Y-107051274D01*
X83168255Y-107059684D01*
X83167590Y-107068639D01*
X83164746Y-107106906D01*
X83163592Y-107116952D01*
X83161500Y-107130386D01*
X83161500Y-107145906D01*
X83161154Y-107155243D01*
X83157461Y-107204941D01*
X70903500Y-107204941D01*
X70903500Y-96974000D01*
X70923502Y-96905879D01*
X70977158Y-96859386D01*
X71029500Y-96848000D01*
X86863600Y-96848000D01*
X86931721Y-96868002D01*
X86950947Y-96884343D01*
X86951220Y-96884040D01*
X86956132Y-96888463D01*
X86960547Y-96893366D01*
X87115048Y-97005618D01*
X87121076Y-97008302D01*
X87121078Y-97008303D01*
X87283481Y-97080609D01*
X87289512Y-97083294D01*
X87382913Y-97103147D01*
X87469856Y-97121628D01*
X87469861Y-97121628D01*
X87476313Y-97123000D01*
X87667287Y-97123000D01*
X87673739Y-97121628D01*
X87673744Y-97121628D01*
X87760687Y-97103147D01*
X87854088Y-97083294D01*
X87860119Y-97080609D01*
X88022522Y-97008303D01*
X88022524Y-97008302D01*
X88028552Y-97005618D01*
X88183053Y-96893366D01*
X88310840Y-96751444D01*
X88406327Y-96586056D01*
X88465342Y-96404428D01*
X88485304Y-96214500D01*
X88484614Y-96207935D01*
X88466032Y-96031135D01*
X88466032Y-96031133D01*
X88465342Y-96024572D01*
X88406327Y-95842944D01*
X88310840Y-95677556D01*
X88183053Y-95535634D01*
X88028552Y-95423382D01*
X88022524Y-95420698D01*
X88022522Y-95420697D01*
X87860119Y-95348391D01*
X87860118Y-95348391D01*
X87854088Y-95345706D01*
X87760687Y-95325853D01*
X87673744Y-95307372D01*
X87673739Y-95307372D01*
X87667287Y-95306000D01*
X87476313Y-95306000D01*
X87469861Y-95307372D01*
X87469856Y-95307372D01*
X87382913Y-95325853D01*
X87289512Y-95345706D01*
X87283482Y-95348391D01*
X87283481Y-95348391D01*
X87121078Y-95420697D01*
X87121076Y-95420698D01*
X87115048Y-95423382D01*
X86960547Y-95535634D01*
X86956132Y-95540537D01*
X86951220Y-95544960D01*
X86950095Y-95543711D01*
X86896786Y-95576551D01*
X86863600Y-95581000D01*
X71029500Y-95581000D01*
X70961379Y-95560998D01*
X70914886Y-95507342D01*
X70903500Y-95455000D01*
X70903500Y-88204941D01*
X83157461Y-88204941D01*
X83159335Y-88213720D01*
X83159898Y-88221978D01*
X83161500Y-88237161D01*
X83161500Y-90757800D01*
X83160961Y-90769439D01*
X83160555Y-90773817D01*
X83158467Y-90782547D01*
X83158913Y-90791510D01*
X83158913Y-90791512D01*
X83161344Y-90840340D01*
X83161500Y-90846605D01*
X83161500Y-90866513D01*
X83162135Y-90870947D01*
X83162136Y-90870961D01*
X83162432Y-90873028D01*
X83163548Y-90884619D01*
X83165709Y-90928024D01*
X83168653Y-90936501D01*
X83169559Y-90939111D01*
X83175257Y-90962574D01*
X83176920Y-90974187D01*
X83180636Y-90982359D01*
X83194907Y-91013748D01*
X83199233Y-91024564D01*
X83213491Y-91065621D01*
X83218696Y-91072932D01*
X83218697Y-91072934D01*
X83220298Y-91075183D01*
X83232352Y-91096103D01*
X83237208Y-91106782D01*
X83243063Y-91113577D01*
X83243065Y-91113580D01*
X83265574Y-91139702D01*
X83272764Y-91148872D01*
X83295144Y-91180307D01*
X83295147Y-91180311D01*
X83297971Y-91184277D01*
X83306739Y-91193261D01*
X83310634Y-91196180D01*
X83314290Y-91199389D01*
X83314122Y-91199581D01*
X83319505Y-91204610D01*
X83319665Y-91204427D01*
X83326426Y-91210325D01*
X83332287Y-91217127D01*
X83339821Y-91222010D01*
X83345275Y-91226768D01*
X83349380Y-91229888D01*
X83523716Y-91384337D01*
X83526855Y-91386504D01*
X83526858Y-91386506D01*
X83758476Y-91546380D01*
X83758483Y-91546384D01*
X83761612Y-91548544D01*
X84017566Y-91682879D01*
X84287846Y-91785383D01*
X84568511Y-91854561D01*
X84572291Y-91855020D01*
X84851685Y-91888945D01*
X84851691Y-91888945D01*
X84855468Y-91889404D01*
X85144532Y-91889404D01*
X85148309Y-91888945D01*
X85148315Y-91888945D01*
X85427709Y-91855020D01*
X85431489Y-91854561D01*
X85712154Y-91785383D01*
X85982434Y-91682879D01*
X86238388Y-91548544D01*
X86241517Y-91546384D01*
X86241524Y-91546380D01*
X86473142Y-91386506D01*
X86473145Y-91386504D01*
X86476284Y-91384337D01*
X86646414Y-91233615D01*
X86648632Y-91231949D01*
X86648531Y-91231831D01*
X86655366Y-91226014D01*
X86662958Y-91221224D01*
X86668900Y-91214496D01*
X86675673Y-91208732D01*
X86676597Y-91208005D01*
X86676573Y-91207976D01*
X86680315Y-91204850D01*
X86684277Y-91202029D01*
X86693261Y-91193261D01*
X86721669Y-91155357D01*
X86728037Y-91147536D01*
X86753435Y-91118778D01*
X86759378Y-91112049D01*
X86763192Y-91103925D01*
X86764820Y-91101447D01*
X86773810Y-91086485D01*
X86775230Y-91083892D01*
X86780616Y-91076705D01*
X86797241Y-91032357D01*
X86801168Y-91023040D01*
X86817466Y-90988326D01*
X86821281Y-90980200D01*
X86822662Y-90971331D01*
X86823528Y-90968498D01*
X86827958Y-90951611D01*
X86828592Y-90948726D01*
X86831745Y-90940316D01*
X86835254Y-90893094D01*
X86836408Y-90883048D01*
X86837751Y-90874425D01*
X86837751Y-90874422D01*
X86838500Y-90869614D01*
X86838500Y-90854094D01*
X86838846Y-90844757D01*
X86841874Y-90804007D01*
X86842539Y-90795059D01*
X86840665Y-90786280D01*
X86840102Y-90778022D01*
X86838500Y-90762839D01*
X86838500Y-88242200D01*
X86839039Y-88230561D01*
X86839445Y-88226183D01*
X86841533Y-88217453D01*
X86838656Y-88159659D01*
X86838500Y-88153395D01*
X86838500Y-88133487D01*
X86837865Y-88129053D01*
X86837864Y-88129039D01*
X86837568Y-88126972D01*
X86836452Y-88115381D01*
X86834737Y-88080940D01*
X86834291Y-88071976D01*
X86830441Y-88060888D01*
X86824743Y-88037425D01*
X86824353Y-88034700D01*
X86824353Y-88034699D01*
X86823080Y-88025813D01*
X86805093Y-87986252D01*
X86800767Y-87975436D01*
X86789453Y-87942856D01*
X86789452Y-87942855D01*
X86786509Y-87934379D01*
X86781303Y-87927066D01*
X86779702Y-87924817D01*
X86767648Y-87903897D01*
X86766507Y-87901388D01*
X86766507Y-87901387D01*
X86762792Y-87893218D01*
X86756937Y-87886423D01*
X86756935Y-87886420D01*
X86734426Y-87860298D01*
X86727236Y-87851128D01*
X86704856Y-87819693D01*
X86704853Y-87819689D01*
X86702029Y-87815723D01*
X86693261Y-87806739D01*
X86689366Y-87803820D01*
X86685710Y-87800611D01*
X86685878Y-87800419D01*
X86680495Y-87795390D01*
X86680335Y-87795573D01*
X86673574Y-87789675D01*
X86667713Y-87782873D01*
X86660179Y-87777990D01*
X86654725Y-87773232D01*
X86650620Y-87770112D01*
X86476284Y-87615663D01*
X86473142Y-87613494D01*
X86241524Y-87453620D01*
X86241517Y-87453616D01*
X86238388Y-87451456D01*
X85982434Y-87317121D01*
X85712154Y-87214617D01*
X85431489Y-87145439D01*
X85427709Y-87144980D01*
X85148315Y-87111055D01*
X85148309Y-87111055D01*
X85144532Y-87110596D01*
X84855468Y-87110596D01*
X84851691Y-87111055D01*
X84851685Y-87111055D01*
X84572291Y-87144980D01*
X84568511Y-87145439D01*
X84287846Y-87214617D01*
X84017566Y-87317121D01*
X83761612Y-87451456D01*
X83758483Y-87453616D01*
X83758476Y-87453620D01*
X83526858Y-87613494D01*
X83523716Y-87615663D01*
X83353586Y-87766385D01*
X83351368Y-87768051D01*
X83351469Y-87768169D01*
X83344634Y-87773986D01*
X83337042Y-87778776D01*
X83331100Y-87785504D01*
X83324327Y-87791268D01*
X83323403Y-87791995D01*
X83323427Y-87792024D01*
X83319685Y-87795150D01*
X83315723Y-87797971D01*
X83306739Y-87806739D01*
X83278331Y-87844643D01*
X83271966Y-87852460D01*
X83240622Y-87887951D01*
X83236808Y-87896075D01*
X83235180Y-87898553D01*
X83226190Y-87913515D01*
X83224770Y-87916108D01*
X83219384Y-87923295D01*
X83216232Y-87931703D01*
X83202759Y-87967642D01*
X83198833Y-87976958D01*
X83178719Y-88019800D01*
X83177338Y-88028669D01*
X83176472Y-88031502D01*
X83172042Y-88048389D01*
X83171408Y-88051274D01*
X83168255Y-88059684D01*
X83167590Y-88068639D01*
X83164746Y-88106906D01*
X83163592Y-88116952D01*
X83161500Y-88130386D01*
X83161500Y-88145906D01*
X83161154Y-88155243D01*
X83157461Y-88204941D01*
X70903500Y-88204941D01*
X70903500Y-77106667D01*
X70923502Y-77038546D01*
X70957228Y-77003455D01*
X71035153Y-76948891D01*
X71087206Y-76912443D01*
X71087208Y-76912441D01*
X71091717Y-76909284D01*
X71249284Y-76751717D01*
X71252916Y-76746531D01*
X71307287Y-76668881D01*
X71377097Y-76569182D01*
X71379420Y-76564200D01*
X71379423Y-76564195D01*
X71425805Y-76464727D01*
X71472722Y-76411442D01*
X71540999Y-76391981D01*
X71608959Y-76412523D01*
X71654195Y-76464727D01*
X71700577Y-76564195D01*
X71700580Y-76564200D01*
X71702903Y-76569182D01*
X71772713Y-76668881D01*
X71827085Y-76746531D01*
X71830716Y-76751717D01*
X71988283Y-76909284D01*
X71992792Y-76912441D01*
X71992794Y-76912443D01*
X72044847Y-76948891D01*
X72170817Y-77037097D01*
X72175799Y-77039420D01*
X72175804Y-77039423D01*
X72320011Y-77106667D01*
X72372773Y-77131270D01*
X72378081Y-77132692D01*
X72378083Y-77132693D01*
X72406208Y-77140229D01*
X72588014Y-77188944D01*
X72810000Y-77208365D01*
X73031986Y-77188944D01*
X73213792Y-77140229D01*
X73241917Y-77132693D01*
X73241919Y-77132692D01*
X73247227Y-77131270D01*
X73299989Y-77106667D01*
X73444196Y-77039423D01*
X73444201Y-77039420D01*
X73449183Y-77037097D01*
X73575153Y-76948891D01*
X73627206Y-76912443D01*
X73627208Y-76912441D01*
X73631717Y-76909284D01*
X73789284Y-76751717D01*
X73792916Y-76746531D01*
X73847287Y-76668881D01*
X73917097Y-76569182D01*
X73919420Y-76564200D01*
X73919423Y-76564195D01*
X73965805Y-76464727D01*
X74012722Y-76411442D01*
X74080999Y-76391981D01*
X74148959Y-76412523D01*
X74194195Y-76464727D01*
X74240577Y-76564195D01*
X74240580Y-76564200D01*
X74242903Y-76569182D01*
X74312713Y-76668881D01*
X74367085Y-76746531D01*
X74370716Y-76751717D01*
X74528283Y-76909284D01*
X74532792Y-76912441D01*
X74532794Y-76912443D01*
X74584847Y-76948891D01*
X74710817Y-77037097D01*
X74715799Y-77039420D01*
X74715804Y-77039423D01*
X74860011Y-77106667D01*
X74912773Y-77131270D01*
X74918081Y-77132692D01*
X74918083Y-77132693D01*
X74946208Y-77140229D01*
X75128014Y-77188944D01*
X75350000Y-77208365D01*
X75571986Y-77188944D01*
X75753792Y-77140229D01*
X75781917Y-77132693D01*
X75781919Y-77132692D01*
X75787227Y-77131270D01*
X75839989Y-77106667D01*
X75984196Y-77039423D01*
X75984201Y-77039420D01*
X75989183Y-77037097D01*
X76115153Y-76948891D01*
X76167206Y-76912443D01*
X76167208Y-76912441D01*
X76171717Y-76909284D01*
X76329284Y-76751717D01*
X76332916Y-76746531D01*
X76387287Y-76668881D01*
X76457097Y-76569182D01*
X76459420Y-76564200D01*
X76459423Y-76564195D01*
X76505805Y-76464727D01*
X76552722Y-76411442D01*
X76620999Y-76391981D01*
X76688959Y-76412523D01*
X76734195Y-76464727D01*
X76780577Y-76564195D01*
X76780580Y-76564200D01*
X76782903Y-76569182D01*
X76852713Y-76668881D01*
X76907085Y-76746531D01*
X76910716Y-76751717D01*
X77068283Y-76909284D01*
X77072792Y-76912441D01*
X77072794Y-76912443D01*
X77124847Y-76948891D01*
X77250817Y-77037097D01*
X77255799Y-77039420D01*
X77255804Y-77039423D01*
X77400011Y-77106667D01*
X77452773Y-77131270D01*
X77458081Y-77132692D01*
X77458083Y-77132693D01*
X77486208Y-77140229D01*
X77668014Y-77188944D01*
X77890000Y-77208365D01*
X78111986Y-77188944D01*
X78293792Y-77140229D01*
X78321917Y-77132693D01*
X78321919Y-77132692D01*
X78327227Y-77131270D01*
X78379989Y-77106667D01*
X78524196Y-77039423D01*
X78524201Y-77039420D01*
X78529183Y-77037097D01*
X78655153Y-76948891D01*
X78707206Y-76912443D01*
X78707208Y-76912441D01*
X78711717Y-76909284D01*
X78869284Y-76751717D01*
X78872916Y-76746531D01*
X78927287Y-76668881D01*
X78997097Y-76569182D01*
X78999420Y-76564200D01*
X78999423Y-76564195D01*
X79045805Y-76464727D01*
X79092722Y-76411442D01*
X79160999Y-76391981D01*
X79228959Y-76412523D01*
X79274195Y-76464727D01*
X79320577Y-76564195D01*
X79320580Y-76564200D01*
X79322903Y-76569182D01*
X79392713Y-76668881D01*
X79447085Y-76746531D01*
X79450716Y-76751717D01*
X79608283Y-76909284D01*
X79612792Y-76912441D01*
X79612794Y-76912443D01*
X79664847Y-76948891D01*
X79790817Y-77037097D01*
X79795799Y-77039420D01*
X79795804Y-77039423D01*
X79940011Y-77106667D01*
X79992773Y-77131270D01*
X79998081Y-77132692D01*
X79998083Y-77132693D01*
X80026208Y-77140229D01*
X80208014Y-77188944D01*
X80430000Y-77208365D01*
X80651986Y-77188944D01*
X80833792Y-77140229D01*
X80861917Y-77132693D01*
X80861919Y-77132692D01*
X80867227Y-77131270D01*
X80919989Y-77106667D01*
X81064196Y-77039423D01*
X81064201Y-77039420D01*
X81069183Y-77037097D01*
X81195153Y-76948891D01*
X81247206Y-76912443D01*
X81247208Y-76912441D01*
X81251717Y-76909284D01*
X81409284Y-76751717D01*
X81412916Y-76746531D01*
X81467287Y-76668881D01*
X81537097Y-76569182D01*
X81539420Y-76564200D01*
X81539423Y-76564195D01*
X81585805Y-76464727D01*
X81632722Y-76411442D01*
X81700999Y-76391981D01*
X81768959Y-76412523D01*
X81814195Y-76464727D01*
X81860577Y-76564195D01*
X81860580Y-76564200D01*
X81862903Y-76569182D01*
X81932713Y-76668881D01*
X81987085Y-76746531D01*
X81990716Y-76751717D01*
X82148283Y-76909284D01*
X82152792Y-76912441D01*
X82152794Y-76912443D01*
X82204847Y-76948891D01*
X82330817Y-77037097D01*
X82335799Y-77039420D01*
X82335804Y-77039423D01*
X82480011Y-77106667D01*
X82532773Y-77131270D01*
X82538081Y-77132692D01*
X82538083Y-77132693D01*
X82566208Y-77140229D01*
X82748014Y-77188944D01*
X82970000Y-77208365D01*
X83191986Y-77188944D01*
X83373792Y-77140229D01*
X83401917Y-77132693D01*
X83401919Y-77132692D01*
X83407227Y-77131270D01*
X83459989Y-77106667D01*
X83604196Y-77039423D01*
X83604201Y-77039420D01*
X83609183Y-77037097D01*
X83735153Y-76948891D01*
X83787206Y-76912443D01*
X83787208Y-76912441D01*
X83791717Y-76909284D01*
X83949284Y-76751717D01*
X83952916Y-76746531D01*
X84007287Y-76668881D01*
X84077097Y-76569182D01*
X84079420Y-76564200D01*
X84079423Y-76564195D01*
X84125805Y-76464727D01*
X84172722Y-76411442D01*
X84240999Y-76391981D01*
X84308959Y-76412523D01*
X84354195Y-76464727D01*
X84400577Y-76564195D01*
X84400580Y-76564200D01*
X84402903Y-76569182D01*
X84472713Y-76668881D01*
X84527085Y-76746531D01*
X84530716Y-76751717D01*
X84688283Y-76909284D01*
X84692792Y-76912441D01*
X84692794Y-76912443D01*
X84744847Y-76948891D01*
X84870817Y-77037097D01*
X84875799Y-77039420D01*
X84875804Y-77039423D01*
X85020011Y-77106667D01*
X85072773Y-77131270D01*
X85078081Y-77132692D01*
X85078083Y-77132693D01*
X85106208Y-77140229D01*
X85288014Y-77188944D01*
X85510000Y-77208365D01*
X85731986Y-77188944D01*
X85913792Y-77140229D01*
X85941917Y-77132693D01*
X85941919Y-77132692D01*
X85947227Y-77131270D01*
X85999989Y-77106667D01*
X86144196Y-77039423D01*
X86144201Y-77039420D01*
X86149183Y-77037097D01*
X86275153Y-76948891D01*
X86327206Y-76912443D01*
X86327208Y-76912441D01*
X86331717Y-76909284D01*
X86489284Y-76751717D01*
X86492916Y-76746531D01*
X86547287Y-76668881D01*
X86617097Y-76569182D01*
X86619420Y-76564200D01*
X86619423Y-76564195D01*
X86665805Y-76464727D01*
X86712722Y-76411442D01*
X86780999Y-76391981D01*
X86848959Y-76412523D01*
X86894195Y-76464727D01*
X86940577Y-76564195D01*
X86940580Y-76564200D01*
X86942903Y-76569182D01*
X87012713Y-76668881D01*
X87067085Y-76746531D01*
X87070716Y-76751717D01*
X87228283Y-76909284D01*
X87232792Y-76912441D01*
X87232794Y-76912443D01*
X87284847Y-76948891D01*
X87410817Y-77037097D01*
X87415799Y-77039420D01*
X87415804Y-77039423D01*
X87560011Y-77106667D01*
X87612773Y-77131270D01*
X87618081Y-77132692D01*
X87618083Y-77132693D01*
X87646208Y-77140229D01*
X87828014Y-77188944D01*
X88050000Y-77208365D01*
X88271986Y-77188944D01*
X88453792Y-77140229D01*
X88481917Y-77132693D01*
X88481919Y-77132692D01*
X88487227Y-77131270D01*
X88539989Y-77106667D01*
X88684196Y-77039423D01*
X88684201Y-77039420D01*
X88689183Y-77037097D01*
X88815153Y-76948891D01*
X88867206Y-76912443D01*
X88867208Y-76912441D01*
X88871717Y-76909284D01*
X89029284Y-76751717D01*
X89032916Y-76746531D01*
X89087287Y-76668881D01*
X89157097Y-76569182D01*
X89159420Y-76564200D01*
X89159423Y-76564195D01*
X89205805Y-76464727D01*
X89252722Y-76411442D01*
X89320999Y-76391981D01*
X89388959Y-76412523D01*
X89434195Y-76464727D01*
X89480577Y-76564195D01*
X89480580Y-76564200D01*
X89482903Y-76569182D01*
X89552713Y-76668881D01*
X89607085Y-76746531D01*
X89610716Y-76751717D01*
X89768283Y-76909284D01*
X89772792Y-76912441D01*
X89772794Y-76912443D01*
X89824847Y-76948891D01*
X89950817Y-77037097D01*
X89955799Y-77039420D01*
X89955804Y-77039423D01*
X90100011Y-77106667D01*
X90152773Y-77131270D01*
X90158081Y-77132692D01*
X90158083Y-77132693D01*
X90186208Y-77140229D01*
X90368014Y-77188944D01*
X90590000Y-77208365D01*
X90811986Y-77188944D01*
X90993792Y-77140229D01*
X91021917Y-77132693D01*
X91021919Y-77132692D01*
X91027227Y-77131270D01*
X91079989Y-77106667D01*
X91224196Y-77039423D01*
X91224201Y-77039420D01*
X91229183Y-77037097D01*
X91355153Y-76948891D01*
X91407206Y-76912443D01*
X91407208Y-76912441D01*
X91411717Y-76909284D01*
X91569284Y-76751717D01*
X91572916Y-76746531D01*
X91627287Y-76668881D01*
X91697097Y-76569182D01*
X91699420Y-76564200D01*
X91699423Y-76564195D01*
X91745805Y-76464727D01*
X91792722Y-76411442D01*
X91860999Y-76391981D01*
X91928959Y-76412523D01*
X91974195Y-76464727D01*
X92020577Y-76564195D01*
X92020580Y-76564200D01*
X92022903Y-76569182D01*
X92092713Y-76668881D01*
X92147085Y-76746531D01*
X92150716Y-76751717D01*
X92308283Y-76909284D01*
X92312792Y-76912441D01*
X92312794Y-76912443D01*
X92364847Y-76948891D01*
X92490817Y-77037097D01*
X92495799Y-77039420D01*
X92495804Y-77039423D01*
X92640011Y-77106667D01*
X92692773Y-77131270D01*
X92698081Y-77132692D01*
X92698083Y-77132693D01*
X92726208Y-77140229D01*
X92908014Y-77188944D01*
X93130000Y-77208365D01*
X93351986Y-77188944D01*
X93533792Y-77140229D01*
X93561917Y-77132693D01*
X93561919Y-77132692D01*
X93567227Y-77131270D01*
X93619989Y-77106667D01*
X93764196Y-77039423D01*
X93764201Y-77039420D01*
X93769183Y-77037097D01*
X93895153Y-76948891D01*
X93947206Y-76912443D01*
X93947208Y-76912441D01*
X93951717Y-76909284D01*
X94109284Y-76751717D01*
X94112916Y-76746531D01*
X94167287Y-76668881D01*
X94237097Y-76569182D01*
X94239420Y-76564200D01*
X94239423Y-76564195D01*
X94285805Y-76464727D01*
X94332722Y-76411442D01*
X94400999Y-76391981D01*
X94468959Y-76412523D01*
X94514195Y-76464727D01*
X94560577Y-76564195D01*
X94560580Y-76564200D01*
X94562903Y-76569182D01*
X94632713Y-76668881D01*
X94687085Y-76746531D01*
X94690716Y-76751717D01*
X94848283Y-76909284D01*
X94852792Y-76912441D01*
X94852794Y-76912443D01*
X94904847Y-76948891D01*
X95030817Y-77037097D01*
X95035799Y-77039420D01*
X95035804Y-77039423D01*
X95180011Y-77106667D01*
X95232773Y-77131270D01*
X95238081Y-77132692D01*
X95238083Y-77132693D01*
X95266208Y-77140229D01*
X95448014Y-77188944D01*
X95670000Y-77208365D01*
X95891986Y-77188944D01*
X96073792Y-77140229D01*
X96101917Y-77132693D01*
X96101919Y-77132692D01*
X96107227Y-77131270D01*
X96159989Y-77106667D01*
X96304196Y-77039423D01*
X96304201Y-77039420D01*
X96309183Y-77037097D01*
X96435153Y-76948891D01*
X96487206Y-76912443D01*
X96487208Y-76912441D01*
X96491717Y-76909284D01*
X96649284Y-76751717D01*
X96652916Y-76746531D01*
X96707287Y-76668881D01*
X96777097Y-76569182D01*
X96779420Y-76564200D01*
X96779423Y-76564195D01*
X96825805Y-76464727D01*
X96872722Y-76411442D01*
X96940999Y-76391981D01*
X97008959Y-76412523D01*
X97054195Y-76464727D01*
X97100577Y-76564195D01*
X97100580Y-76564200D01*
X97102903Y-76569182D01*
X97172713Y-76668881D01*
X97227085Y-76746531D01*
X97230716Y-76751717D01*
X97388283Y-76909284D01*
X97392792Y-76912441D01*
X97392794Y-76912443D01*
X97444847Y-76948891D01*
X97570817Y-77037097D01*
X97575799Y-77039420D01*
X97575804Y-77039423D01*
X97720011Y-77106667D01*
X97772773Y-77131270D01*
X97778081Y-77132692D01*
X97778083Y-77132693D01*
X97806208Y-77140229D01*
X97988014Y-77188944D01*
X98210000Y-77208365D01*
X98431986Y-77188944D01*
X98613792Y-77140229D01*
X98641917Y-77132693D01*
X98641919Y-77132692D01*
X98647227Y-77131270D01*
X98699989Y-77106667D01*
X98844196Y-77039423D01*
X98844201Y-77039420D01*
X98849183Y-77037097D01*
X98975153Y-76948891D01*
X99027206Y-76912443D01*
X99027208Y-76912441D01*
X99031717Y-76909284D01*
X99189284Y-76751717D01*
X99192916Y-76746531D01*
X99247287Y-76668881D01*
X99317097Y-76569182D01*
X99319420Y-76564200D01*
X99319423Y-76564195D01*
X99365805Y-76464727D01*
X99412722Y-76411442D01*
X99480999Y-76391981D01*
X99548959Y-76412523D01*
X99594195Y-76464727D01*
X99640577Y-76564195D01*
X99640580Y-76564200D01*
X99642903Y-76569182D01*
X99712713Y-76668881D01*
X99767085Y-76746531D01*
X99770716Y-76751717D01*
X99928283Y-76909284D01*
X99932792Y-76912441D01*
X99932794Y-76912443D01*
X99984847Y-76948891D01*
X100110817Y-77037097D01*
X100115799Y-77039420D01*
X100115804Y-77039423D01*
X100260011Y-77106667D01*
X100312773Y-77131270D01*
X100318081Y-77132692D01*
X100318083Y-77132693D01*
X100346208Y-77140229D01*
X100528014Y-77188944D01*
X100750000Y-77208365D01*
X100971986Y-77188944D01*
X101153792Y-77140229D01*
X101181917Y-77132693D01*
X101181919Y-77132692D01*
X101187227Y-77131270D01*
X101239989Y-77106667D01*
X101384196Y-77039423D01*
X101384201Y-77039420D01*
X101389183Y-77037097D01*
X101515153Y-76948891D01*
X101567206Y-76912443D01*
X101567208Y-76912441D01*
X101571717Y-76909284D01*
X101729284Y-76751717D01*
X101732916Y-76746531D01*
X101787287Y-76668881D01*
X101857097Y-76569182D01*
X101859420Y-76564200D01*
X101859423Y-76564195D01*
X101905805Y-76464727D01*
X101952722Y-76411442D01*
X102020999Y-76391981D01*
X102088959Y-76412523D01*
X102134195Y-76464727D01*
X102180577Y-76564195D01*
X102180580Y-76564200D01*
X102182903Y-76569182D01*
X102252713Y-76668881D01*
X102307085Y-76746531D01*
X102310716Y-76751717D01*
X102468283Y-76909284D01*
X102472792Y-76912441D01*
X102472794Y-76912443D01*
X102524847Y-76948891D01*
X102650817Y-77037097D01*
X102655799Y-77039420D01*
X102655804Y-77039423D01*
X102800011Y-77106667D01*
X102852773Y-77131270D01*
X102858081Y-77132692D01*
X102858083Y-77132693D01*
X102886208Y-77140229D01*
X103068014Y-77188944D01*
X103290000Y-77208365D01*
X103511986Y-77188944D01*
X103693792Y-77140229D01*
X103721917Y-77132693D01*
X103721919Y-77132692D01*
X103727227Y-77131270D01*
X103779989Y-77106667D01*
X103924196Y-77039423D01*
X103924201Y-77039420D01*
X103929183Y-77037097D01*
X104055153Y-76948891D01*
X104107206Y-76912443D01*
X104107208Y-76912441D01*
X104111717Y-76909284D01*
X104269284Y-76751717D01*
X104272916Y-76746531D01*
X104327287Y-76668881D01*
X104397097Y-76569182D01*
X104399420Y-76564200D01*
X104399423Y-76564195D01*
X104445805Y-76464727D01*
X104492722Y-76411442D01*
X104560999Y-76391981D01*
X104628959Y-76412523D01*
X104674195Y-76464727D01*
X104720577Y-76564195D01*
X104720580Y-76564200D01*
X104722903Y-76569182D01*
X104792713Y-76668881D01*
X104847085Y-76746531D01*
X104850716Y-76751717D01*
X105008283Y-76909284D01*
X105012792Y-76912441D01*
X105012794Y-76912443D01*
X105064847Y-76948891D01*
X105190817Y-77037097D01*
X105195799Y-77039420D01*
X105195804Y-77039423D01*
X105340011Y-77106667D01*
X105392773Y-77131270D01*
X105398081Y-77132692D01*
X105398083Y-77132693D01*
X105426208Y-77140229D01*
X105608014Y-77188944D01*
X105830000Y-77208365D01*
X106051986Y-77188944D01*
X106233792Y-77140229D01*
X106261917Y-77132693D01*
X106261919Y-77132692D01*
X106267227Y-77131270D01*
X106319989Y-77106667D01*
X106464196Y-77039423D01*
X106464201Y-77039420D01*
X106469183Y-77037097D01*
X106535113Y-76990932D01*
X107673623Y-76990932D01*
X107682916Y-77002945D01*
X107726569Y-77033512D01*
X107736047Y-77038984D01*
X107927962Y-77128475D01*
X107938255Y-77132221D01*
X108142786Y-77187025D01*
X108153581Y-77188928D01*
X108364525Y-77207384D01*
X108375475Y-77207384D01*
X108586419Y-77188928D01*
X108597214Y-77187025D01*
X108801745Y-77132221D01*
X108812038Y-77128475D01*
X109003953Y-77038984D01*
X109013431Y-77033512D01*
X109057920Y-77002359D01*
X109066294Y-76991883D01*
X109059226Y-76978436D01*
X108382812Y-76302022D01*
X108368868Y-76294408D01*
X108367035Y-76294539D01*
X108360420Y-76298790D01*
X107680053Y-76979157D01*
X107673623Y-76990932D01*
X106535113Y-76990932D01*
X106595153Y-76948891D01*
X106647206Y-76912443D01*
X106647208Y-76912441D01*
X106651717Y-76909284D01*
X106809284Y-76751717D01*
X106812916Y-76746531D01*
X106867287Y-76668881D01*
X106937097Y-76569182D01*
X106939420Y-76564200D01*
X106939423Y-76564195D01*
X106986081Y-76464135D01*
X107032998Y-76410850D01*
X107101275Y-76391389D01*
X107169235Y-76411931D01*
X107214471Y-76464135D01*
X107261012Y-76563944D01*
X107266495Y-76573439D01*
X107297640Y-76617919D01*
X107308117Y-76626294D01*
X107321564Y-76619226D01*
X107997978Y-75942812D01*
X108004356Y-75931132D01*
X108734408Y-75931132D01*
X108734539Y-75932965D01*
X108738790Y-75939580D01*
X109419157Y-76619947D01*
X109430932Y-76626377D01*
X109442947Y-76617081D01*
X109473505Y-76573439D01*
X109478988Y-76563944D01*
X109568475Y-76372037D01*
X109572221Y-76361745D01*
X109627025Y-76157214D01*
X109628928Y-76146419D01*
X109647384Y-75935475D01*
X109647384Y-75924525D01*
X109628928Y-75713581D01*
X109627025Y-75702786D01*
X109572221Y-75498255D01*
X109568475Y-75487963D01*
X109478988Y-75296056D01*
X109473505Y-75286561D01*
X109442360Y-75242081D01*
X109431883Y-75233706D01*
X109418436Y-75240774D01*
X108742022Y-75917188D01*
X108734408Y-75931132D01*
X108004356Y-75931132D01*
X108005592Y-75928868D01*
X108005461Y-75927035D01*
X108001210Y-75920420D01*
X107320843Y-75240053D01*
X107309068Y-75233623D01*
X107297053Y-75242919D01*
X107266495Y-75286561D01*
X107261012Y-75296056D01*
X107214471Y-75395865D01*
X107167554Y-75449150D01*
X107099277Y-75468611D01*
X107031317Y-75448069D01*
X106986081Y-75395865D01*
X106939423Y-75295805D01*
X106939420Y-75295800D01*
X106937097Y-75290818D01*
X106815294Y-75116866D01*
X106812443Y-75112794D01*
X106812441Y-75112791D01*
X106809284Y-75108283D01*
X106651717Y-74950716D01*
X106617424Y-74926703D01*
X106535113Y-74869068D01*
X106533755Y-74868117D01*
X107673706Y-74868117D01*
X107680774Y-74881564D01*
X108357188Y-75557978D01*
X108371132Y-75565592D01*
X108372965Y-75565461D01*
X108379580Y-75561210D01*
X109059947Y-74880843D01*
X109066377Y-74869068D01*
X109057084Y-74857055D01*
X109013431Y-74826488D01*
X109003953Y-74821016D01*
X108812038Y-74731525D01*
X108801745Y-74727779D01*
X108597214Y-74672975D01*
X108586419Y-74671072D01*
X108375475Y-74652616D01*
X108364525Y-74652616D01*
X108153581Y-74671072D01*
X108142786Y-74672975D01*
X107938255Y-74727779D01*
X107927963Y-74731525D01*
X107736056Y-74821012D01*
X107726561Y-74826495D01*
X107682081Y-74857640D01*
X107673706Y-74868117D01*
X106533755Y-74868117D01*
X106469183Y-74822903D01*
X106464201Y-74820580D01*
X106464196Y-74820577D01*
X106272209Y-74731053D01*
X106272208Y-74731053D01*
X106267227Y-74728730D01*
X106261919Y-74727308D01*
X106261917Y-74727307D01*
X106195536Y-74709520D01*
X106051986Y-74671056D01*
X105830000Y-74651635D01*
X105608014Y-74671056D01*
X105464464Y-74709520D01*
X105398083Y-74727307D01*
X105398081Y-74727308D01*
X105392773Y-74728730D01*
X105387792Y-74731052D01*
X105387791Y-74731053D01*
X105195805Y-74820577D01*
X105195800Y-74820580D01*
X105190818Y-74822903D01*
X105008283Y-74950716D01*
X104850716Y-75108283D01*
X104847559Y-75112791D01*
X104847557Y-75112794D01*
X104844706Y-75116866D01*
X104722903Y-75290818D01*
X104720580Y-75295800D01*
X104720577Y-75295805D01*
X104674195Y-75395273D01*
X104627278Y-75448558D01*
X104559001Y-75468019D01*
X104491041Y-75447477D01*
X104445805Y-75395273D01*
X104399423Y-75295805D01*
X104399420Y-75295800D01*
X104397097Y-75290818D01*
X104275294Y-75116866D01*
X104272443Y-75112794D01*
X104272441Y-75112791D01*
X104269284Y-75108283D01*
X104111717Y-74950716D01*
X104077424Y-74926703D01*
X103995113Y-74869068D01*
X103929183Y-74822903D01*
X103924201Y-74820580D01*
X103924196Y-74820577D01*
X103732209Y-74731053D01*
X103732208Y-74731053D01*
X103727227Y-74728730D01*
X103721919Y-74727308D01*
X103721917Y-74727307D01*
X103655536Y-74709520D01*
X103511986Y-74671056D01*
X103290000Y-74651635D01*
X103068014Y-74671056D01*
X102924464Y-74709520D01*
X102858083Y-74727307D01*
X102858081Y-74727308D01*
X102852773Y-74728730D01*
X102847792Y-74731052D01*
X102847791Y-74731053D01*
X102655805Y-74820577D01*
X102655800Y-74820580D01*
X102650818Y-74822903D01*
X102468283Y-74950716D01*
X102310716Y-75108283D01*
X102307559Y-75112791D01*
X102307557Y-75112794D01*
X102304706Y-75116866D01*
X102182903Y-75290818D01*
X102180580Y-75295800D01*
X102180577Y-75295805D01*
X102134195Y-75395273D01*
X102087278Y-75448558D01*
X102019001Y-75468019D01*
X101951041Y-75447477D01*
X101905805Y-75395273D01*
X101859423Y-75295805D01*
X101859420Y-75295800D01*
X101857097Y-75290818D01*
X101735294Y-75116866D01*
X101732443Y-75112794D01*
X101732441Y-75112791D01*
X101729284Y-75108283D01*
X101571717Y-74950716D01*
X101537424Y-74926703D01*
X101455113Y-74869068D01*
X101389183Y-74822903D01*
X101384201Y-74820580D01*
X101384196Y-74820577D01*
X101192209Y-74731053D01*
X101192208Y-74731053D01*
X101187227Y-74728730D01*
X101181919Y-74727308D01*
X101181917Y-74727307D01*
X101115536Y-74709520D01*
X100971986Y-74671056D01*
X100750000Y-74651635D01*
X100528014Y-74671056D01*
X100384464Y-74709520D01*
X100318083Y-74727307D01*
X100318081Y-74727308D01*
X100312773Y-74728730D01*
X100307792Y-74731052D01*
X100307791Y-74731053D01*
X100115805Y-74820577D01*
X100115800Y-74820580D01*
X100110818Y-74822903D01*
X99928283Y-74950716D01*
X99770716Y-75108283D01*
X99767559Y-75112791D01*
X99767557Y-75112794D01*
X99764706Y-75116866D01*
X99642903Y-75290818D01*
X99640580Y-75295800D01*
X99640577Y-75295805D01*
X99594195Y-75395273D01*
X99547278Y-75448558D01*
X99479001Y-75468019D01*
X99411041Y-75447477D01*
X99365805Y-75395273D01*
X99319423Y-75295805D01*
X99319420Y-75295800D01*
X99317097Y-75290818D01*
X99195294Y-75116866D01*
X99192443Y-75112794D01*
X99192441Y-75112791D01*
X99189284Y-75108283D01*
X99031717Y-74950716D01*
X98997424Y-74926703D01*
X98915113Y-74869068D01*
X98849183Y-74822903D01*
X98844201Y-74820580D01*
X98844196Y-74820577D01*
X98652209Y-74731053D01*
X98652208Y-74731053D01*
X98647227Y-74728730D01*
X98641919Y-74727308D01*
X98641917Y-74727307D01*
X98575536Y-74709520D01*
X98431986Y-74671056D01*
X98210000Y-74651635D01*
X97988014Y-74671056D01*
X97844464Y-74709520D01*
X97778083Y-74727307D01*
X97778081Y-74727308D01*
X97772773Y-74728730D01*
X97767792Y-74731052D01*
X97767791Y-74731053D01*
X97575805Y-74820577D01*
X97575800Y-74820580D01*
X97570818Y-74822903D01*
X97388283Y-74950716D01*
X97230716Y-75108283D01*
X97227559Y-75112791D01*
X97227557Y-75112794D01*
X97224706Y-75116866D01*
X97102903Y-75290818D01*
X97100580Y-75295800D01*
X97100577Y-75295805D01*
X97054195Y-75395273D01*
X97007278Y-75448558D01*
X96939001Y-75468019D01*
X96871041Y-75447477D01*
X96825805Y-75395273D01*
X96779423Y-75295805D01*
X96779420Y-75295800D01*
X96777097Y-75290818D01*
X96655294Y-75116866D01*
X96652443Y-75112794D01*
X96652441Y-75112791D01*
X96649284Y-75108283D01*
X96491717Y-74950716D01*
X96457424Y-74926703D01*
X96375113Y-74869068D01*
X96309183Y-74822903D01*
X96304201Y-74820580D01*
X96304196Y-74820577D01*
X96112209Y-74731053D01*
X96112208Y-74731053D01*
X96107227Y-74728730D01*
X96101919Y-74727308D01*
X96101917Y-74727307D01*
X96035536Y-74709520D01*
X95891986Y-74671056D01*
X95670000Y-74651635D01*
X95448014Y-74671056D01*
X95304464Y-74709520D01*
X95238083Y-74727307D01*
X95238081Y-74727308D01*
X95232773Y-74728730D01*
X95227792Y-74731052D01*
X95227791Y-74731053D01*
X95035805Y-74820577D01*
X95035800Y-74820580D01*
X95030818Y-74822903D01*
X94848283Y-74950716D01*
X94690716Y-75108283D01*
X94687559Y-75112791D01*
X94687557Y-75112794D01*
X94684706Y-75116866D01*
X94562903Y-75290818D01*
X94560580Y-75295800D01*
X94560577Y-75295805D01*
X94514195Y-75395273D01*
X94467278Y-75448558D01*
X94399001Y-75468019D01*
X94331041Y-75447477D01*
X94285805Y-75395273D01*
X94239423Y-75295805D01*
X94239420Y-75295800D01*
X94237097Y-75290818D01*
X94115294Y-75116866D01*
X94112443Y-75112794D01*
X94112441Y-75112791D01*
X94109284Y-75108283D01*
X93951717Y-74950716D01*
X93917424Y-74926703D01*
X93835113Y-74869068D01*
X93769183Y-74822903D01*
X93764201Y-74820580D01*
X93764196Y-74820577D01*
X93572209Y-74731053D01*
X93572208Y-74731053D01*
X93567227Y-74728730D01*
X93561919Y-74727308D01*
X93561917Y-74727307D01*
X93495536Y-74709520D01*
X93351986Y-74671056D01*
X93130000Y-74651635D01*
X92908014Y-74671056D01*
X92764464Y-74709520D01*
X92698083Y-74727307D01*
X92698081Y-74727308D01*
X92692773Y-74728730D01*
X92687792Y-74731052D01*
X92687791Y-74731053D01*
X92495805Y-74820577D01*
X92495800Y-74820580D01*
X92490818Y-74822903D01*
X92308283Y-74950716D01*
X92150716Y-75108283D01*
X92147559Y-75112791D01*
X92147557Y-75112794D01*
X92144706Y-75116866D01*
X92022903Y-75290818D01*
X92020580Y-75295800D01*
X92020577Y-75295805D01*
X91974195Y-75395273D01*
X91927278Y-75448558D01*
X91859001Y-75468019D01*
X91791041Y-75447477D01*
X91745805Y-75395273D01*
X91699423Y-75295805D01*
X91699420Y-75295800D01*
X91697097Y-75290818D01*
X91575294Y-75116866D01*
X91572443Y-75112794D01*
X91572441Y-75112791D01*
X91569284Y-75108283D01*
X91411717Y-74950716D01*
X91377424Y-74926703D01*
X91295113Y-74869068D01*
X91229183Y-74822903D01*
X91224201Y-74820580D01*
X91224196Y-74820577D01*
X91032209Y-74731053D01*
X91032208Y-74731053D01*
X91027227Y-74728730D01*
X91021919Y-74727308D01*
X91021917Y-74727307D01*
X90955536Y-74709520D01*
X90811986Y-74671056D01*
X90590000Y-74651635D01*
X90368014Y-74671056D01*
X90224464Y-74709520D01*
X90158083Y-74727307D01*
X90158081Y-74727308D01*
X90152773Y-74728730D01*
X90147792Y-74731052D01*
X90147791Y-74731053D01*
X89955805Y-74820577D01*
X89955800Y-74820580D01*
X89950818Y-74822903D01*
X89768283Y-74950716D01*
X89610716Y-75108283D01*
X89607559Y-75112791D01*
X89607557Y-75112794D01*
X89604706Y-75116866D01*
X89482903Y-75290818D01*
X89480580Y-75295800D01*
X89480577Y-75295805D01*
X89434195Y-75395273D01*
X89387278Y-75448558D01*
X89319001Y-75468019D01*
X89251041Y-75447477D01*
X89205805Y-75395273D01*
X89159423Y-75295805D01*
X89159420Y-75295800D01*
X89157097Y-75290818D01*
X89035294Y-75116866D01*
X89032443Y-75112794D01*
X89032441Y-75112791D01*
X89029284Y-75108283D01*
X88871717Y-74950716D01*
X88837424Y-74926703D01*
X88755113Y-74869068D01*
X88689183Y-74822903D01*
X88684201Y-74820580D01*
X88684196Y-74820577D01*
X88492209Y-74731053D01*
X88492208Y-74731053D01*
X88487227Y-74728730D01*
X88481919Y-74727308D01*
X88481917Y-74727307D01*
X88415536Y-74709520D01*
X88271986Y-74671056D01*
X88050000Y-74651635D01*
X87828014Y-74671056D01*
X87684464Y-74709520D01*
X87618083Y-74727307D01*
X87618081Y-74727308D01*
X87612773Y-74728730D01*
X87607792Y-74731052D01*
X87607791Y-74731053D01*
X87415805Y-74820577D01*
X87415800Y-74820580D01*
X87410818Y-74822903D01*
X87228283Y-74950716D01*
X87070716Y-75108283D01*
X87067559Y-75112791D01*
X87067557Y-75112794D01*
X87064706Y-75116866D01*
X86942903Y-75290818D01*
X86940580Y-75295800D01*
X86940577Y-75295805D01*
X86894195Y-75395273D01*
X86847278Y-75448558D01*
X86779001Y-75468019D01*
X86711041Y-75447477D01*
X86665805Y-75395273D01*
X86619423Y-75295805D01*
X86619420Y-75295800D01*
X86617097Y-75290818D01*
X86495294Y-75116866D01*
X86492443Y-75112794D01*
X86492441Y-75112791D01*
X86489284Y-75108283D01*
X86331717Y-74950716D01*
X86297424Y-74926703D01*
X86215113Y-74869068D01*
X86149183Y-74822903D01*
X86144201Y-74820580D01*
X86144196Y-74820577D01*
X85952209Y-74731053D01*
X85952208Y-74731053D01*
X85947227Y-74728730D01*
X85941919Y-74727308D01*
X85941917Y-74727307D01*
X85875536Y-74709520D01*
X85731986Y-74671056D01*
X85510000Y-74651635D01*
X85288014Y-74671056D01*
X85144464Y-74709520D01*
X85078083Y-74727307D01*
X85078081Y-74727308D01*
X85072773Y-74728730D01*
X85067792Y-74731052D01*
X85067791Y-74731053D01*
X84875805Y-74820577D01*
X84875800Y-74820580D01*
X84870818Y-74822903D01*
X84688283Y-74950716D01*
X84530716Y-75108283D01*
X84527559Y-75112791D01*
X84527557Y-75112794D01*
X84524706Y-75116866D01*
X84402903Y-75290818D01*
X84400580Y-75295800D01*
X84400577Y-75295805D01*
X84354195Y-75395273D01*
X84307278Y-75448558D01*
X84239001Y-75468019D01*
X84171041Y-75447477D01*
X84125805Y-75395273D01*
X84079423Y-75295805D01*
X84079420Y-75295800D01*
X84077097Y-75290818D01*
X83955294Y-75116866D01*
X83952443Y-75112794D01*
X83952441Y-75112791D01*
X83949284Y-75108283D01*
X83791717Y-74950716D01*
X83757424Y-74926703D01*
X83675113Y-74869068D01*
X83609183Y-74822903D01*
X83604201Y-74820580D01*
X83604196Y-74820577D01*
X83412209Y-74731053D01*
X83412208Y-74731053D01*
X83407227Y-74728730D01*
X83401919Y-74727308D01*
X83401917Y-74727307D01*
X83335536Y-74709520D01*
X83191986Y-74671056D01*
X82970000Y-74651635D01*
X82748014Y-74671056D01*
X82604464Y-74709520D01*
X82538083Y-74727307D01*
X82538081Y-74727308D01*
X82532773Y-74728730D01*
X82527792Y-74731052D01*
X82527791Y-74731053D01*
X82335805Y-74820577D01*
X82335800Y-74820580D01*
X82330818Y-74822903D01*
X82148283Y-74950716D01*
X81990716Y-75108283D01*
X81987559Y-75112791D01*
X81987557Y-75112794D01*
X81984706Y-75116866D01*
X81862903Y-75290818D01*
X81860580Y-75295800D01*
X81860577Y-75295805D01*
X81814195Y-75395273D01*
X81767278Y-75448558D01*
X81699001Y-75468019D01*
X81631041Y-75447477D01*
X81585805Y-75395273D01*
X81539423Y-75295805D01*
X81539420Y-75295800D01*
X81537097Y-75290818D01*
X81415294Y-75116866D01*
X81412443Y-75112794D01*
X81412441Y-75112791D01*
X81409284Y-75108283D01*
X81251717Y-74950716D01*
X81217424Y-74926703D01*
X81135113Y-74869068D01*
X81069183Y-74822903D01*
X81064201Y-74820580D01*
X81064196Y-74820577D01*
X80872209Y-74731053D01*
X80872208Y-74731053D01*
X80867227Y-74728730D01*
X80861919Y-74727308D01*
X80861917Y-74727307D01*
X80795536Y-74709520D01*
X80651986Y-74671056D01*
X80430000Y-74651635D01*
X80208014Y-74671056D01*
X80064464Y-74709520D01*
X79998083Y-74727307D01*
X79998081Y-74727308D01*
X79992773Y-74728730D01*
X79987792Y-74731052D01*
X79987791Y-74731053D01*
X79795805Y-74820577D01*
X79795800Y-74820580D01*
X79790818Y-74822903D01*
X79608283Y-74950716D01*
X79450716Y-75108283D01*
X79447559Y-75112791D01*
X79447557Y-75112794D01*
X79444706Y-75116866D01*
X79322903Y-75290818D01*
X79320580Y-75295800D01*
X79320577Y-75295805D01*
X79274195Y-75395273D01*
X79227278Y-75448558D01*
X79159001Y-75468019D01*
X79091041Y-75447477D01*
X79045805Y-75395273D01*
X78999423Y-75295805D01*
X78999420Y-75295800D01*
X78997097Y-75290818D01*
X78875294Y-75116866D01*
X78872443Y-75112794D01*
X78872441Y-75112791D01*
X78869284Y-75108283D01*
X78711717Y-74950716D01*
X78677424Y-74926703D01*
X78595113Y-74869068D01*
X78529183Y-74822903D01*
X78524201Y-74820580D01*
X78524196Y-74820577D01*
X78332209Y-74731053D01*
X78332208Y-74731053D01*
X78327227Y-74728730D01*
X78321919Y-74727308D01*
X78321917Y-74727307D01*
X78255536Y-74709520D01*
X78111986Y-74671056D01*
X77890000Y-74651635D01*
X77668014Y-74671056D01*
X77524464Y-74709520D01*
X77458083Y-74727307D01*
X77458081Y-74727308D01*
X77452773Y-74728730D01*
X77447792Y-74731052D01*
X77447791Y-74731053D01*
X77255805Y-74820577D01*
X77255800Y-74820580D01*
X77250818Y-74822903D01*
X77068283Y-74950716D01*
X76910716Y-75108283D01*
X76907559Y-75112791D01*
X76907557Y-75112794D01*
X76904706Y-75116866D01*
X76782903Y-75290818D01*
X76780580Y-75295800D01*
X76780577Y-75295805D01*
X76734195Y-75395273D01*
X76687278Y-75448558D01*
X76619001Y-75468019D01*
X76551041Y-75447477D01*
X76505805Y-75395273D01*
X76459423Y-75295805D01*
X76459420Y-75295800D01*
X76457097Y-75290818D01*
X76335294Y-75116866D01*
X76332443Y-75112794D01*
X76332441Y-75112791D01*
X76329284Y-75108283D01*
X76171717Y-74950716D01*
X76137424Y-74926703D01*
X76055113Y-74869068D01*
X75989183Y-74822903D01*
X75984201Y-74820580D01*
X75984196Y-74820577D01*
X75792209Y-74731053D01*
X75792208Y-74731053D01*
X75787227Y-74728730D01*
X75781919Y-74727308D01*
X75781917Y-74727307D01*
X75715536Y-74709520D01*
X75571986Y-74671056D01*
X75350000Y-74651635D01*
X75128014Y-74671056D01*
X74984464Y-74709520D01*
X74918083Y-74727307D01*
X74918081Y-74727308D01*
X74912773Y-74728730D01*
X74907792Y-74731052D01*
X74907791Y-74731053D01*
X74715805Y-74820577D01*
X74715800Y-74820580D01*
X74710818Y-74822903D01*
X74528283Y-74950716D01*
X74370716Y-75108283D01*
X74367559Y-75112791D01*
X74367557Y-75112794D01*
X74364706Y-75116866D01*
X74242903Y-75290818D01*
X74240580Y-75295800D01*
X74240577Y-75295805D01*
X74194195Y-75395273D01*
X74147278Y-75448558D01*
X74079001Y-75468019D01*
X74011041Y-75447477D01*
X73965805Y-75395273D01*
X73919423Y-75295805D01*
X73919420Y-75295800D01*
X73917097Y-75290818D01*
X73795294Y-75116866D01*
X73792443Y-75112794D01*
X73792441Y-75112791D01*
X73789284Y-75108283D01*
X73631717Y-74950716D01*
X73597424Y-74926703D01*
X73515113Y-74869068D01*
X73449183Y-74822903D01*
X73444201Y-74820580D01*
X73444196Y-74820577D01*
X73252209Y-74731053D01*
X73252208Y-74731053D01*
X73247227Y-74728730D01*
X73241919Y-74727308D01*
X73241917Y-74727307D01*
X73175536Y-74709520D01*
X73031986Y-74671056D01*
X72810000Y-74651635D01*
X72588014Y-74671056D01*
X72444464Y-74709520D01*
X72378083Y-74727307D01*
X72378081Y-74727308D01*
X72372773Y-74728730D01*
X72367792Y-74731052D01*
X72367791Y-74731053D01*
X72175805Y-74820577D01*
X72175800Y-74820580D01*
X72170818Y-74822903D01*
X71988283Y-74950716D01*
X71830716Y-75108283D01*
X71827559Y-75112791D01*
X71827557Y-75112794D01*
X71824706Y-75116866D01*
X71702903Y-75290818D01*
X71700580Y-75295800D01*
X71700577Y-75295805D01*
X71654195Y-75395273D01*
X71607278Y-75448558D01*
X71539001Y-75468019D01*
X71471041Y-75447477D01*
X71425805Y-75395273D01*
X71379423Y-75295805D01*
X71379420Y-75295800D01*
X71377097Y-75290818D01*
X71255294Y-75116866D01*
X71252443Y-75112794D01*
X71252441Y-75112791D01*
X71249284Y-75108283D01*
X71091717Y-74950716D01*
X71057424Y-74926703D01*
X70975113Y-74869068D01*
X70909183Y-74822903D01*
X70904201Y-74820580D01*
X70904196Y-74820577D01*
X70712209Y-74731053D01*
X70712208Y-74731053D01*
X70707227Y-74728730D01*
X70701919Y-74727308D01*
X70701917Y-74727307D01*
X70635536Y-74709520D01*
X70491986Y-74671056D01*
X70270000Y-74651635D01*
X70048014Y-74671056D01*
X69904464Y-74709520D01*
X69838083Y-74727307D01*
X69838081Y-74727308D01*
X69832773Y-74728730D01*
X69827792Y-74731052D01*
X69827791Y-74731053D01*
X69635805Y-74820577D01*
X69635800Y-74820580D01*
X69630818Y-74822903D01*
X69448283Y-74950716D01*
X69290716Y-75108283D01*
X69287559Y-75112791D01*
X69287557Y-75112794D01*
X69284706Y-75116866D01*
X69162903Y-75290818D01*
X69160580Y-75295800D01*
X69160577Y-75295805D01*
X69114195Y-75395273D01*
X69067278Y-75448558D01*
X68999001Y-75468019D01*
X68931041Y-75447477D01*
X68885805Y-75395273D01*
X68839423Y-75295805D01*
X68839420Y-75295800D01*
X68837097Y-75290818D01*
X68715294Y-75116866D01*
X68712443Y-75112794D01*
X68712441Y-75112791D01*
X68709284Y-75108283D01*
X68551717Y-74950716D01*
X68517424Y-74926703D01*
X68435113Y-74869068D01*
X68369183Y-74822903D01*
X68364201Y-74820580D01*
X68364196Y-74820577D01*
X68172209Y-74731053D01*
X68172208Y-74731053D01*
X68167227Y-74728730D01*
X68161919Y-74727308D01*
X68161917Y-74727307D01*
X68095536Y-74709520D01*
X67951986Y-74671056D01*
X67730000Y-74651635D01*
X67508014Y-74671056D01*
X67364464Y-74709520D01*
X67298083Y-74727307D01*
X67298081Y-74727308D01*
X67292773Y-74728730D01*
X67287792Y-74731052D01*
X67287791Y-74731053D01*
X67095805Y-74820577D01*
X67095800Y-74820580D01*
X67090818Y-74822903D01*
X66908283Y-74950716D01*
X66750716Y-75108283D01*
X66747559Y-75112791D01*
X66747557Y-75112794D01*
X66744706Y-75116866D01*
X66622903Y-75290818D01*
X66620580Y-75295800D01*
X66620577Y-75295805D01*
X66574195Y-75395273D01*
X66527278Y-75448558D01*
X66459001Y-75468019D01*
X66391041Y-75447477D01*
X66345805Y-75395273D01*
X66299423Y-75295805D01*
X66299420Y-75295800D01*
X66297097Y-75290818D01*
X66175294Y-75116866D01*
X66172443Y-75112794D01*
X66172441Y-75112791D01*
X66169284Y-75108283D01*
X66011717Y-74950716D01*
X65977424Y-74926703D01*
X65895113Y-74869068D01*
X65829183Y-74822903D01*
X65824201Y-74820580D01*
X65824196Y-74820577D01*
X65632209Y-74731053D01*
X65632208Y-74731053D01*
X65627227Y-74728730D01*
X65621919Y-74727308D01*
X65621917Y-74727307D01*
X65555536Y-74709520D01*
X65411986Y-74671056D01*
X65190000Y-74651635D01*
X64968014Y-74671056D01*
X64824464Y-74709520D01*
X64758083Y-74727307D01*
X64758081Y-74727308D01*
X64752773Y-74728730D01*
X64747792Y-74731052D01*
X64747791Y-74731053D01*
X64555805Y-74820577D01*
X64555800Y-74820580D01*
X64550818Y-74822903D01*
X64368283Y-74950716D01*
X64210716Y-75108283D01*
X64207559Y-75112791D01*
X64207557Y-75112794D01*
X64204706Y-75116866D01*
X64082903Y-75290818D01*
X64080580Y-75295800D01*
X64080577Y-75295805D01*
X64034195Y-75395273D01*
X63987278Y-75448558D01*
X63919001Y-75468019D01*
X63851041Y-75447477D01*
X63805805Y-75395273D01*
X63759423Y-75295805D01*
X63759420Y-75295800D01*
X63757097Y-75290818D01*
X63635294Y-75116866D01*
X63632443Y-75112794D01*
X63632441Y-75112791D01*
X63629284Y-75108283D01*
X63471717Y-74950716D01*
X63437424Y-74926703D01*
X63355113Y-74869068D01*
X63289183Y-74822903D01*
X63284201Y-74820580D01*
X63284196Y-74820577D01*
X63092209Y-74731053D01*
X63092208Y-74731053D01*
X63087227Y-74728730D01*
X63081919Y-74727308D01*
X63081917Y-74727307D01*
X63015536Y-74709520D01*
X62871986Y-74671056D01*
X62650000Y-74651635D01*
X62428014Y-74671056D01*
X62284464Y-74709520D01*
X62218083Y-74727307D01*
X62218081Y-74727308D01*
X62212773Y-74728730D01*
X62207792Y-74731052D01*
X62207791Y-74731053D01*
X62015805Y-74820577D01*
X62015800Y-74820580D01*
X62010818Y-74822903D01*
X61828283Y-74950716D01*
X61670716Y-75108283D01*
X61667559Y-75112791D01*
X61667557Y-75112794D01*
X61664706Y-75116866D01*
X61542903Y-75290818D01*
X61540580Y-75295800D01*
X61540577Y-75295805D01*
X61494195Y-75395273D01*
X61447278Y-75448558D01*
X61379001Y-75468019D01*
X61311041Y-75447477D01*
X61265805Y-75395273D01*
X61219423Y-75295805D01*
X61219420Y-75295800D01*
X61217097Y-75290818D01*
X61095294Y-75116866D01*
X61092443Y-75112794D01*
X61092441Y-75112791D01*
X61089284Y-75108283D01*
X60931717Y-74950716D01*
X60897424Y-74926703D01*
X60815113Y-74869068D01*
X60749183Y-74822903D01*
X60744201Y-74820580D01*
X60744196Y-74820577D01*
X60552209Y-74731053D01*
X60552208Y-74731053D01*
X60547227Y-74728730D01*
X60541919Y-74727308D01*
X60541917Y-74727307D01*
X60475536Y-74709520D01*
X60331986Y-74671056D01*
X60110000Y-74651635D01*
X59888014Y-74671056D01*
X59744464Y-74709520D01*
X59678083Y-74727307D01*
X59678081Y-74727308D01*
X59672773Y-74728730D01*
X59667792Y-74731052D01*
X59667791Y-74731053D01*
X59475805Y-74820577D01*
X59475800Y-74820580D01*
X59470818Y-74822903D01*
X59288283Y-74950716D01*
X59130716Y-75108283D01*
X59127559Y-75112791D01*
X59127557Y-75112794D01*
X59124706Y-75116866D01*
X59002903Y-75290818D01*
X59000580Y-75295800D01*
X59000577Y-75295805D01*
X58954195Y-75395273D01*
X58907278Y-75448558D01*
X58839001Y-75468019D01*
X58771041Y-75447477D01*
X58725805Y-75395273D01*
X58679423Y-75295805D01*
X58679420Y-75295800D01*
X58677097Y-75290818D01*
X58555294Y-75116866D01*
X58552443Y-75112794D01*
X58552441Y-75112791D01*
X58549284Y-75108283D01*
X58391717Y-74950716D01*
X58357424Y-74926703D01*
X58275113Y-74869068D01*
X58209183Y-74822903D01*
X58204201Y-74820580D01*
X58204196Y-74820577D01*
X58012209Y-74731053D01*
X58012208Y-74731053D01*
X58007227Y-74728730D01*
X58001919Y-74727308D01*
X58001917Y-74727307D01*
X57935536Y-74709520D01*
X57791986Y-74671056D01*
X57570000Y-74651635D01*
X57348014Y-74671056D01*
X57204464Y-74709520D01*
X57138083Y-74727307D01*
X57138081Y-74727308D01*
X57132773Y-74728730D01*
X57127792Y-74731052D01*
X57127791Y-74731053D01*
X56935805Y-74820577D01*
X56935800Y-74820580D01*
X56930818Y-74822903D01*
X56748283Y-74950716D01*
X56590716Y-75108283D01*
X56587559Y-75112791D01*
X56587557Y-75112794D01*
X56532713Y-75191119D01*
X56477255Y-75235447D01*
X56406636Y-75242756D01*
X56343276Y-75210725D01*
X56307291Y-75149523D01*
X56304094Y-75123658D01*
X56303684Y-75123680D01*
X56303500Y-75120282D01*
X56303500Y-75116866D01*
X56296745Y-75054684D01*
X56245615Y-74918295D01*
X56158261Y-74801739D01*
X56041705Y-74714385D01*
X55905316Y-74663255D01*
X55843134Y-74656500D01*
X54216866Y-74656500D01*
X54154684Y-74663255D01*
X54018295Y-74714385D01*
X53901739Y-74801739D01*
X53814385Y-74918295D01*
X53763255Y-75054684D01*
X53756500Y-75116866D01*
X53756500Y-76743134D01*
X50508500Y-76743134D01*
X50508500Y-54130932D01*
X54333623Y-54130932D01*
X54342916Y-54142945D01*
X54386569Y-54173512D01*
X54396047Y-54178984D01*
X54587962Y-54268475D01*
X54598255Y-54272221D01*
X54802786Y-54327025D01*
X54813581Y-54328928D01*
X55024525Y-54347384D01*
X55035475Y-54347384D01*
X55246419Y-54328928D01*
X55257214Y-54327025D01*
X55461745Y-54272221D01*
X55472038Y-54268475D01*
X55663953Y-54178984D01*
X55673431Y-54173512D01*
X55717920Y-54142359D01*
X55726294Y-54131883D01*
X55719226Y-54118436D01*
X55042812Y-53442022D01*
X55028868Y-53434408D01*
X55027035Y-53434539D01*
X55020420Y-53438790D01*
X54340053Y-54119157D01*
X54333623Y-54130932D01*
X50508500Y-54130932D01*
X50508500Y-53075475D01*
X53752616Y-53075475D01*
X53771072Y-53286419D01*
X53772975Y-53297214D01*
X53827779Y-53501745D01*
X53831525Y-53512037D01*
X53921012Y-53703944D01*
X53926495Y-53713439D01*
X53957640Y-53757919D01*
X53968117Y-53766294D01*
X53981564Y-53759226D01*
X54657978Y-53082812D01*
X54664356Y-53071132D01*
X55394408Y-53071132D01*
X55394539Y-53072965D01*
X55398790Y-53079580D01*
X56079157Y-53759947D01*
X56090932Y-53766377D01*
X56102947Y-53757081D01*
X56133505Y-53713439D01*
X56138988Y-53703944D01*
X56185529Y-53604135D01*
X56232446Y-53550850D01*
X56300723Y-53531389D01*
X56368683Y-53551931D01*
X56413919Y-53604135D01*
X56460577Y-53704195D01*
X56460580Y-53704200D01*
X56462903Y-53709182D01*
X56590716Y-53891717D01*
X56748283Y-54049284D01*
X56930817Y-54177097D01*
X56935799Y-54179420D01*
X56935804Y-54179423D01*
X57126779Y-54268475D01*
X57132773Y-54271270D01*
X57138081Y-54272692D01*
X57138083Y-54272693D01*
X57204464Y-54290480D01*
X57348014Y-54328944D01*
X57570000Y-54348365D01*
X57791986Y-54328944D01*
X57935536Y-54290480D01*
X58001917Y-54272693D01*
X58001919Y-54272692D01*
X58007227Y-54271270D01*
X58013221Y-54268475D01*
X58204196Y-54179423D01*
X58204201Y-54179420D01*
X58209183Y-54177097D01*
X58391717Y-54049284D01*
X58549284Y-53891717D01*
X58677097Y-53709182D01*
X58679420Y-53704200D01*
X58679423Y-53704195D01*
X58725805Y-53604727D01*
X58772722Y-53551442D01*
X58840999Y-53531981D01*
X58908959Y-53552523D01*
X58954195Y-53604727D01*
X59000577Y-53704195D01*
X59000580Y-53704200D01*
X59002903Y-53709182D01*
X59130716Y-53891717D01*
X59288283Y-54049284D01*
X59470817Y-54177097D01*
X59475799Y-54179420D01*
X59475804Y-54179423D01*
X59666779Y-54268475D01*
X59672773Y-54271270D01*
X59678081Y-54272692D01*
X59678083Y-54272693D01*
X59744464Y-54290480D01*
X59888014Y-54328944D01*
X60110000Y-54348365D01*
X60331986Y-54328944D01*
X60475536Y-54290480D01*
X60541917Y-54272693D01*
X60541919Y-54272692D01*
X60547227Y-54271270D01*
X60553221Y-54268475D01*
X60744196Y-54179423D01*
X60744201Y-54179420D01*
X60749183Y-54177097D01*
X60931717Y-54049284D01*
X61089284Y-53891717D01*
X61217097Y-53709182D01*
X61219420Y-53704200D01*
X61219423Y-53704195D01*
X61265805Y-53604727D01*
X61312722Y-53551442D01*
X61380999Y-53531981D01*
X61448959Y-53552523D01*
X61494195Y-53604727D01*
X61540577Y-53704195D01*
X61540580Y-53704200D01*
X61542903Y-53709182D01*
X61670716Y-53891717D01*
X61828283Y-54049284D01*
X62010817Y-54177097D01*
X62015799Y-54179420D01*
X62015804Y-54179423D01*
X62206779Y-54268475D01*
X62212773Y-54271270D01*
X62218081Y-54272692D01*
X62218083Y-54272693D01*
X62284464Y-54290480D01*
X62428014Y-54328944D01*
X62650000Y-54348365D01*
X62871986Y-54328944D01*
X63015536Y-54290480D01*
X63081917Y-54272693D01*
X63081919Y-54272692D01*
X63087227Y-54271270D01*
X63093221Y-54268475D01*
X63284196Y-54179423D01*
X63284201Y-54179420D01*
X63289183Y-54177097D01*
X63471717Y-54049284D01*
X63629284Y-53891717D01*
X63757097Y-53709182D01*
X63759420Y-53704200D01*
X63759423Y-53704195D01*
X63805805Y-53604727D01*
X63852722Y-53551442D01*
X63920999Y-53531981D01*
X63988959Y-53552523D01*
X64034195Y-53604727D01*
X64080577Y-53704195D01*
X64080580Y-53704200D01*
X64082903Y-53709182D01*
X64210716Y-53891717D01*
X64368283Y-54049284D01*
X64550817Y-54177097D01*
X64555799Y-54179420D01*
X64555804Y-54179423D01*
X64746779Y-54268475D01*
X64752773Y-54271270D01*
X64758081Y-54272692D01*
X64758083Y-54272693D01*
X64824464Y-54290480D01*
X64968014Y-54328944D01*
X65190000Y-54348365D01*
X65411986Y-54328944D01*
X65555536Y-54290480D01*
X65621917Y-54272693D01*
X65621919Y-54272692D01*
X65627227Y-54271270D01*
X65633221Y-54268475D01*
X65824196Y-54179423D01*
X65824201Y-54179420D01*
X65829183Y-54177097D01*
X66011717Y-54049284D01*
X66169284Y-53891717D01*
X66297097Y-53709182D01*
X66299420Y-53704200D01*
X66299423Y-53704195D01*
X66345805Y-53604727D01*
X66392722Y-53551442D01*
X66460999Y-53531981D01*
X66528959Y-53552523D01*
X66574195Y-53604727D01*
X66620577Y-53704195D01*
X66620580Y-53704200D01*
X66622903Y-53709182D01*
X66750716Y-53891717D01*
X66908283Y-54049284D01*
X67090817Y-54177097D01*
X67095799Y-54179420D01*
X67095804Y-54179423D01*
X67286779Y-54268475D01*
X67292773Y-54271270D01*
X67298081Y-54272692D01*
X67298083Y-54272693D01*
X67364464Y-54290480D01*
X67508014Y-54328944D01*
X67730000Y-54348365D01*
X67951986Y-54328944D01*
X68095536Y-54290480D01*
X68161917Y-54272693D01*
X68161919Y-54272692D01*
X68167227Y-54271270D01*
X68173221Y-54268475D01*
X68364196Y-54179423D01*
X68364201Y-54179420D01*
X68369183Y-54177097D01*
X68551717Y-54049284D01*
X68709284Y-53891717D01*
X68837097Y-53709182D01*
X68839420Y-53704200D01*
X68839423Y-53704195D01*
X68885805Y-53604727D01*
X68932722Y-53551442D01*
X69000999Y-53531981D01*
X69068959Y-53552523D01*
X69114195Y-53604727D01*
X69160577Y-53704195D01*
X69160580Y-53704200D01*
X69162903Y-53709182D01*
X69290716Y-53891717D01*
X69448283Y-54049284D01*
X69630817Y-54177097D01*
X69635799Y-54179420D01*
X69635804Y-54179423D01*
X69826779Y-54268475D01*
X69832773Y-54271270D01*
X69838081Y-54272692D01*
X69838083Y-54272693D01*
X69904464Y-54290480D01*
X70048014Y-54328944D01*
X70270000Y-54348365D01*
X70491986Y-54328944D01*
X70635536Y-54290480D01*
X70701917Y-54272693D01*
X70701919Y-54272692D01*
X70707227Y-54271270D01*
X70713221Y-54268475D01*
X70904196Y-54179423D01*
X70904201Y-54179420D01*
X70909183Y-54177097D01*
X71091717Y-54049284D01*
X71249284Y-53891717D01*
X71377097Y-53709182D01*
X71379420Y-53704200D01*
X71379423Y-53704195D01*
X71425805Y-53604727D01*
X71472722Y-53551442D01*
X71540999Y-53531981D01*
X71608959Y-53552523D01*
X71654195Y-53604727D01*
X71700577Y-53704195D01*
X71700580Y-53704200D01*
X71702903Y-53709182D01*
X71830716Y-53891717D01*
X71988283Y-54049284D01*
X72170817Y-54177097D01*
X72175799Y-54179420D01*
X72175804Y-54179423D01*
X72366779Y-54268475D01*
X72372773Y-54271270D01*
X72378081Y-54272692D01*
X72378083Y-54272693D01*
X72444464Y-54290480D01*
X72588014Y-54328944D01*
X72810000Y-54348365D01*
X73031986Y-54328944D01*
X73175536Y-54290480D01*
X73241917Y-54272693D01*
X73241919Y-54272692D01*
X73247227Y-54271270D01*
X73253221Y-54268475D01*
X73444196Y-54179423D01*
X73444201Y-54179420D01*
X73449183Y-54177097D01*
X73631717Y-54049284D01*
X73789284Y-53891717D01*
X73917097Y-53709182D01*
X73919420Y-53704200D01*
X73919423Y-53704195D01*
X73965805Y-53604727D01*
X74012722Y-53551442D01*
X74080999Y-53531981D01*
X74148959Y-53552523D01*
X74194195Y-53604727D01*
X74240577Y-53704195D01*
X74240580Y-53704200D01*
X74242903Y-53709182D01*
X74370716Y-53891717D01*
X74528283Y-54049284D01*
X74710817Y-54177097D01*
X74715799Y-54179420D01*
X74715804Y-54179423D01*
X74906779Y-54268475D01*
X74912773Y-54271270D01*
X74918081Y-54272692D01*
X74918083Y-54272693D01*
X74984464Y-54290480D01*
X75128014Y-54328944D01*
X75350000Y-54348365D01*
X75571986Y-54328944D01*
X75715536Y-54290480D01*
X75781917Y-54272693D01*
X75781919Y-54272692D01*
X75787227Y-54271270D01*
X75793221Y-54268475D01*
X75984196Y-54179423D01*
X75984201Y-54179420D01*
X75989183Y-54177097D01*
X76171717Y-54049284D01*
X76329284Y-53891717D01*
X76457097Y-53709182D01*
X76459420Y-53704200D01*
X76459423Y-53704195D01*
X76505805Y-53604727D01*
X76552722Y-53551442D01*
X76620999Y-53531981D01*
X76688959Y-53552523D01*
X76734195Y-53604727D01*
X76780577Y-53704195D01*
X76780580Y-53704200D01*
X76782903Y-53709182D01*
X76910716Y-53891717D01*
X77068283Y-54049284D01*
X77250817Y-54177097D01*
X77255799Y-54179420D01*
X77255804Y-54179423D01*
X77446779Y-54268475D01*
X77452773Y-54271270D01*
X77458081Y-54272692D01*
X77458083Y-54272693D01*
X77524464Y-54290480D01*
X77668014Y-54328944D01*
X77890000Y-54348365D01*
X78111986Y-54328944D01*
X78255536Y-54290480D01*
X78321917Y-54272693D01*
X78321919Y-54272692D01*
X78327227Y-54271270D01*
X78333221Y-54268475D01*
X78524196Y-54179423D01*
X78524201Y-54179420D01*
X78529183Y-54177097D01*
X78711717Y-54049284D01*
X78869284Y-53891717D01*
X78997097Y-53709182D01*
X78999420Y-53704200D01*
X78999423Y-53704195D01*
X79045805Y-53604727D01*
X79092722Y-53551442D01*
X79160999Y-53531981D01*
X79228959Y-53552523D01*
X79274195Y-53604727D01*
X79320577Y-53704195D01*
X79320580Y-53704200D01*
X79322903Y-53709182D01*
X79450716Y-53891717D01*
X79608283Y-54049284D01*
X79790817Y-54177097D01*
X79795799Y-54179420D01*
X79795804Y-54179423D01*
X79986779Y-54268475D01*
X79992773Y-54271270D01*
X79998081Y-54272692D01*
X79998083Y-54272693D01*
X80064464Y-54290480D01*
X80208014Y-54328944D01*
X80430000Y-54348365D01*
X80651986Y-54328944D01*
X80795536Y-54290480D01*
X80861917Y-54272693D01*
X80861919Y-54272692D01*
X80867227Y-54271270D01*
X80873221Y-54268475D01*
X81064196Y-54179423D01*
X81064201Y-54179420D01*
X81069183Y-54177097D01*
X81251717Y-54049284D01*
X81409284Y-53891717D01*
X81537097Y-53709182D01*
X81539420Y-53704200D01*
X81539423Y-53704195D01*
X81585805Y-53604727D01*
X81632722Y-53551442D01*
X81700999Y-53531981D01*
X81768959Y-53552523D01*
X81814195Y-53604727D01*
X81860577Y-53704195D01*
X81860580Y-53704200D01*
X81862903Y-53709182D01*
X81990716Y-53891717D01*
X82148283Y-54049284D01*
X82330817Y-54177097D01*
X82335799Y-54179420D01*
X82335804Y-54179423D01*
X82526779Y-54268475D01*
X82532773Y-54271270D01*
X82538081Y-54272692D01*
X82538083Y-54272693D01*
X82604464Y-54290480D01*
X82748014Y-54328944D01*
X82970000Y-54348365D01*
X83191986Y-54328944D01*
X83335536Y-54290480D01*
X83401917Y-54272693D01*
X83401919Y-54272692D01*
X83407227Y-54271270D01*
X83413221Y-54268475D01*
X83604196Y-54179423D01*
X83604201Y-54179420D01*
X83609183Y-54177097D01*
X83791717Y-54049284D01*
X83949284Y-53891717D01*
X84077097Y-53709182D01*
X84079420Y-53704200D01*
X84079423Y-53704195D01*
X84125805Y-53604727D01*
X84172722Y-53551442D01*
X84240999Y-53531981D01*
X84308959Y-53552523D01*
X84354195Y-53604727D01*
X84400577Y-53704195D01*
X84400580Y-53704200D01*
X84402903Y-53709182D01*
X84530716Y-53891717D01*
X84688283Y-54049284D01*
X84870817Y-54177097D01*
X84875799Y-54179420D01*
X84875804Y-54179423D01*
X85066779Y-54268475D01*
X85072773Y-54271270D01*
X85078081Y-54272692D01*
X85078083Y-54272693D01*
X85144464Y-54290480D01*
X85288014Y-54328944D01*
X85510000Y-54348365D01*
X85731986Y-54328944D01*
X85875536Y-54290480D01*
X85941917Y-54272693D01*
X85941919Y-54272692D01*
X85947227Y-54271270D01*
X85953221Y-54268475D01*
X86144196Y-54179423D01*
X86144201Y-54179420D01*
X86149183Y-54177097D01*
X86331717Y-54049284D01*
X86489284Y-53891717D01*
X86617097Y-53709182D01*
X86619420Y-53704200D01*
X86619423Y-53704195D01*
X86665805Y-53604727D01*
X86712722Y-53551442D01*
X86780999Y-53531981D01*
X86848959Y-53552523D01*
X86894195Y-53604727D01*
X86940577Y-53704195D01*
X86940580Y-53704200D01*
X86942903Y-53709182D01*
X87070716Y-53891717D01*
X87228283Y-54049284D01*
X87410817Y-54177097D01*
X87415799Y-54179420D01*
X87415804Y-54179423D01*
X87606779Y-54268475D01*
X87612773Y-54271270D01*
X87618081Y-54272692D01*
X87618083Y-54272693D01*
X87684464Y-54290480D01*
X87828014Y-54328944D01*
X88050000Y-54348365D01*
X88271986Y-54328944D01*
X88415536Y-54290480D01*
X88481917Y-54272693D01*
X88481919Y-54272692D01*
X88487227Y-54271270D01*
X88493221Y-54268475D01*
X88684196Y-54179423D01*
X88684201Y-54179420D01*
X88689183Y-54177097D01*
X88871717Y-54049284D01*
X89029284Y-53891717D01*
X89157097Y-53709182D01*
X89159420Y-53704200D01*
X89159423Y-53704195D01*
X89205805Y-53604727D01*
X89252722Y-53551442D01*
X89320999Y-53531981D01*
X89388959Y-53552523D01*
X89434195Y-53604727D01*
X89480577Y-53704195D01*
X89480580Y-53704200D01*
X89482903Y-53709182D01*
X89610716Y-53891717D01*
X89768283Y-54049284D01*
X89950817Y-54177097D01*
X89955799Y-54179420D01*
X89955804Y-54179423D01*
X90146779Y-54268475D01*
X90152773Y-54271270D01*
X90158081Y-54272692D01*
X90158083Y-54272693D01*
X90224464Y-54290480D01*
X90368014Y-54328944D01*
X90590000Y-54348365D01*
X90811986Y-54328944D01*
X90955536Y-54290480D01*
X91021917Y-54272693D01*
X91021919Y-54272692D01*
X91027227Y-54271270D01*
X91033221Y-54268475D01*
X91224196Y-54179423D01*
X91224201Y-54179420D01*
X91229183Y-54177097D01*
X91411717Y-54049284D01*
X91569284Y-53891717D01*
X91697097Y-53709182D01*
X91699420Y-53704200D01*
X91699423Y-53704195D01*
X91745805Y-53604727D01*
X91792722Y-53551442D01*
X91860999Y-53531981D01*
X91928959Y-53552523D01*
X91974195Y-53604727D01*
X92020577Y-53704195D01*
X92020580Y-53704200D01*
X92022903Y-53709182D01*
X92150716Y-53891717D01*
X92308283Y-54049284D01*
X92490817Y-54177097D01*
X92495799Y-54179420D01*
X92495804Y-54179423D01*
X92686779Y-54268475D01*
X92692773Y-54271270D01*
X92698081Y-54272692D01*
X92698083Y-54272693D01*
X92764464Y-54290480D01*
X92908014Y-54328944D01*
X93130000Y-54348365D01*
X93351986Y-54328944D01*
X93495536Y-54290480D01*
X93561917Y-54272693D01*
X93561919Y-54272692D01*
X93567227Y-54271270D01*
X93573221Y-54268475D01*
X93764196Y-54179423D01*
X93764201Y-54179420D01*
X93769183Y-54177097D01*
X93951717Y-54049284D01*
X94109284Y-53891717D01*
X94237097Y-53709182D01*
X94239420Y-53704200D01*
X94239423Y-53704195D01*
X94285805Y-53604727D01*
X94332722Y-53551442D01*
X94400999Y-53531981D01*
X94468959Y-53552523D01*
X94514195Y-53604727D01*
X94560577Y-53704195D01*
X94560580Y-53704200D01*
X94562903Y-53709182D01*
X94690716Y-53891717D01*
X94848283Y-54049284D01*
X95030817Y-54177097D01*
X95035799Y-54179420D01*
X95035804Y-54179423D01*
X95226779Y-54268475D01*
X95232773Y-54271270D01*
X95238081Y-54272692D01*
X95238083Y-54272693D01*
X95304464Y-54290480D01*
X95448014Y-54328944D01*
X95670000Y-54348365D01*
X95891986Y-54328944D01*
X96035536Y-54290480D01*
X96101917Y-54272693D01*
X96101919Y-54272692D01*
X96107227Y-54271270D01*
X96113221Y-54268475D01*
X96304196Y-54179423D01*
X96304201Y-54179420D01*
X96309183Y-54177097D01*
X96491717Y-54049284D01*
X96649284Y-53891717D01*
X96777097Y-53709182D01*
X96779420Y-53704200D01*
X96779423Y-53704195D01*
X96825805Y-53604727D01*
X96872722Y-53551442D01*
X96940999Y-53531981D01*
X97008959Y-53552523D01*
X97054195Y-53604727D01*
X97100577Y-53704195D01*
X97100580Y-53704200D01*
X97102903Y-53709182D01*
X97230716Y-53891717D01*
X97388283Y-54049284D01*
X97570817Y-54177097D01*
X97575799Y-54179420D01*
X97575804Y-54179423D01*
X97766779Y-54268475D01*
X97772773Y-54271270D01*
X97778081Y-54272692D01*
X97778083Y-54272693D01*
X97844464Y-54290480D01*
X97988014Y-54328944D01*
X98210000Y-54348365D01*
X98431986Y-54328944D01*
X98575536Y-54290480D01*
X98641917Y-54272693D01*
X98641919Y-54272692D01*
X98647227Y-54271270D01*
X98653221Y-54268475D01*
X98844196Y-54179423D01*
X98844201Y-54179420D01*
X98849183Y-54177097D01*
X99031717Y-54049284D01*
X99189284Y-53891717D01*
X99317097Y-53709182D01*
X99319420Y-53704200D01*
X99319423Y-53704195D01*
X99365805Y-53604727D01*
X99412722Y-53551442D01*
X99480999Y-53531981D01*
X99548959Y-53552523D01*
X99594195Y-53604727D01*
X99640577Y-53704195D01*
X99640580Y-53704200D01*
X99642903Y-53709182D01*
X99770716Y-53891717D01*
X99928283Y-54049284D01*
X100110817Y-54177097D01*
X100115799Y-54179420D01*
X100115804Y-54179423D01*
X100306779Y-54268475D01*
X100312773Y-54271270D01*
X100318081Y-54272692D01*
X100318083Y-54272693D01*
X100384464Y-54290480D01*
X100528014Y-54328944D01*
X100750000Y-54348365D01*
X100971986Y-54328944D01*
X101115536Y-54290480D01*
X101181917Y-54272693D01*
X101181919Y-54272692D01*
X101187227Y-54271270D01*
X101193221Y-54268475D01*
X101384196Y-54179423D01*
X101384201Y-54179420D01*
X101389183Y-54177097D01*
X101571717Y-54049284D01*
X101729284Y-53891717D01*
X101857097Y-53709182D01*
X101859420Y-53704200D01*
X101859423Y-53704195D01*
X101905805Y-53604727D01*
X101952722Y-53551442D01*
X102020999Y-53531981D01*
X102088959Y-53552523D01*
X102134195Y-53604727D01*
X102180577Y-53704195D01*
X102180580Y-53704200D01*
X102182903Y-53709182D01*
X102310716Y-53891717D01*
X102468283Y-54049284D01*
X102650817Y-54177097D01*
X102655799Y-54179420D01*
X102655804Y-54179423D01*
X102846779Y-54268475D01*
X102852773Y-54271270D01*
X102858081Y-54272692D01*
X102858083Y-54272693D01*
X102924464Y-54290480D01*
X103068014Y-54328944D01*
X103290000Y-54348365D01*
X103511986Y-54328944D01*
X103655536Y-54290480D01*
X103721917Y-54272693D01*
X103721919Y-54272692D01*
X103727227Y-54271270D01*
X103733221Y-54268475D01*
X103924196Y-54179423D01*
X103924201Y-54179420D01*
X103929183Y-54177097D01*
X103995113Y-54130932D01*
X105133623Y-54130932D01*
X105142916Y-54142945D01*
X105186569Y-54173512D01*
X105196047Y-54178984D01*
X105387962Y-54268475D01*
X105398255Y-54272221D01*
X105602786Y-54327025D01*
X105613581Y-54328928D01*
X105824525Y-54347384D01*
X105835475Y-54347384D01*
X106046419Y-54328928D01*
X106057214Y-54327025D01*
X106261745Y-54272221D01*
X106272038Y-54268475D01*
X106463953Y-54178984D01*
X106473431Y-54173512D01*
X106517920Y-54142359D01*
X106526294Y-54131883D01*
X106525794Y-54130932D01*
X107673623Y-54130932D01*
X107682916Y-54142945D01*
X107726569Y-54173512D01*
X107736047Y-54178984D01*
X107927962Y-54268475D01*
X107938255Y-54272221D01*
X108142786Y-54327025D01*
X108153581Y-54328928D01*
X108364525Y-54347384D01*
X108375475Y-54347384D01*
X108586419Y-54328928D01*
X108597214Y-54327025D01*
X108801745Y-54272221D01*
X108812038Y-54268475D01*
X109003953Y-54178984D01*
X109013431Y-54173512D01*
X109057920Y-54142359D01*
X109066294Y-54131883D01*
X109059226Y-54118436D01*
X108382812Y-53442022D01*
X108368868Y-53434408D01*
X108367035Y-53434539D01*
X108360420Y-53438790D01*
X107680053Y-54119157D01*
X107673623Y-54130932D01*
X106525794Y-54130932D01*
X106519226Y-54118436D01*
X105842812Y-53442022D01*
X105828868Y-53434408D01*
X105827035Y-53434539D01*
X105820420Y-53438790D01*
X105140053Y-54119157D01*
X105133623Y-54130932D01*
X103995113Y-54130932D01*
X104111717Y-54049284D01*
X104269284Y-53891717D01*
X104397097Y-53709182D01*
X104399420Y-53704200D01*
X104399423Y-53704195D01*
X104446081Y-53604135D01*
X104492998Y-53550850D01*
X104561275Y-53531389D01*
X104629235Y-53551931D01*
X104674471Y-53604135D01*
X104721012Y-53703944D01*
X104726495Y-53713439D01*
X104757640Y-53757919D01*
X104768117Y-53766294D01*
X104781564Y-53759226D01*
X105457978Y-53082812D01*
X105464356Y-53071132D01*
X106194408Y-53071132D01*
X106194539Y-53072965D01*
X106198790Y-53079580D01*
X106879157Y-53759947D01*
X106890932Y-53766377D01*
X106902947Y-53757081D01*
X106933505Y-53713439D01*
X106938988Y-53703944D01*
X106985805Y-53603543D01*
X107032722Y-53550258D01*
X107100999Y-53530797D01*
X107168959Y-53551339D01*
X107214195Y-53603543D01*
X107261012Y-53703944D01*
X107266495Y-53713439D01*
X107297640Y-53757919D01*
X107308117Y-53766294D01*
X107321564Y-53759226D01*
X107997978Y-53082812D01*
X108004356Y-53071132D01*
X108734408Y-53071132D01*
X108734539Y-53072965D01*
X108738790Y-53079580D01*
X109419157Y-53759947D01*
X109430932Y-53766377D01*
X109442947Y-53757081D01*
X109473505Y-53713439D01*
X109478988Y-53703944D01*
X109568475Y-53512037D01*
X109572221Y-53501745D01*
X109627025Y-53297214D01*
X109628928Y-53286419D01*
X109647384Y-53075475D01*
X109647384Y-53064525D01*
X109628928Y-52853581D01*
X109627025Y-52842786D01*
X109572221Y-52638255D01*
X109568475Y-52627963D01*
X109478988Y-52436056D01*
X109473505Y-52426561D01*
X109442360Y-52382081D01*
X109431883Y-52373706D01*
X109418436Y-52380774D01*
X108742022Y-53057188D01*
X108734408Y-53071132D01*
X108004356Y-53071132D01*
X108005592Y-53068868D01*
X108005461Y-53067035D01*
X108001210Y-53060420D01*
X107320843Y-52380053D01*
X107309068Y-52373623D01*
X107297053Y-52382919D01*
X107266495Y-52426561D01*
X107261012Y-52436056D01*
X107214195Y-52536457D01*
X107167278Y-52589742D01*
X107099001Y-52609203D01*
X107031041Y-52588661D01*
X106985805Y-52536457D01*
X106938988Y-52436056D01*
X106933505Y-52426561D01*
X106902360Y-52382081D01*
X106891883Y-52373706D01*
X106878436Y-52380774D01*
X106202022Y-53057188D01*
X106194408Y-53071132D01*
X105464356Y-53071132D01*
X105465592Y-53068868D01*
X105465461Y-53067035D01*
X105461210Y-53060420D01*
X104780843Y-52380053D01*
X104769068Y-52373623D01*
X104757053Y-52382919D01*
X104726495Y-52426561D01*
X104721012Y-52436056D01*
X104674471Y-52535865D01*
X104627554Y-52589150D01*
X104559277Y-52608611D01*
X104491317Y-52588069D01*
X104446081Y-52535865D01*
X104399423Y-52435805D01*
X104399420Y-52435800D01*
X104397097Y-52430818D01*
X104269284Y-52248283D01*
X104111717Y-52090716D01*
X103993755Y-52008117D01*
X105133706Y-52008117D01*
X105140774Y-52021564D01*
X105817188Y-52697978D01*
X105831132Y-52705592D01*
X105832965Y-52705461D01*
X105839580Y-52701210D01*
X106519947Y-52020843D01*
X106526377Y-52009068D01*
X106525641Y-52008117D01*
X107673706Y-52008117D01*
X107680774Y-52021564D01*
X108357188Y-52697978D01*
X108371132Y-52705592D01*
X108372965Y-52705461D01*
X108379580Y-52701210D01*
X109059947Y-52020843D01*
X109066377Y-52009068D01*
X109057084Y-51997055D01*
X109013431Y-51966488D01*
X109003953Y-51961016D01*
X108812038Y-51871525D01*
X108801745Y-51867779D01*
X108597214Y-51812975D01*
X108586419Y-51811072D01*
X108375475Y-51792616D01*
X108364525Y-51792616D01*
X108153581Y-51811072D01*
X108142786Y-51812975D01*
X107938255Y-51867779D01*
X107927963Y-51871525D01*
X107736056Y-51961012D01*
X107726561Y-51966495D01*
X107682081Y-51997640D01*
X107673706Y-52008117D01*
X106525641Y-52008117D01*
X106517084Y-51997055D01*
X106473431Y-51966488D01*
X106463953Y-51961016D01*
X106272038Y-51871525D01*
X106261745Y-51867779D01*
X106057214Y-51812975D01*
X106046419Y-51811072D01*
X105835475Y-51792616D01*
X105824525Y-51792616D01*
X105613581Y-51811072D01*
X105602786Y-51812975D01*
X105398255Y-51867779D01*
X105387963Y-51871525D01*
X105196056Y-51961012D01*
X105186561Y-51966495D01*
X105142081Y-51997640D01*
X105133706Y-52008117D01*
X103993755Y-52008117D01*
X103929183Y-51962903D01*
X103924201Y-51960580D01*
X103924196Y-51960577D01*
X103732209Y-51871053D01*
X103732208Y-51871053D01*
X103727227Y-51868730D01*
X103721919Y-51867308D01*
X103721917Y-51867307D01*
X103655535Y-51849520D01*
X103511986Y-51811056D01*
X103290000Y-51791635D01*
X103068014Y-51811056D01*
X102924465Y-51849520D01*
X102858083Y-51867307D01*
X102858081Y-51867308D01*
X102852773Y-51868730D01*
X102847792Y-51871052D01*
X102847791Y-51871053D01*
X102655805Y-51960577D01*
X102655800Y-51960580D01*
X102650818Y-51962903D01*
X102468283Y-52090716D01*
X102310716Y-52248283D01*
X102182903Y-52430818D01*
X102180580Y-52435800D01*
X102180577Y-52435805D01*
X102134195Y-52535273D01*
X102087278Y-52588558D01*
X102019001Y-52608019D01*
X101951041Y-52587477D01*
X101905805Y-52535273D01*
X101859423Y-52435805D01*
X101859420Y-52435800D01*
X101857097Y-52430818D01*
X101729284Y-52248283D01*
X101571717Y-52090716D01*
X101389183Y-51962903D01*
X101384201Y-51960580D01*
X101384196Y-51960577D01*
X101192209Y-51871053D01*
X101192208Y-51871053D01*
X101187227Y-51868730D01*
X101181919Y-51867308D01*
X101181917Y-51867307D01*
X101115535Y-51849520D01*
X100971986Y-51811056D01*
X100750000Y-51791635D01*
X100528014Y-51811056D01*
X100384465Y-51849520D01*
X100318083Y-51867307D01*
X100318081Y-51867308D01*
X100312773Y-51868730D01*
X100307792Y-51871052D01*
X100307791Y-51871053D01*
X100115805Y-51960577D01*
X100115800Y-51960580D01*
X100110818Y-51962903D01*
X99928283Y-52090716D01*
X99770716Y-52248283D01*
X99642903Y-52430818D01*
X99640580Y-52435800D01*
X99640577Y-52435805D01*
X99594195Y-52535273D01*
X99547278Y-52588558D01*
X99479001Y-52608019D01*
X99411041Y-52587477D01*
X99365805Y-52535273D01*
X99319423Y-52435805D01*
X99319420Y-52435800D01*
X99317097Y-52430818D01*
X99189284Y-52248283D01*
X99031717Y-52090716D01*
X98849183Y-51962903D01*
X98844201Y-51960580D01*
X98844196Y-51960577D01*
X98652209Y-51871053D01*
X98652208Y-51871053D01*
X98647227Y-51868730D01*
X98641919Y-51867308D01*
X98641917Y-51867307D01*
X98575535Y-51849520D01*
X98431986Y-51811056D01*
X98210000Y-51791635D01*
X97988014Y-51811056D01*
X97844465Y-51849520D01*
X97778083Y-51867307D01*
X97778081Y-51867308D01*
X97772773Y-51868730D01*
X97767792Y-51871052D01*
X97767791Y-51871053D01*
X97575805Y-51960577D01*
X97575800Y-51960580D01*
X97570818Y-51962903D01*
X97388283Y-52090716D01*
X97230716Y-52248283D01*
X97102903Y-52430818D01*
X97100580Y-52435800D01*
X97100577Y-52435805D01*
X97054195Y-52535273D01*
X97007278Y-52588558D01*
X96939001Y-52608019D01*
X96871041Y-52587477D01*
X96825805Y-52535273D01*
X96779423Y-52435805D01*
X96779420Y-52435800D01*
X96777097Y-52430818D01*
X96649284Y-52248283D01*
X96491717Y-52090716D01*
X96309183Y-51962903D01*
X96304201Y-51960580D01*
X96304196Y-51960577D01*
X96112209Y-51871053D01*
X96112208Y-51871053D01*
X96107227Y-51868730D01*
X96101919Y-51867308D01*
X96101917Y-51867307D01*
X96035535Y-51849520D01*
X95891986Y-51811056D01*
X95670000Y-51791635D01*
X95448014Y-51811056D01*
X95304465Y-51849520D01*
X95238083Y-51867307D01*
X95238081Y-51867308D01*
X95232773Y-51868730D01*
X95227792Y-51871052D01*
X95227791Y-51871053D01*
X95035805Y-51960577D01*
X95035800Y-51960580D01*
X95030818Y-51962903D01*
X94848283Y-52090716D01*
X94690716Y-52248283D01*
X94562903Y-52430818D01*
X94560580Y-52435800D01*
X94560577Y-52435805D01*
X94514195Y-52535273D01*
X94467278Y-52588558D01*
X94399001Y-52608019D01*
X94331041Y-52587477D01*
X94285805Y-52535273D01*
X94239423Y-52435805D01*
X94239420Y-52435800D01*
X94237097Y-52430818D01*
X94109284Y-52248283D01*
X93951717Y-52090716D01*
X93769183Y-51962903D01*
X93764201Y-51960580D01*
X93764196Y-51960577D01*
X93572209Y-51871053D01*
X93572208Y-51871053D01*
X93567227Y-51868730D01*
X93561919Y-51867308D01*
X93561917Y-51867307D01*
X93495535Y-51849520D01*
X93351986Y-51811056D01*
X93130000Y-51791635D01*
X92908014Y-51811056D01*
X92764465Y-51849520D01*
X92698083Y-51867307D01*
X92698081Y-51867308D01*
X92692773Y-51868730D01*
X92687792Y-51871052D01*
X92687791Y-51871053D01*
X92495805Y-51960577D01*
X92495800Y-51960580D01*
X92490818Y-51962903D01*
X92308283Y-52090716D01*
X92150716Y-52248283D01*
X92022903Y-52430818D01*
X92020580Y-52435800D01*
X92020577Y-52435805D01*
X91974195Y-52535273D01*
X91927278Y-52588558D01*
X91859001Y-52608019D01*
X91791041Y-52587477D01*
X91745805Y-52535273D01*
X91699423Y-52435805D01*
X91699420Y-52435800D01*
X91697097Y-52430818D01*
X91569284Y-52248283D01*
X91411717Y-52090716D01*
X91229183Y-51962903D01*
X91224201Y-51960580D01*
X91224196Y-51960577D01*
X91032209Y-51871053D01*
X91032208Y-51871053D01*
X91027227Y-51868730D01*
X91021919Y-51867308D01*
X91021917Y-51867307D01*
X90955535Y-51849520D01*
X90811986Y-51811056D01*
X90590000Y-51791635D01*
X90368014Y-51811056D01*
X90224465Y-51849520D01*
X90158083Y-51867307D01*
X90158081Y-51867308D01*
X90152773Y-51868730D01*
X90147792Y-51871052D01*
X90147791Y-51871053D01*
X89955805Y-51960577D01*
X89955800Y-51960580D01*
X89950818Y-51962903D01*
X89768283Y-52090716D01*
X89610716Y-52248283D01*
X89482903Y-52430818D01*
X89480580Y-52435800D01*
X89480577Y-52435805D01*
X89434195Y-52535273D01*
X89387278Y-52588558D01*
X89319001Y-52608019D01*
X89251041Y-52587477D01*
X89205805Y-52535273D01*
X89159423Y-52435805D01*
X89159420Y-52435800D01*
X89157097Y-52430818D01*
X89029284Y-52248283D01*
X88871717Y-52090716D01*
X88689183Y-51962903D01*
X88684201Y-51960580D01*
X88684196Y-51960577D01*
X88492209Y-51871053D01*
X88492208Y-51871053D01*
X88487227Y-51868730D01*
X88481919Y-51867308D01*
X88481917Y-51867307D01*
X88415535Y-51849520D01*
X88271986Y-51811056D01*
X88050000Y-51791635D01*
X87828014Y-51811056D01*
X87684465Y-51849520D01*
X87618083Y-51867307D01*
X87618081Y-51867308D01*
X87612773Y-51868730D01*
X87607792Y-51871052D01*
X87607791Y-51871053D01*
X87415805Y-51960577D01*
X87415800Y-51960580D01*
X87410818Y-51962903D01*
X87228283Y-52090716D01*
X87070716Y-52248283D01*
X86942903Y-52430818D01*
X86940580Y-52435800D01*
X86940577Y-52435805D01*
X86894195Y-52535273D01*
X86847278Y-52588558D01*
X86779001Y-52608019D01*
X86711041Y-52587477D01*
X86665805Y-52535273D01*
X86619423Y-52435805D01*
X86619420Y-52435800D01*
X86617097Y-52430818D01*
X86489284Y-52248283D01*
X86331717Y-52090716D01*
X86149183Y-51962903D01*
X86144201Y-51960580D01*
X86144196Y-51960577D01*
X85952209Y-51871053D01*
X85952208Y-51871053D01*
X85947227Y-51868730D01*
X85941919Y-51867308D01*
X85941917Y-51867307D01*
X85875535Y-51849520D01*
X85731986Y-51811056D01*
X85510000Y-51791635D01*
X85288014Y-51811056D01*
X85144465Y-51849520D01*
X85078083Y-51867307D01*
X85078081Y-51867308D01*
X85072773Y-51868730D01*
X85067792Y-51871052D01*
X85067791Y-51871053D01*
X84875805Y-51960577D01*
X84875800Y-51960580D01*
X84870818Y-51962903D01*
X84688283Y-52090716D01*
X84530716Y-52248283D01*
X84402903Y-52430818D01*
X84400580Y-52435800D01*
X84400577Y-52435805D01*
X84354195Y-52535273D01*
X84307278Y-52588558D01*
X84239001Y-52608019D01*
X84171041Y-52587477D01*
X84125805Y-52535273D01*
X84079423Y-52435805D01*
X84079420Y-52435800D01*
X84077097Y-52430818D01*
X83949284Y-52248283D01*
X83791717Y-52090716D01*
X83609183Y-51962903D01*
X83604201Y-51960580D01*
X83604196Y-51960577D01*
X83412209Y-51871053D01*
X83412208Y-51871053D01*
X83407227Y-51868730D01*
X83401919Y-51867308D01*
X83401917Y-51867307D01*
X83335535Y-51849520D01*
X83191986Y-51811056D01*
X82970000Y-51791635D01*
X82748014Y-51811056D01*
X82604465Y-51849520D01*
X82538083Y-51867307D01*
X82538081Y-51867308D01*
X82532773Y-51868730D01*
X82527792Y-51871052D01*
X82527791Y-51871053D01*
X82335805Y-51960577D01*
X82335800Y-51960580D01*
X82330818Y-51962903D01*
X82148283Y-52090716D01*
X81990716Y-52248283D01*
X81862903Y-52430818D01*
X81860580Y-52435800D01*
X81860577Y-52435805D01*
X81814195Y-52535273D01*
X81767278Y-52588558D01*
X81699001Y-52608019D01*
X81631041Y-52587477D01*
X81585805Y-52535273D01*
X81539423Y-52435805D01*
X81539420Y-52435800D01*
X81537097Y-52430818D01*
X81409284Y-52248283D01*
X81251717Y-52090716D01*
X81069183Y-51962903D01*
X81064201Y-51960580D01*
X81064196Y-51960577D01*
X80872209Y-51871053D01*
X80872208Y-51871053D01*
X80867227Y-51868730D01*
X80861919Y-51867308D01*
X80861917Y-51867307D01*
X80795535Y-51849520D01*
X80651986Y-51811056D01*
X80430000Y-51791635D01*
X80208014Y-51811056D01*
X80064465Y-51849520D01*
X79998083Y-51867307D01*
X79998081Y-51867308D01*
X79992773Y-51868730D01*
X79987792Y-51871052D01*
X79987791Y-51871053D01*
X79795805Y-51960577D01*
X79795800Y-51960580D01*
X79790818Y-51962903D01*
X79608283Y-52090716D01*
X79450716Y-52248283D01*
X79322903Y-52430818D01*
X79320580Y-52435800D01*
X79320577Y-52435805D01*
X79274195Y-52535273D01*
X79227278Y-52588558D01*
X79159001Y-52608019D01*
X79091041Y-52587477D01*
X79045805Y-52535273D01*
X78999423Y-52435805D01*
X78999420Y-52435800D01*
X78997097Y-52430818D01*
X78869284Y-52248283D01*
X78711717Y-52090716D01*
X78529183Y-51962903D01*
X78524201Y-51960580D01*
X78524196Y-51960577D01*
X78332209Y-51871053D01*
X78332208Y-51871053D01*
X78327227Y-51868730D01*
X78321919Y-51867308D01*
X78321917Y-51867307D01*
X78255535Y-51849520D01*
X78111986Y-51811056D01*
X77890000Y-51791635D01*
X77668014Y-51811056D01*
X77524465Y-51849520D01*
X77458083Y-51867307D01*
X77458081Y-51867308D01*
X77452773Y-51868730D01*
X77447792Y-51871052D01*
X77447791Y-51871053D01*
X77255805Y-51960577D01*
X77255800Y-51960580D01*
X77250818Y-51962903D01*
X77068283Y-52090716D01*
X76910716Y-52248283D01*
X76782903Y-52430818D01*
X76780580Y-52435800D01*
X76780577Y-52435805D01*
X76734195Y-52535273D01*
X76687278Y-52588558D01*
X76619001Y-52608019D01*
X76551041Y-52587477D01*
X76505805Y-52535273D01*
X76459423Y-52435805D01*
X76459420Y-52435800D01*
X76457097Y-52430818D01*
X76329284Y-52248283D01*
X76171717Y-52090716D01*
X75989183Y-51962903D01*
X75984201Y-51960580D01*
X75984196Y-51960577D01*
X75792209Y-51871053D01*
X75792208Y-51871053D01*
X75787227Y-51868730D01*
X75781919Y-51867308D01*
X75781917Y-51867307D01*
X75715535Y-51849520D01*
X75571986Y-51811056D01*
X75350000Y-51791635D01*
X75128014Y-51811056D01*
X74984465Y-51849520D01*
X74918083Y-51867307D01*
X74918081Y-51867308D01*
X74912773Y-51868730D01*
X74907792Y-51871052D01*
X74907791Y-51871053D01*
X74715805Y-51960577D01*
X74715800Y-51960580D01*
X74710818Y-51962903D01*
X74528283Y-52090716D01*
X74370716Y-52248283D01*
X74242903Y-52430818D01*
X74240580Y-52435800D01*
X74240577Y-52435805D01*
X74194195Y-52535273D01*
X74147278Y-52588558D01*
X74079001Y-52608019D01*
X74011041Y-52587477D01*
X73965805Y-52535273D01*
X73919423Y-52435805D01*
X73919420Y-52435800D01*
X73917097Y-52430818D01*
X73789284Y-52248283D01*
X73631717Y-52090716D01*
X73449183Y-51962903D01*
X73444201Y-51960580D01*
X73444196Y-51960577D01*
X73252209Y-51871053D01*
X73252208Y-51871053D01*
X73247227Y-51868730D01*
X73241919Y-51867308D01*
X73241917Y-51867307D01*
X73175535Y-51849520D01*
X73031986Y-51811056D01*
X72810000Y-51791635D01*
X72588014Y-51811056D01*
X72444465Y-51849520D01*
X72378083Y-51867307D01*
X72378081Y-51867308D01*
X72372773Y-51868730D01*
X72367792Y-51871052D01*
X72367791Y-51871053D01*
X72175805Y-51960577D01*
X72175800Y-51960580D01*
X72170818Y-51962903D01*
X71988283Y-52090716D01*
X71830716Y-52248283D01*
X71702903Y-52430818D01*
X71700580Y-52435800D01*
X71700577Y-52435805D01*
X71654195Y-52535273D01*
X71607278Y-52588558D01*
X71539001Y-52608019D01*
X71471041Y-52587477D01*
X71425805Y-52535273D01*
X71379423Y-52435805D01*
X71379420Y-52435800D01*
X71377097Y-52430818D01*
X71249284Y-52248283D01*
X71091717Y-52090716D01*
X70909183Y-51962903D01*
X70904201Y-51960580D01*
X70904196Y-51960577D01*
X70712209Y-51871053D01*
X70712208Y-51871053D01*
X70707227Y-51868730D01*
X70701919Y-51867308D01*
X70701917Y-51867307D01*
X70635535Y-51849520D01*
X70491986Y-51811056D01*
X70270000Y-51791635D01*
X70048014Y-51811056D01*
X69904465Y-51849520D01*
X69838083Y-51867307D01*
X69838081Y-51867308D01*
X69832773Y-51868730D01*
X69827792Y-51871052D01*
X69827791Y-51871053D01*
X69635805Y-51960577D01*
X69635800Y-51960580D01*
X69630818Y-51962903D01*
X69448283Y-52090716D01*
X69290716Y-52248283D01*
X69162903Y-52430818D01*
X69160580Y-52435800D01*
X69160577Y-52435805D01*
X69114195Y-52535273D01*
X69067278Y-52588558D01*
X68999001Y-52608019D01*
X68931041Y-52587477D01*
X68885805Y-52535273D01*
X68839423Y-52435805D01*
X68839420Y-52435800D01*
X68837097Y-52430818D01*
X68709284Y-52248283D01*
X68551717Y-52090716D01*
X68369183Y-51962903D01*
X68364201Y-51960580D01*
X68364196Y-51960577D01*
X68172209Y-51871053D01*
X68172208Y-51871053D01*
X68167227Y-51868730D01*
X68161919Y-51867308D01*
X68161917Y-51867307D01*
X68095535Y-51849520D01*
X67951986Y-51811056D01*
X67730000Y-51791635D01*
X67508014Y-51811056D01*
X67364465Y-51849520D01*
X67298083Y-51867307D01*
X67298081Y-51867308D01*
X67292773Y-51868730D01*
X67287792Y-51871052D01*
X67287791Y-51871053D01*
X67095805Y-51960577D01*
X67095800Y-51960580D01*
X67090818Y-51962903D01*
X66908283Y-52090716D01*
X66750716Y-52248283D01*
X66622903Y-52430818D01*
X66620580Y-52435800D01*
X66620577Y-52435805D01*
X66574195Y-52535273D01*
X66527278Y-52588558D01*
X66459001Y-52608019D01*
X66391041Y-52587477D01*
X66345805Y-52535273D01*
X66299423Y-52435805D01*
X66299420Y-52435800D01*
X66297097Y-52430818D01*
X66169284Y-52248283D01*
X66011717Y-52090716D01*
X65829183Y-51962903D01*
X65824201Y-51960580D01*
X65824196Y-51960577D01*
X65632209Y-51871053D01*
X65632208Y-51871053D01*
X65627227Y-51868730D01*
X65621919Y-51867308D01*
X65621917Y-51867307D01*
X65555535Y-51849520D01*
X65411986Y-51811056D01*
X65190000Y-51791635D01*
X64968014Y-51811056D01*
X64824465Y-51849520D01*
X64758083Y-51867307D01*
X64758081Y-51867308D01*
X64752773Y-51868730D01*
X64747792Y-51871052D01*
X64747791Y-51871053D01*
X64555805Y-51960577D01*
X64555800Y-51960580D01*
X64550818Y-51962903D01*
X64368283Y-52090716D01*
X64210716Y-52248283D01*
X64082903Y-52430818D01*
X64080580Y-52435800D01*
X64080577Y-52435805D01*
X64034195Y-52535273D01*
X63987278Y-52588558D01*
X63919001Y-52608019D01*
X63851041Y-52587477D01*
X63805805Y-52535273D01*
X63759423Y-52435805D01*
X63759420Y-52435800D01*
X63757097Y-52430818D01*
X63629284Y-52248283D01*
X63471717Y-52090716D01*
X63289183Y-51962903D01*
X63284201Y-51960580D01*
X63284196Y-51960577D01*
X63092209Y-51871053D01*
X63092208Y-51871053D01*
X63087227Y-51868730D01*
X63081919Y-51867308D01*
X63081917Y-51867307D01*
X63015535Y-51849520D01*
X62871986Y-51811056D01*
X62650000Y-51791635D01*
X62428014Y-51811056D01*
X62284465Y-51849520D01*
X62218083Y-51867307D01*
X62218081Y-51867308D01*
X62212773Y-51868730D01*
X62207792Y-51871052D01*
X62207791Y-51871053D01*
X62015805Y-51960577D01*
X62015800Y-51960580D01*
X62010818Y-51962903D01*
X61828283Y-52090716D01*
X61670716Y-52248283D01*
X61542903Y-52430818D01*
X61540580Y-52435800D01*
X61540577Y-52435805D01*
X61494195Y-52535273D01*
X61447278Y-52588558D01*
X61379001Y-52608019D01*
X61311041Y-52587477D01*
X61265805Y-52535273D01*
X61219423Y-52435805D01*
X61219420Y-52435800D01*
X61217097Y-52430818D01*
X61089284Y-52248283D01*
X60931717Y-52090716D01*
X60749183Y-51962903D01*
X60744201Y-51960580D01*
X60744196Y-51960577D01*
X60552209Y-51871053D01*
X60552208Y-51871053D01*
X60547227Y-51868730D01*
X60541919Y-51867308D01*
X60541917Y-51867307D01*
X60475535Y-51849520D01*
X60331986Y-51811056D01*
X60110000Y-51791635D01*
X59888014Y-51811056D01*
X59744465Y-51849520D01*
X59678083Y-51867307D01*
X59678081Y-51867308D01*
X59672773Y-51868730D01*
X59667792Y-51871052D01*
X59667791Y-51871053D01*
X59475805Y-51960577D01*
X59475800Y-51960580D01*
X59470818Y-51962903D01*
X59288283Y-52090716D01*
X59130716Y-52248283D01*
X59002903Y-52430818D01*
X59000580Y-52435800D01*
X59000577Y-52435805D01*
X58954195Y-52535273D01*
X58907278Y-52588558D01*
X58839001Y-52608019D01*
X58771041Y-52587477D01*
X58725805Y-52535273D01*
X58679423Y-52435805D01*
X58679420Y-52435800D01*
X58677097Y-52430818D01*
X58549284Y-52248283D01*
X58391717Y-52090716D01*
X58209183Y-51962903D01*
X58204201Y-51960580D01*
X58204196Y-51960577D01*
X58012209Y-51871053D01*
X58012208Y-51871053D01*
X58007227Y-51868730D01*
X58001919Y-51867308D01*
X58001917Y-51867307D01*
X57935535Y-51849520D01*
X57791986Y-51811056D01*
X57570000Y-51791635D01*
X57348014Y-51811056D01*
X57204465Y-51849520D01*
X57138083Y-51867307D01*
X57138081Y-51867308D01*
X57132773Y-51868730D01*
X57127792Y-51871052D01*
X57127791Y-51871053D01*
X56935805Y-51960577D01*
X56935800Y-51960580D01*
X56930818Y-51962903D01*
X56748283Y-52090716D01*
X56590716Y-52248283D01*
X56462903Y-52430818D01*
X56460580Y-52435800D01*
X56460577Y-52435805D01*
X56413919Y-52535865D01*
X56367002Y-52589150D01*
X56298725Y-52608611D01*
X56230765Y-52588069D01*
X56185529Y-52535865D01*
X56138988Y-52436056D01*
X56133505Y-52426561D01*
X56102360Y-52382081D01*
X56091883Y-52373706D01*
X56078436Y-52380774D01*
X55402022Y-53057188D01*
X55394408Y-53071132D01*
X54664356Y-53071132D01*
X54665592Y-53068868D01*
X54665461Y-53067035D01*
X54661210Y-53060420D01*
X53980843Y-52380053D01*
X53969068Y-52373623D01*
X53957053Y-52382919D01*
X53926495Y-52426561D01*
X53921012Y-52436056D01*
X53831525Y-52627963D01*
X53827779Y-52638255D01*
X53772975Y-52842786D01*
X53771072Y-52853581D01*
X53752616Y-53064525D01*
X53752616Y-53075475D01*
X50508500Y-53075475D01*
X50508500Y-52008117D01*
X54333706Y-52008117D01*
X54340774Y-52021564D01*
X55017188Y-52697978D01*
X55031132Y-52705592D01*
X55032965Y-52705461D01*
X55039580Y-52701210D01*
X55719947Y-52020843D01*
X55726377Y-52009068D01*
X55717084Y-51997055D01*
X55673431Y-51966488D01*
X55663953Y-51961016D01*
X55472038Y-51871525D01*
X55461745Y-51867779D01*
X55257214Y-51812975D01*
X55246419Y-51811072D01*
X55035475Y-51792616D01*
X55024525Y-51792616D01*
X54813581Y-51811072D01*
X54802786Y-51812975D01*
X54598255Y-51867779D01*
X54587963Y-51871525D01*
X54396056Y-51961012D01*
X54386561Y-51966495D01*
X54342081Y-51997640D01*
X54333706Y-52008117D01*
X50508500Y-52008117D01*
X50508500Y-51053250D01*
X50510246Y-51032345D01*
X50512770Y-51017344D01*
X50512770Y-51017341D01*
X50513576Y-51012552D01*
X50513729Y-51000000D01*
X50513040Y-50995188D01*
X50512723Y-50990327D01*
X50513008Y-50990308D01*
X50512607Y-50963549D01*
X50519234Y-50904736D01*
X50525513Y-50877229D01*
X50552485Y-50800147D01*
X50564727Y-50774726D01*
X50608178Y-50705574D01*
X50625770Y-50683515D01*
X50683515Y-50625770D01*
X50705574Y-50608178D01*
X50774726Y-50564727D01*
X50800147Y-50552485D01*
X50877228Y-50525513D01*
X50904736Y-50519234D01*
X50960226Y-50512982D01*
X50975868Y-50513077D01*
X50975879Y-50512200D01*
X50984851Y-50512310D01*
X50993724Y-50513691D01*
X51002626Y-50512527D01*
X51002628Y-50512527D01*
X51017951Y-50510523D01*
X51025286Y-50509564D01*
X51041621Y-50508500D01*
X118950633Y-50508500D01*
X118970018Y-50510000D01*
G37*
%TD.AperFunction*%
%TD*%
M02*
